<svg width="102" height="24" viewBox="0 0 102 24" fill="none" xmlns="http://www.w3.org/2000/svg">
<path d="M11.264 1.98709L6.56622 3.91524C6.443 3.96319 6.33745 4.04778 6.26381 4.1576C6.19017 4.26743 6.15198 4.39719 6.15441 4.52939V9.79135L9.87146 8.29882C10.4513 8.07743 10.9488 7.68266 11.2962 7.16831C11.6436 6.65395 11.8239 6.04501 11.8127 5.42444V2.36082C11.8181 2.2936 11.8056 2.22616 11.7765 2.16534C11.7474 2.10452 11.7027 2.05249 11.6469 2.01453C11.5912 1.97657 11.5264 1.95404 11.4592 1.94922C11.3919 1.9444 11.3246 1.95746 11.264 1.98709Z" fill="#05662C"/>
<path d="M0.44747 12.5577V15.3916C0.44747 19.2539 3.24567 22.0509 7.11269 22.0509H11.3011C11.3695 22.0532 11.4377 22.0415 11.5015 22.0163C11.5652 21.9912 11.6231 21.9532 11.6715 21.9048C11.7199 21.8563 11.7579 21.7985 11.783 21.7347C11.8082 21.671 11.8199 21.6028 11.8176 21.5344V16.8818C11.8199 16.8133 11.8082 16.745 11.783 16.6812C11.7579 16.6174 11.72 16.5595 11.6716 16.511C11.6231 16.4624 11.5653 16.4244 11.5016 16.3991C11.4378 16.3738 11.3696 16.3619 11.3011 16.364H7.01747C6.90303 16.3682 6.78897 16.3487 6.68239 16.3068C6.57581 16.265 6.47901 16.2015 6.39804 16.1206C6.31707 16.0396 6.25365 15.9428 6.21176 15.8362C6.16987 15.7296 6.1504 15.6156 6.15456 15.5011V9.78809L0.861664 11.9424C0.7373 11.9893 0.630612 12.0737 0.556395 12.184C0.482177 12.2942 0.44411 12.4248 0.44747 12.5577Z" fill="#7DDF20"/>
<path d="M34.7379 6.62305C31.1589 6.62305 28.4023 9.40459 28.4023 12.911C28.4023 16.4174 31.1589 19.1977 34.7379 19.1977C38.3169 19.1977 41.0734 16.4174 41.0734 12.911C41.0734 9.40459 38.3169 6.62305 34.7379 6.62305ZM34.7379 16.7316C32.586 16.7316 31.0863 15.0653 31.0863 12.911C31.0863 10.7567 32.586 9.09037 34.7379 9.09037C36.866 9.09037 38.3645 10.7567 38.3645 12.911C38.3645 15.0653 36.866 16.7316 34.7379 16.7316Z" fill="#05662C"/>
<path d="M53.7685 15.7639L51.7856 14.6999C51.7624 14.6862 51.7364 14.6779 51.7095 14.6754C51.6827 14.6729 51.6556 14.6764 51.6303 14.6857C51.6049 14.6949 51.5819 14.7095 51.5629 14.7287C51.5439 14.7478 51.5293 14.7709 51.5202 14.7963C51.2168 15.3852 50.7556 15.8782 50.1881 16.2199C49.6205 16.5617 48.9691 16.7389 48.3066 16.7316C46.1535 16.7316 44.63 15.0653 44.63 12.911C44.63 10.7567 46.1535 9.09037 48.3066 9.09037C48.9691 9.08214 49.6208 9.25876 50.1885 9.60042C50.7561 9.94207 51.2173 10.4352 51.5202 11.0245C51.5291 11.05 51.5436 11.0732 51.5626 11.0925C51.5816 11.1117 51.6046 11.1265 51.63 11.1357C51.6554 11.145 51.6826 11.1484 51.7095 11.1459C51.7364 11.1433 51.7624 11.1348 51.7856 11.1209L53.7685 10.0568C53.7927 10.0462 53.8141 10.0303 53.8313 10.0103C53.8485 9.99036 53.861 9.9668 53.868 9.94138C53.8749 9.91596 53.8761 9.88931 53.8715 9.86337C53.8668 9.83743 53.8565 9.81284 53.8411 9.79141C52.7771 7.85611 50.7466 6.62305 48.3042 6.62305C44.6765 6.62305 41.9199 9.33199 41.9199 12.911C41.9199 16.49 44.6765 19.1977 48.3042 19.1977C50.7466 19.1977 52.8021 17.9646 53.8661 16.0055C53.8845 15.9605 53.8846 15.91 53.8664 15.8649C53.8482 15.8198 53.8131 15.7836 53.7685 15.7639Z" fill="#05662C"/>
<path d="M28.0876 16.5376H21.8984V7.05875C21.8948 7.00849 21.8732 6.9612 21.8376 6.92557C21.802 6.88993 21.7547 6.86834 21.7044 6.86475H19.4311C19.381 6.86837 19.3338 6.89001 19.2984 6.92566C19.2629 6.96132 19.2416 7.00859 19.2383 7.05875V16.7317C19.2383 18.1099 20.0845 18.9562 21.4628 18.9562H28.0876C28.1378 18.9528 28.1851 18.9312 28.2205 18.8955C28.256 18.8598 28.2773 18.8124 28.2804 18.7622V16.7317C28.2773 16.6814 28.256 16.634 28.2205 16.5983C28.1851 16.5626 28.1378 16.541 28.0876 16.5376Z" fill="#05662C"/>
<path d="M88.2994 16.5375H81.9543L88.203 9.11411C88.2662 9.03977 88.3004 8.94509 88.2994 8.8475V7.06217C88.296 7.01182 88.2745 6.96439 88.2388 6.92871C88.2032 6.89303 88.1557 6.87151 88.1054 6.86816H78.8217C78.7713 6.87151 78.7239 6.89303 78.6882 6.92871C78.6525 6.96439 78.631 7.01182 78.6277 7.06217V9.09387C78.631 9.1441 78.6526 9.19138 78.6883 9.22687C78.724 9.26235 78.7714 9.28362 78.8217 9.28669H84.8597L78.6277 16.7351C78.565 16.8093 78.5308 16.9034 78.5313 17.0005V18.762C78.5343 18.8123 78.5556 18.8597 78.5911 18.8954C78.6266 18.9311 78.6738 18.9526 78.7241 18.956H88.3006C88.3508 18.9526 88.3981 18.9311 88.4336 18.8954C88.469 18.8597 88.4903 18.8123 88.4934 18.762V16.7315C88.4903 16.6811 88.4689 16.6335 88.4331 16.5978C88.3974 16.562 88.3498 16.5406 88.2994 16.5375Z" fill="#05662C"/>
<path d="M76.5482 2.53711H74.2748C74.2248 2.54046 74.1777 2.56184 74.1422 2.5973C74.1068 2.63276 74.0854 2.67989 74.082 2.72992V5.05204C74.0854 5.10207 74.1068 5.1492 74.1422 5.18466C74.1777 5.22012 74.2248 5.24151 74.2748 5.24486H75.1449C75.3563 5.25164 75.5669 5.21499 75.7636 5.13718C75.9603 5.05937 76.139 4.94205 76.2886 4.79246C76.4382 4.64288 76.5555 4.46421 76.6333 4.2675C76.7111 4.07079 76.7478 3.86021 76.741 3.64877V2.72992C76.7376 2.67989 76.7162 2.63276 76.6808 2.5973C76.6453 2.56184 76.5982 2.54046 76.5482 2.53711Z" fill="#05662C"/>
<path d="M101.357 6.86466H99.0837C99.0336 6.86829 98.9865 6.88992 98.951 6.92558C98.9156 6.96123 98.8942 7.00851 98.8909 7.05867V8.49526C98.2149 7.52047 96.7711 6.62305 95.0215 6.62305C91.7091 6.62305 89.1895 9.4522 89.1895 12.911C89.1895 16.3697 91.7044 19.1977 95.0215 19.1977C96.7711 19.1977 98.2149 18.3015 98.8909 17.3267V18.7621C98.894 18.8123 98.9153 18.8597 98.9507 18.8954C98.9862 18.9312 99.0335 18.9527 99.0837 18.9561H101.357C101.407 18.9527 101.455 18.9312 101.491 18.8955C101.526 18.8599 101.548 18.8124 101.551 18.7621V7.05867C101.547 7.0084 101.526 6.96112 101.49 6.92548C101.455 6.88985 101.407 6.86826 101.357 6.86466ZM95.5048 16.7792C93.3778 16.7792 91.902 15.0867 91.902 12.911C91.902 10.7353 93.3778 9.04157 95.5048 9.04157C97.6317 9.04157 99.1087 10.7341 99.1087 12.911C99.1087 15.0879 97.6329 16.7792 95.5048 16.7792Z" fill="#05662C"/>
<path d="M66.7106 6.86466H64.4373C64.3871 6.86829 64.34 6.88992 64.3045 6.92558C64.2691 6.96123 64.2478 7.00851 64.2444 7.05867V8.49526C63.5672 7.52047 62.1235 6.62305 60.375 6.62305C57.0615 6.62305 54.543 9.4522 54.543 12.911C54.543 16.3697 57.0579 19.1977 60.375 19.1977C62.1235 19.1977 63.5672 18.3015 64.2444 17.3267V18.7621C64.2475 18.8123 64.2688 18.8597 64.3043 18.8954C64.3397 18.9312 64.387 18.9527 64.4373 18.9561H66.7106C66.7608 18.9527 66.8081 18.9312 66.8436 18.8954C66.8791 18.8597 66.9003 18.8123 66.9034 18.7621V7.05867C66.9001 7.00851 66.8787 6.96123 66.8433 6.92558C66.8078 6.88992 66.7607 6.86829 66.7106 6.86466ZM60.8583 16.7792C58.7301 16.7792 57.2555 15.0867 57.2555 12.911C57.2555 10.7353 58.7301 9.04157 60.8583 9.04157C62.9864 9.04157 64.4611 10.7341 64.4611 12.911C64.4611 15.0879 62.9816 16.7792 60.8535 16.7792H60.8583Z" fill="#05662C"/>
<path d="M76.5482 6.86475H74.276C74.1689 6.86475 74.082 6.95161 74.082 7.05875V18.761C74.082 18.8681 74.1689 18.955 74.276 18.955H76.5482C76.6553 18.955 76.7422 18.8681 76.7422 18.761V7.05875C76.7422 6.95161 76.6553 6.86475 76.5482 6.86475Z" fill="#05662C"/>
<path d="M71.638 2.53711H69.3659C69.2587 2.53711 69.1719 2.62397 69.1719 2.73111V18.7622C69.1719 18.8693 69.2587 18.9562 69.3659 18.9562H71.638C71.7452 18.9562 71.832 18.8693 71.832 18.7622V2.73111C71.832 2.62397 71.7452 2.53711 71.638 2.53711Z" fill="#05662C"/>
</svg>
