<svg width="96" height="32" viewBox="0 0 96 32" fill="none" xmlns="http://www.w3.org/2000/svg">
<path d="M83.2114 15.0696H85.9971V12.2808C85.997 12.2622 86.0005 12.2437 86.0075 12.2265C86.0146 12.2093 86.0249 12.1936 86.0381 12.1804C86.0512 12.1672 86.0668 12.1567 86.084 12.1495C86.1012 12.1424 86.1196 12.1387 86.1382 12.1387H87.6288C87.6663 12.1389 87.7022 12.154 87.7286 12.1807C87.7551 12.2073 87.7699 12.2433 87.7699 12.2808V15.0696H90.5587C90.5961 15.0696 90.632 15.0845 90.6585 15.111C90.685 15.1374 90.6998 15.1733 90.6998 15.2108V16.6836C90.6998 16.721 90.685 16.7569 90.6585 16.7833C90.632 16.8098 90.5961 16.8247 90.5587 16.8247H87.7741V19.6135C87.7741 19.632 87.7704 19.6504 87.7633 19.6675C87.7562 19.6846 87.7459 19.7002 87.7327 19.7133C87.7196 19.7264 87.7041 19.7368 87.687 19.7438C87.6698 19.7509 87.6515 19.7546 87.633 19.7546H86.1424C86.1238 19.7547 86.1054 19.7512 86.0882 19.7441C86.071 19.7371 86.0554 19.7267 86.0423 19.7136C86.0292 19.7004 86.0188 19.6848 86.0117 19.6676C86.0047 19.6505 86.0011 19.6321 86.0013 19.6135V16.8247H83.2114C83.1741 16.8244 83.1384 16.8094 83.1119 16.783C83.0855 16.7566 83.0706 16.7209 83.0703 16.6836V15.2108C83.0706 15.1734 83.0855 15.1377 83.1119 15.1113C83.1384 15.0849 83.1741 15.0699 83.2114 15.0696Z" fill="#05662C"/>
<path d="M30.9968 11.9692C28.3146 11.9692 26.248 14.0535 26.248 16.6814C26.248 19.3092 28.3146 21.3924 30.9968 21.3924C33.679 21.3924 35.7444 19.3082 35.7444 16.6814C35.7444 14.0546 33.679 11.9692 30.9968 11.9692ZM30.9968 19.5444C29.3839 19.5444 28.2602 18.2901 28.2602 16.6814C28.2602 15.0727 29.3839 13.8173 30.9968 13.8173C32.5908 13.8173 33.7145 15.0716 33.7145 16.6814C33.7145 18.2911 32.5908 19.5444 30.9968 19.5444Z" fill="#05662C"/>
<path d="M45.2586 18.819L43.7732 18.0215C43.7557 18.0112 43.7361 18.005 43.7159 18.0032C43.6956 18.0014 43.6753 18.0041 43.6562 18.0111C43.6371 18.0181 43.6198 18.0292 43.6055 18.0436C43.5913 18.0581 43.5803 18.0755 43.5736 18.0947C43.3464 18.5366 43.0004 18.9063 42.5746 19.1625C42.1488 19.4186 41.66 19.5509 41.1632 19.5445C39.5503 19.5445 38.4088 18.2901 38.4088 16.6814C38.4088 15.0727 39.5503 13.8174 41.1632 13.8174C41.66 13.811 42.1488 13.9433 42.5746 14.1994C43.0004 14.4555 43.3464 14.8253 43.5736 15.2672C43.5803 15.2863 43.5913 15.3037 43.6055 15.3182C43.6198 15.3326 43.6371 15.3437 43.6562 15.3507C43.6753 15.3577 43.6956 15.3604 43.7159 15.3586C43.7361 15.3568 43.7557 15.3506 43.7732 15.3403L45.2586 14.5417C45.2766 14.5337 45.2927 14.5217 45.3055 14.5066C45.3184 14.4916 45.3278 14.4739 45.333 14.4548C45.3382 14.4357 45.3391 14.4157 45.3356 14.3962C45.3321 14.3767 45.3244 14.3582 45.3129 14.3421C44.5154 12.8923 42.9934 11.9683 41.1632 11.9683C38.4454 11.9683 36.3789 13.9982 36.3789 16.6804C36.3789 19.3626 38.4444 21.3915 41.1632 21.3915C42.9934 21.3915 44.5342 20.4674 45.3317 18.9999C45.3452 18.9661 45.3451 18.9285 45.3314 18.8948C45.3178 18.8611 45.2917 18.834 45.2586 18.819Z" fill="#05662C"/>
<path d="M13.4055 8.49491L9.88394 9.94263C9.79077 9.97782 9.7107 10.0408 9.6546 10.1231C9.5985 10.2054 9.56908 10.303 9.57035 10.4026V14.3433L12.356 13.2248C12.7906 13.0588 13.1634 12.7629 13.4237 12.3774C13.6841 11.9919 13.8193 11.5356 13.8111 11.0705V8.77087C13.8138 8.72159 13.8037 8.67245 13.7818 8.6282C13.7599 8.58396 13.727 8.54613 13.6862 8.51837C13.6454 8.4906 13.5981 8.47385 13.5489 8.46974C13.4997 8.46564 13.4503 8.4743 13.4055 8.49491Z" fill="#00A989"/>
<path d="M26.0132 19.3992H21.3742V12.2913C21.3715 12.2536 21.3554 12.2182 21.3287 12.1915C21.302 12.1648 21.2666 12.1487 21.2289 12.146H19.5251C19.4876 12.1487 19.4523 12.1649 19.4258 12.1916C19.3992 12.2183 19.3833 12.2537 19.3809 12.2913V19.5403C19.3809 20.5731 20.0143 21.2075 21.0481 21.2075H26.0132C26.0508 21.2049 26.0862 21.1887 26.1129 21.162C26.1396 21.1353 26.1558 21.0999 26.1585 21.0622V19.5445C26.156 19.5068 26.1399 19.4712 26.1132 19.4445C26.0864 19.4178 26.0509 19.4017 26.0132 19.3992Z" fill="#05662C"/>
<path d="M5.30084 16.4161V18.5401C5.30084 21.4345 7.39768 23.5313 10.291 23.5313H13.4269C13.4783 23.533 13.5295 23.5242 13.5773 23.5053C13.6252 23.4865 13.6686 23.458 13.705 23.4216C13.7413 23.3852 13.7698 23.3418 13.7887 23.2939C13.8076 23.2461 13.8164 23.1949 13.8147 23.1435V19.6637C13.8164 19.6123 13.8076 19.5611 13.7887 19.5133C13.7698 19.4655 13.7413 19.422 13.705 19.3856C13.6686 19.3493 13.6252 19.3208 13.5773 19.3019C13.5295 19.283 13.4783 19.2742 13.4269 19.2759H10.2231C10.1374 19.2787 10.052 19.2639 9.97224 19.2323C9.89249 19.2008 9.82005 19.1532 9.75941 19.0926C9.69877 19.0319 9.65121 18.9595 9.61967 18.8798C9.58813 18.8 9.57329 18.7146 9.57605 18.6289V14.3433L5.61443 15.9582C5.52117 15.9926 5.4409 16.0552 5.38473 16.1372C5.32855 16.2192 5.29924 16.3167 5.30084 16.4161Z" fill="#05662C"/>
<path d="M71.1386 19.3989H66.3836L71.0654 13.8359C71.1129 13.7803 71.1388 13.7094 71.1386 13.6363V12.2952C71.1359 12.2575 71.1198 12.2221 71.0931 12.1954C71.0664 12.1687 71.031 12.1526 70.9933 12.1499H64.0349C63.9971 12.1524 63.9616 12.1685 63.9349 12.1952C63.9081 12.2219 63.892 12.2575 63.8896 12.2952V13.8171C63.892 13.8549 63.9081 13.8904 63.9349 13.9171C63.9616 13.9439 63.9971 13.96 64.0349 13.9624H68.5599L63.8896 19.5442C63.8421 19.5999 63.8162 19.6707 63.8164 19.7439V21.0662C63.8191 21.1038 63.8352 21.1392 63.8619 21.1659C63.8886 21.1926 63.924 21.2088 63.9617 21.2114H71.1386C71.1761 21.2087 71.2114 21.1925 71.238 21.1658C71.2645 21.1391 71.2804 21.1037 71.2828 21.0662V19.5442C71.2804 19.5067 71.2645 19.4713 71.238 19.4445C71.2114 19.4178 71.1761 19.4016 71.1386 19.3989Z" fill="#05662C"/>
<path d="M62.3296 8.90674H60.6258C60.588 8.9092 60.5525 8.92529 60.5258 8.95203C60.499 8.97876 60.4829 9.01431 60.4805 9.05203V10.7914C60.4831 10.829 60.4993 10.8645 60.526 10.8911C60.5527 10.9178 60.5881 10.934 60.6258 10.9367H61.278C61.4366 10.9416 61.5945 10.914 61.7421 10.8556C61.8896 10.7972 62.0237 10.7093 62.136 10.5972C62.2483 10.4851 62.3365 10.3512 62.3951 10.2038C62.4537 10.0563 62.4816 9.89844 62.477 9.73983V9.05203C62.4744 9.01397 62.458 8.97815 62.4309 8.95137C62.4037 8.92458 62.3677 8.9087 62.3296 8.90674Z" fill="#05662C"/>
<path d="M80.9245 12.1501H79.2207C79.183 12.1527 79.1476 12.1689 79.1209 12.1956C79.0942 12.2223 79.0781 12.2577 79.0754 12.2954V13.372C78.5695 12.6403 77.4876 11.9692 76.1758 11.9692C73.6932 11.9692 71.8086 14.0891 71.8086 16.6814C71.8086 19.2737 73.6901 21.3924 76.1758 21.3924C77.4876 21.3924 78.5695 20.7203 79.0754 19.9897V21.0663C79.0781 21.104 79.0942 21.1394 79.1209 21.1661C79.1476 21.1928 79.183 21.2089 79.2207 21.2116H80.9245C80.9621 21.2089 80.9976 21.1928 81.0243 21.1661C81.0509 21.1394 81.0671 21.104 81.0698 21.0663V12.2954C81.0671 12.2577 81.0509 12.2223 81.0243 12.1956C80.9976 12.1689 80.9621 12.1527 80.9245 12.1501ZM76.5343 19.5799C74.9403 19.5799 73.8343 18.312 73.8343 16.6814C73.8343 15.0507 74.9403 13.7818 76.5343 13.7818C78.1284 13.7818 79.2343 15.0497 79.2343 16.6814C79.2343 18.313 78.1336 19.5799 76.5385 19.5799H76.5343Z" fill="#05662C"/>
<path d="M54.9518 12.1501H53.248C53.2104 12.1527 53.175 12.1689 53.1483 12.1956C53.1216 12.2223 53.1054 12.2577 53.1027 12.2954V13.372C52.5958 12.6403 51.5139 11.9692 50.2031 11.9692C47.7206 11.9692 45.8359 14.0891 45.8359 16.6814C45.8359 19.2737 47.7174 21.3924 50.2031 21.3924C51.5139 21.3924 52.5958 20.7203 53.1027 19.9897V21.0663C53.1054 21.104 53.1216 21.1394 53.1483 21.1661C53.175 21.1928 53.2104 21.2089 53.248 21.2116H54.9518C54.9894 21.2089 55.0247 21.1927 55.0512 21.166C55.0777 21.1393 55.0937 21.1039 55.0961 21.0663V12.2954C55.0937 12.2578 55.0777 12.2224 55.0512 12.1957C55.0247 12.169 54.9894 12.1528 54.9518 12.1501ZM50.5617 19.5799C48.9666 19.5799 47.8617 18.312 47.8617 16.6814C47.8617 15.0507 48.9666 13.7818 50.5617 13.7818C52.1568 13.7818 53.2616 15.0497 53.2616 16.6814C53.2616 18.313 52.1641 19.5799 50.569 19.5799H50.5617Z" fill="#05662C"/>
<path d="M62.3285 12.1499H60.6258C60.5455 12.1499 60.4805 12.215 60.4805 12.2952V21.0662C60.4805 21.1464 60.5455 21.2114 60.6258 21.2114H62.3285C62.4088 21.2114 62.4738 21.1464 62.4738 21.0662V12.2952C62.4738 12.215 62.4088 12.1499 62.3285 12.1499Z" fill="#05662C"/>
<path d="M58.6508 8.90674H56.948C56.8678 8.90674 56.8027 8.97179 56.8027 9.05203V21.0665C56.8027 21.1467 56.8678 21.2118 56.948 21.2118H58.6508C58.731 21.2118 58.7961 21.1467 58.7961 21.0665V9.05203C58.7961 8.97179 58.731 8.90674 58.6508 8.90674Z" fill="#05662C"/>
</svg>
