<svg width="44" height="32" viewBox="0 0 44 32" fill="none" xmlns="http://www.w3.org/2000/svg">
<path d="M13.256 13.3789H9.79869V0.679688H35.5169L31.2193 10.9551H34.2975L34.2231 23.6022L8.56445 23.5353L13.256 13.3789Z" fill="#404040"/>
<path d="M18.7063 9.34915V10.9551H12.5723V9.825L16.2527 4.70218H12.7284V3.09619H18.5501V4.22633L14.8846 9.34915H18.7063Z" fill="white"/>
<path d="M29.0188 3.09626V10.9552H27.3236V9.82506C26.7288 10.6578 25.7994 11.1634 24.5726 11.1634C22.4313 11.1634 20.6543 9.35665 20.6543 7.02945C20.6543 4.68738 22.4313 2.89551 24.5726 2.89551C25.7994 2.89551 26.7288 3.4011 27.3236 4.21896V3.10369L29.0188 3.09626ZM27.3162 7.02945C27.3162 5.56472 26.2455 4.51637 24.8328 4.51637C23.4202 4.51637 22.3495 5.57216 22.3495 7.02945C22.3495 8.48674 23.4202 9.54253 24.8328 9.54253C26.2455 9.54253 27.3162 8.48674 27.3162 7.02945Z" fill="white"/>
<path d="M28.6095 13.3789H26.4979H24.8027V19.0965V21.2453H26.4979V19.0965H28.6095C30.1858 19.0965 31.4721 17.8177 31.4721 16.2414C31.4646 14.6578 30.1858 13.3789 28.6095 13.3789ZM28.6095 17.3939H26.4979V15.0741H28.6095C29.249 15.0741 29.7694 15.5946 29.7694 16.234C29.7694 16.8734 29.249 17.3939 28.6095 17.3939Z" fill="white"/>
<path d="M20.8091 18.7987C21.7533 18.3303 22.4002 17.3638 22.4002 16.2336C22.4002 14.6574 21.1213 13.3711 19.5451 13.3711H15.7383V21.23H17.4335V19.0813H18.928L20.4819 21.23H22.5786L20.8091 18.7987ZM17.4335 15.0737H19.5451C20.1845 15.0737 20.705 15.5942 20.705 16.2336C20.705 16.873 20.1845 17.3935 19.5451 17.3935H17.4335V15.0737Z" fill="white"/>
<path d="M34.1996 27.3497H33.4486C33.4189 27.3497 33.3966 27.372 33.3966 27.4018V27.8702C33.1735 27.5579 32.7125 27.2754 32.1549 27.2754C31.0917 27.2754 30.2812 28.1825 30.2812 29.2977C30.2812 30.4056 31.0917 31.3201 32.1549 31.3201C32.7125 31.3201 33.181 31.0301 33.3966 30.7253V31.1937C33.3966 31.2235 33.4189 31.2458 33.4486 31.2458H34.1996C34.2293 31.2458 34.2516 31.2235 34.2516 31.1937V27.4167C34.2516 27.372 34.2293 27.3497 34.1996 27.3497ZM32.311 30.5394C31.627 30.5394 31.1586 29.9967 31.1586 29.2977C31.1586 28.5988 31.6344 28.0561 32.311 28.0561C32.9876 28.0561 33.4709 28.5988 33.4709 29.2977C33.4635 29.9892 32.9876 30.5394 32.311 30.5394Z" fill="#404040"/>
<path d="M30.1044 30.4579H28.0598L30.0821 28.0489C30.0896 28.0415 30.097 28.0266 30.097 28.0192V27.4095C30.097 27.3797 30.0747 27.3574 30.0449 27.3574H27.0411C27.0114 27.3574 26.9891 27.3797 26.9891 27.4095V28.0786C26.9891 28.1084 27.0114 28.1307 27.0411 28.1307H28.9966L26.9742 30.5471C26.9668 30.5545 26.9668 30.5694 26.9668 30.5843V31.1865C26.9668 31.2163 26.9891 31.2386 27.0188 31.2386H30.1044C30.1342 31.2386 30.1565 31.2163 30.1565 31.1865V30.5174C30.1639 30.4876 30.1416 30.4579 30.1044 30.4579Z" fill="#404040"/>
<path d="M26.3987 27.3496H25.6477C25.618 27.3496 25.5957 27.3719 25.5957 27.4017V31.2233C25.5957 31.2159 25.618 31.2382 25.6477 31.2382H26.3987C26.4284 31.2382 26.4507 31.2159 26.4507 31.1861V27.4091C26.4507 27.3719 26.4284 27.3496 26.3987 27.3496Z" fill="#404040"/>
<path d="M26.4151 25.9595H25.6419C25.6122 25.9595 25.5898 25.9818 25.5898 26.0115V26.8219C25.5898 26.8517 25.6122 26.874 25.6419 26.874H25.917C26.2441 26.874 26.4746 26.6732 26.4746 26.3461V26.0115C26.4672 25.9818 26.4449 25.9595 26.4151 25.9595Z" fill="#404040"/>
<path d="M24.9065 25.9595H24.1556C24.1258 25.9595 24.1035 25.9818 24.1035 26.0115V31.1864C24.1035 31.2161 24.1258 31.2384 24.1556 31.2384H24.9065C24.9363 31.2384 24.9586 31.2161 24.9586 31.1864V26.0115C24.9586 25.9818 24.9363 25.9595 24.9065 25.9595Z" fill="#404040"/>
<path d="M23.4339 27.3497H22.683C22.6533 27.3497 22.631 27.372 22.631 27.4018V27.8702C22.4079 27.5579 21.9469 27.2754 21.3893 27.2754C20.3261 27.2754 19.5156 28.1825 19.5156 29.2977C19.5156 30.4056 20.3261 31.3201 21.3893 31.3201C21.9469 31.3201 22.4153 31.0301 22.631 30.7253V31.1937C22.631 31.2235 22.6533 31.2458 22.683 31.2458H23.4339C23.4637 31.2458 23.486 31.2235 23.486 31.1937V27.4167C23.486 27.372 23.4637 27.3497 23.4339 27.3497ZM21.5454 30.5394C20.8614 30.5394 20.3855 29.9967 20.3855 29.2977C20.3855 28.5988 20.8614 28.0561 21.5454 28.0561C22.2295 28.0561 22.6979 28.5988 22.6979 29.2977C22.6979 29.9892 22.2295 30.5394 21.5454 30.5394Z" fill="#404040"/>
<path d="M18.683 29.8629C18.6533 29.8481 18.6235 29.8555 18.6086 29.8852C18.4153 30.257 18.0436 30.5172 17.5677 30.5172C16.8763 30.5172 16.3781 29.9819 16.3855 29.283C16.393 28.5692 16.9878 27.9967 17.7016 28.0711C18.1179 28.1157 18.4302 28.361 18.6086 28.6956C18.6235 28.7254 18.6607 28.7328 18.683 28.7179L19.3299 28.3685C19.3596 28.3536 19.367 28.3239 19.3522 28.2941C19.0101 27.6696 18.3559 27.2681 17.5677 27.2681C16.4004 27.2681 15.5156 28.138 15.5156 29.2904C15.5156 30.4429 16.4004 31.3128 17.5677 31.3128C18.3559 31.3128 19.0101 30.9113 19.3522 30.2867C19.367 30.257 19.3596 30.2273 19.3299 30.2124L18.683 29.8629Z" fill="#404040"/>
<path d="M13.2325 27.2754C12.0801 27.2754 11.1953 28.1676 11.1953 29.2977C11.1953 30.4279 12.0801 31.3201 13.2325 31.3201C14.385 31.3201 15.2698 30.4279 15.2698 29.2977C15.2698 28.1676 14.3776 27.2754 13.2325 27.2754ZM13.2325 30.5245C12.5411 30.5245 12.0578 29.9892 12.0578 29.2977C12.0578 28.6063 12.5411 28.0709 13.2325 28.0709C13.9166 28.0709 14.3999 28.6063 14.3999 29.2977C14.3924 29.9818 13.9166 30.5245 13.2325 30.5245Z" fill="#404040"/>
<path d="M11.107 30.3687H9.39694V27.4095C9.39694 27.3797 9.37464 27.3574 9.3449 27.3574H8.5419C8.51216 27.3574 8.48242 27.3797 8.48242 27.4095V30.4727C8.48242 30.8966 8.82444 31.2386 9.25568 31.2386H11.107C11.1368 31.2386 11.1591 31.2163 11.1591 31.1865V30.4207C11.1591 30.391 11.1368 30.3687 11.107 30.3687Z" fill="#404040"/>
</svg>
