<svg width="96" height="32" viewBox="0 0 96 32" fill="none" xmlns="http://www.w3.org/2000/svg">
<path d="M17.5451 8.32616L13.9446 9.80395C13.8502 9.8407 13.7693 9.90553 13.7128 9.9897C13.6564 10.0739 13.6271 10.1733 13.629 10.2747V14.3076L16.4778 13.1636C16.9223 12.994 17.3035 12.6914 17.5698 12.2972C17.836 11.903 17.9743 11.4363 17.9657 10.9606V8.6126C17.9698 8.56108 17.9602 8.50939 17.9379 8.46278C17.9156 8.41616 17.8813 8.37629 17.8386 8.34719C17.7959 8.3181 17.7463 8.30083 17.6947 8.29714C17.6432 8.29344 17.5916 8.30345 17.5451 8.32616Z" fill="#7DDF20"/>
<path d="M9.25602 16.4274V18.5994C9.25602 21.5595 11.4006 23.7033 14.3644 23.7033H17.5745C17.627 23.705 17.6793 23.696 17.7281 23.6767C17.7769 23.6575 17.8213 23.6284 17.8584 23.5913C17.8955 23.5541 17.9246 23.5098 17.9439 23.4609C17.9632 23.4121 17.9722 23.3598 17.9704 23.3074V19.7415C17.9722 19.689 17.9632 19.6367 17.9439 19.5878C17.9247 19.5389 17.8956 19.4945 17.8585 19.4573C17.8214 19.4201 17.777 19.3909 17.7282 19.3715C17.6793 19.3522 17.627 19.343 17.5745 19.3447H14.2914C14.2037 19.3479 14.1163 19.333 14.0346 19.3008C13.9529 19.2687 13.8788 19.2201 13.8167 19.1581C13.7546 19.096 13.706 19.0218 13.6739 18.9401C13.6418 18.8585 13.6269 18.771 13.6301 18.6833V14.3047L9.57347 15.9558C9.47815 15.9917 9.39638 16.0565 9.3395 16.141C9.28262 16.2255 9.25344 16.3256 9.25602 16.4274Z" fill="#05662C"/>
<path d="M35.5374 11.8794C32.7943 11.8794 30.6816 14.0112 30.6816 16.6986C30.6816 19.386 32.7943 21.517 35.5374 21.517C38.2804 21.517 40.3931 19.386 40.3931 16.6986C40.3931 14.0112 38.2804 11.8794 35.5374 11.8794ZM35.5374 19.6268C33.8881 19.6268 32.7387 18.3497 32.7387 16.6986C32.7387 15.0475 33.8881 13.7704 35.5374 13.7704C37.1684 13.7704 38.3169 15.0475 38.3169 16.6986C38.3169 18.3497 37.1684 19.6268 35.5374 19.6268Z" fill="#05662C"/>
<path d="M50.1221 18.8852L48.6024 18.0697C48.5845 18.0592 48.5646 18.0528 48.544 18.0509C48.5235 18.0491 48.5027 18.0517 48.4833 18.0588C48.4639 18.0659 48.4462 18.0771 48.4316 18.0918C48.4171 18.1064 48.4059 18.1241 48.399 18.1436C48.1664 18.595 47.8129 18.9728 47.3779 19.2347C46.943 19.4967 46.4437 19.6324 45.936 19.6268C44.2858 19.6268 43.1181 18.3497 43.1181 16.6986C43.1181 15.0475 44.2858 13.7704 45.936 13.7704C46.4437 13.7641 46.9432 13.8995 47.3783 14.1613C47.8133 14.4232 48.1668 14.8011 48.399 15.2528C48.4058 15.2723 48.4169 15.2901 48.4314 15.3049C48.446 15.3197 48.4636 15.331 48.4831 15.3381C48.5026 15.3451 48.5234 15.3478 48.544 15.3458C48.5647 15.3438 48.5846 15.3373 48.6024 15.3267L50.1221 14.5111C50.1406 14.503 50.157 14.4908 50.1702 14.4755C50.1834 14.4602 50.193 14.4421 50.1983 14.4227C50.2037 14.4032 50.2046 14.3828 50.201 14.3629C50.1975 14.343 50.1895 14.3241 50.1778 14.3077C49.3623 12.8245 47.806 11.8794 45.9341 11.8794C43.1537 11.8794 41.041 13.9556 41.041 16.6986C41.041 19.4417 43.1537 21.517 45.9341 21.517C47.806 21.517 49.3814 20.5719 50.1969 19.0704C50.211 19.0359 50.2111 18.9972 50.1971 18.9626C50.1832 18.928 50.1563 18.9003 50.1221 18.8852Z" fill="#05662C"/>
<path d="M30.4405 19.478H25.697V12.2131C25.6943 12.1746 25.6777 12.1384 25.6504 12.1111C25.6231 12.0838 25.5868 12.0672 25.5483 12.0645H23.806C23.7676 12.0672 23.7314 12.0838 23.7043 12.1111C23.6771 12.1385 23.6607 12.1747 23.6582 12.2131V19.6267C23.6582 20.6831 24.3068 21.3317 25.3631 21.3317H30.4405C30.479 21.3291 30.5153 21.3125 30.5425 21.2852C30.5697 21.2578 30.586 21.2215 30.5883 21.183V19.6267C30.586 19.5882 30.5697 19.5519 30.5425 19.5245C30.5153 19.4971 30.479 19.4806 30.4405 19.478Z" fill="#05662C"/>
<path d="M76.5881 19.4782H71.7251L76.5142 13.7887C76.5627 13.7318 76.5889 13.6592 76.5881 13.5844V12.2161C76.5856 12.1775 76.5691 12.1411 76.5417 12.1138C76.5144 12.0864 76.478 12.0699 76.4394 12.0674H69.3242C69.2856 12.0699 69.2492 12.0864 69.2219 12.1138C69.1945 12.1411 69.178 12.1775 69.1755 12.2161V13.7732C69.1781 13.8117 69.1946 13.848 69.2219 13.8752C69.2493 13.9024 69.2856 13.9187 69.3242 13.921H73.9518L69.1755 19.6297C69.1274 19.6865 69.1012 19.7586 69.1016 19.8331V21.1832C69.1039 21.2217 69.1202 21.258 69.1474 21.2854C69.1746 21.3127 69.2108 21.3293 69.2493 21.3319H76.589C76.6275 21.3293 76.6638 21.3127 76.691 21.2854C76.7182 21.258 76.7345 21.2217 76.7368 21.1832V19.6269C76.7344 19.5883 76.718 19.5518 76.6906 19.5244C76.6632 19.497 76.6268 19.4806 76.5881 19.4782Z" fill="#05662C"/>
<path d="M67.5815 8.74756H65.8392C65.8008 8.75012 65.7647 8.76652 65.7375 8.79369C65.7104 8.82087 65.694 8.85699 65.6914 8.89534V10.6751C65.694 10.7134 65.7104 10.7495 65.7375 10.7767C65.7647 10.8039 65.8008 10.8203 65.8392 10.8229H66.506C66.6681 10.828 66.8295 10.8 66.9802 10.7403C67.131 10.6807 67.2679 10.5908 67.3826 10.4761C67.4972 10.3615 67.5871 10.2245 67.6468 10.0738C67.7064 9.92301 67.7345 9.76162 67.7293 9.59957V8.89534C67.7267 8.85699 67.7103 8.82087 67.6832 8.79369C67.656 8.76652 67.6199 8.75012 67.5815 8.74756Z" fill="#05662C"/>
<path d="M86.5971 12.0646H84.8547C84.8163 12.0674 84.7802 12.0839 84.753 12.1113C84.7259 12.1386 84.7095 12.1748 84.707 12.2133V13.3143C84.1888 12.5672 83.0823 11.8794 81.7413 11.8794C79.2026 11.8794 77.2715 14.0477 77.2715 16.6986C77.2715 19.3495 79.199 21.517 81.7413 21.517C83.0823 21.517 84.1888 20.8301 84.707 20.083V21.1831C84.7093 21.2216 84.7256 21.2579 84.7528 21.2853C84.78 21.3127 84.8162 21.3292 84.8547 21.3318H86.5971C86.6357 21.3292 86.672 21.3127 86.6994 21.2854C86.7267 21.258 86.7432 21.2217 86.7458 21.1831V12.2133C86.743 12.1747 86.7265 12.1385 86.6992 12.1112C86.6718 12.0839 86.6356 12.0673 86.5971 12.0646ZM82.1117 19.6633C80.4816 19.6633 79.3504 18.3662 79.3504 16.6986C79.3504 15.0311 80.4816 13.733 82.1117 13.733C83.7418 13.733 84.8739 15.0302 84.8739 16.6986C84.8739 18.3671 83.7428 19.6633 82.1117 19.6633Z" fill="#05662C"/>
<path d="M60.0424 12.0646H58.3001C58.2616 12.0674 58.2255 12.0839 58.1983 12.1113C58.1712 12.1386 58.1548 12.1748 58.1523 12.2133V13.3143C57.6332 12.5672 56.5267 11.8794 55.1867 11.8794C52.647 11.8794 50.7168 14.0477 50.7168 16.6986C50.7168 19.3495 52.6443 21.517 55.1867 21.517C56.5267 21.517 57.6332 20.8301 58.1523 20.083V21.1831C58.1546 21.2216 58.1709 21.2579 58.1981 21.2853C58.2253 21.3127 58.2616 21.3292 58.3001 21.3318H60.0424C60.0809 21.3292 60.1171 21.3127 60.1443 21.2853C60.1715 21.2579 60.1878 21.2216 60.1902 21.1831V12.2133C60.1876 12.1748 60.1713 12.1386 60.1441 12.1113C60.1169 12.0839 60.0808 12.0674 60.0424 12.0646ZM55.557 19.6633C53.926 19.6633 52.7957 18.3662 52.7957 16.6986C52.7957 15.0311 53.926 13.733 55.557 13.733C57.1881 13.733 58.3183 15.0302 58.3183 16.6986C58.3183 18.3671 57.1844 19.6633 55.5534 19.6633H55.557Z" fill="#05662C"/>
<path d="M67.5815 12.0645H65.8401C65.758 12.0645 65.6914 12.131 65.6914 12.2131V21.1821C65.6914 21.2642 65.758 21.3307 65.8401 21.3307H67.5815C67.6636 21.3307 67.7302 21.2642 67.7302 21.1821V12.2131C67.7302 12.131 67.6636 12.0645 67.5815 12.0645Z" fill="#05662C"/>
<path d="M63.8178 8.74756H62.0764C61.9943 8.74756 61.9277 8.81413 61.9277 8.89625V21.1829C61.9277 21.265 61.9943 21.3316 62.0764 21.3316H63.8178C63.9 21.3316 63.9665 21.265 63.9665 21.1829V8.89625C63.9665 8.81413 63.9 8.74756 63.8178 8.74756Z" fill="#05662C"/>
</svg>
