<svg width="96" height="32" viewBox="0 0 96 32" fill="none" xmlns="http://www.w3.org/2000/svg">
<path d="M58.8372 18.7564C57.971 18.7535 57.1234 19.008 56.4019 19.4875C55.6805 19.967 55.1177 20.6499 54.7849 21.4497C54.4521 22.2495 54.3643 23.1301 54.5326 23.9798C54.7009 24.8296 55.1177 25.6102 55.7303 26.2227C56.3428 26.8353 57.1234 27.2521 57.9732 27.4204C58.8229 27.5887 59.7035 27.5009 60.5033 27.1681C61.3031 26.8353 61.986 26.2725 62.4655 25.5511C62.945 24.8296 63.1995 23.982 63.1966 23.1158C63.1917 21.9611 62.7308 20.8551 61.9143 20.0387C61.0979 19.2222 59.9919 18.7613 58.8372 18.7564ZM58.8372 25.9132C58.2863 25.9157 57.7471 25.7547 57.2876 25.4508C56.8282 25.1468 56.4692 24.7134 56.256 24.2055C56.0428 23.6975 55.985 23.1377 56.0899 22.5969C56.1948 22.0561 56.4578 21.5585 56.8454 21.1671C57.2331 20.7757 57.7281 20.508 58.2679 20.3979C58.8077 20.2877 59.368 20.3401 59.878 20.5484C60.388 20.7567 60.8248 21.1115 61.1332 21.568C61.4416 22.0245 61.6077 22.5622 61.6105 23.1131C61.6144 23.4798 61.5455 23.8436 61.4079 24.1834C61.2703 24.5233 61.0667 24.8325 60.8087 25.0932C60.5508 25.3539 60.2438 25.5608 59.9054 25.702C59.567 25.8432 59.2039 25.9159 58.8372 25.9159V25.9132Z" fill="#05662C"/>
<path d="M48.9304 18.7563C48.3508 18.748 47.7754 18.855 47.2375 19.0711C46.6997 19.2871 46.2101 19.6079 45.7974 20.0149C45.3846 20.4218 45.0568 20.9067 44.8331 21.4414C44.6094 21.9761 44.4941 22.5499 44.4941 23.1296C44.4941 23.7092 44.6094 24.2831 44.8331 24.8178C45.0568 25.3525 45.3846 25.8374 45.7974 26.2443C46.2101 26.6512 46.6997 26.972 47.2375 27.1881C47.7754 27.4041 48.3508 27.5111 48.9304 27.5028C49.5088 27.5045 50.0817 27.3899 50.615 27.1659C51.1482 26.9418 51.631 26.6128 52.0347 26.1985L50.9021 25.0865C50.5602 25.4313 50.1342 25.6809 49.6664 25.8108C49.1985 25.9406 48.7048 25.9462 48.2341 25.827C47.7634 25.7077 47.3319 25.4678 46.9823 25.1309C46.6326 24.7939 46.3769 24.3716 46.2403 23.9056H53.2898V23.1121C53.2877 21.9569 52.8276 20.8497 52.0104 20.0332C51.1932 19.2167 50.0856 18.7575 48.9304 18.7563ZM46.2466 22.3222C46.421 21.75 46.7746 21.2489 47.2553 20.8929C47.736 20.5368 48.3183 20.3447 48.9165 20.3447C49.5147 20.3447 50.0971 20.5368 50.5778 20.8929C51.0585 21.2489 51.4121 21.75 51.5865 22.3222H46.2466Z" fill="#05662C"/>
<path d="M68.4974 18.7564C67.6311 18.7535 66.7835 19.008 66.0621 19.4875C65.3407 19.967 64.7778 20.6499 64.445 21.4497C64.1122 22.2495 64.0244 23.1301 64.1927 23.9798C64.361 24.8296 64.7779 25.6102 65.3904 26.2227C66.0029 26.8353 66.7836 27.2521 67.6333 27.4204C68.4831 27.5887 69.3637 27.5009 70.1634 27.1681C70.9632 26.8353 71.6461 26.2725 72.1256 25.5511C72.6051 24.8296 72.8596 23.982 72.8568 23.1158C72.8518 21.9611 72.391 20.8551 71.5745 20.0387C70.758 19.2222 69.652 18.7613 68.4974 18.7564ZM68.4974 25.9132C67.9465 25.9157 67.4072 25.7547 66.9478 25.4508C66.4883 25.1468 66.1293 24.7134 65.9161 24.2055C65.7029 23.6975 65.6452 23.1377 65.7501 22.5969C65.855 22.0561 66.1179 21.5585 66.5056 21.1671C66.8932 20.7757 67.3882 20.508 67.928 20.3979C68.4678 20.2877 69.0281 20.3401 69.5381 20.5484C70.0481 20.7567 70.4849 21.1115 70.7933 21.568C71.1017 22.0245 71.2678 22.5622 71.2706 23.1131C71.2746 23.4798 71.2057 23.8436 71.0681 24.1834C70.9305 24.5233 70.7268 24.8325 70.4689 25.0932C70.211 25.3539 69.9039 25.5608 69.5655 25.702C69.2271 25.8432 68.8641 25.9159 68.4974 25.9159V25.9132Z" fill="#05662C"/>
<path d="M40.4671 18.7564C39.6896 18.7564 38.9438 19.0649 38.3935 19.6142C37.8432 20.1635 37.5334 20.9086 37.5319 21.6862V23.1319C37.5319 23.2965 37.4665 23.4544 37.3501 23.5709C37.2337 23.6873 37.0757 23.7527 36.9111 23.7527C36.7464 23.7527 36.5885 23.6873 36.4721 23.5709C36.3556 23.4544 36.2902 23.2965 36.2902 23.1319V21.6898C36.2898 20.9183 35.9854 20.1781 35.4431 19.6296C34.9007 19.081 34.164 18.7682 33.3926 18.759H33.3613C31.6356 18.759 30.4306 20.0732 30.4297 21.8007V27.4367H32.0167V21.8007C32.0167 20.5885 32.9569 20.3479 33.3586 20.3487H33.3729C33.7265 20.3523 34.0644 20.4952 34.3131 20.7465C34.5619 20.9978 34.7014 21.3371 34.7014 21.6907V23.1363C34.7019 23.7172 34.9313 24.2745 35.3399 24.6873C35.7485 25.1001 36.3034 25.3352 36.8843 25.3415H36.9084C37.1984 25.3418 37.4856 25.2849 37.7535 25.174C38.0215 25.0632 38.265 24.9007 38.4701 24.6958C38.6753 24.4908 38.838 24.2474 38.949 23.9795C39.06 23.7117 39.1172 23.4245 39.1172 23.1345V21.6862C39.1172 21.3303 39.2586 20.989 39.5102 20.7373C39.7619 20.4857 40.1032 20.3443 40.4591 20.3443C40.8608 20.3443 41.801 20.5849 41.801 21.7971V27.4331H43.388V21.7971C43.397 20.0723 42.1928 18.7528 40.4671 18.7564Z" fill="#05662C"/>
<path d="M22.9241 4.69678L17.5735 6.89124C17.4335 6.94628 17.3136 7.04278 17.23 7.16781C17.1464 7.29284 17.103 7.44043 17.1056 7.59082V13.5847L21.3415 11.8849C22.0019 11.6325 22.5684 11.1827 22.9641 10.5969C23.3598 10.011 23.5654 9.31752 23.553 8.61067V5.12172C23.5592 5.04474 23.5449 4.96749 23.5114 4.89788C23.478 4.82826 23.4266 4.76879 23.3626 4.72556C23.2987 4.68232 23.2243 4.65687 23.1473 4.65181C23.0702 4.64676 22.9932 4.66228 22.9241 4.69678Z" fill="#7DDF20"/>
<path d="M10.6056 16.7335V19.9603C10.6056 24.3582 13.7922 27.5448 18.19 27.5448H22.9592C23.0373 27.5475 23.1152 27.5341 23.188 27.5055C23.2607 27.4768 23.3268 27.4335 23.3821 27.3782C23.4375 27.3229 23.4808 27.2568 23.5094 27.184C23.5381 27.1113 23.5515 27.0334 23.5487 26.9552V21.6627C23.5515 21.5846 23.5381 21.5067 23.5094 21.4339C23.4808 21.3611 23.4375 21.2951 23.3821 21.2398C23.3268 21.1844 23.2607 21.1411 23.188 21.1125C23.1152 21.0838 23.0373 21.0704 22.9592 21.0732H18.088C17.9575 21.078 17.8274 21.0558 17.7059 21.008C17.5844 20.9602 17.474 20.8879 17.3816 20.7956C17.2893 20.7032 17.217 20.5928 17.1692 20.4713C17.1214 20.3497 17.0992 20.2196 17.104 20.0891V13.5845L11.0753 16.0384C10.935 16.0919 10.8146 16.1873 10.7306 16.3117C10.6466 16.4361 10.6029 16.5834 10.6056 16.7335Z" fill="#05662C"/>
<path d="M40.7045 7.18896C38.3106 7.18896 36.4668 9.04884 36.4668 11.3936C36.4668 13.7384 38.3106 15.5982 40.7045 15.5982C43.0985 15.5982 44.9423 13.7384 44.9423 11.3936C44.9423 9.04884 43.0985 7.18896 40.7045 7.18896ZM40.7045 13.9495C39.2651 13.9495 38.2623 12.8339 38.2623 11.3945C38.2623 9.95508 39.2651 8.84309 40.7045 8.84309C42.1278 8.84309 43.1307 9.95866 43.1307 11.399C43.1307 12.8393 42.1278 13.9495 40.7045 13.9495Z" fill="#05662C"/>
<path d="M53.4338 13.3027L52.1071 12.587C52.0915 12.5776 52.0739 12.5718 52.0558 12.5701C52.0376 12.5684 52.0193 12.5707 52.0021 12.577C51.985 12.5833 51.9694 12.5933 51.9566 12.6063C51.9439 12.6193 51.9341 12.635 51.9282 12.6523C51.7257 13.046 51.4176 13.3756 51.0384 13.604C50.6592 13.8325 50.2239 13.9509 49.7812 13.9459C48.3418 13.9459 47.3228 12.8303 47.3228 11.3909C47.3228 9.9515 48.3391 8.84309 49.7785 8.84309C50.2212 8.83809 50.6565 8.95647 51.0357 9.18494C51.4149 9.41342 51.7231 9.74297 51.9255 10.1367C51.9315 10.1539 51.9412 10.1697 51.954 10.1827C51.9667 10.1957 51.9823 10.2057 51.9994 10.212C52.0166 10.2183 52.0349 10.2206 52.0531 10.2189C52.0712 10.2171 52.0888 10.2114 52.1045 10.202L53.4312 9.4863C53.4474 9.47915 53.4619 9.46844 53.4735 9.45496C53.4851 9.44147 53.4935 9.42557 53.4981 9.4084C53.5028 9.39124 53.5035 9.37326 53.5003 9.35578C53.497 9.33829 53.4899 9.32176 53.4795 9.30738C52.7682 8.01379 51.4093 7.18896 49.7758 7.18896C47.3496 7.18896 45.5059 9.00054 45.5059 11.3936C45.5059 13.7867 47.3496 15.5982 49.7758 15.5982C51.4093 15.5982 52.7844 14.7734 53.4956 13.4637C53.5313 13.4163 53.4973 13.3367 53.4338 13.3027Z" fill="#05662C"/>
<path d="M36.2555 13.8208H32.1144V7.47982C32.1121 7.44617 32.0977 7.41449 32.0739 7.39065C32.05 7.3668 32.0183 7.3524 31.9847 7.3501H30.4657C30.4321 7.35258 30.4005 7.36704 30.3767 7.39085C30.3529 7.41466 30.3384 7.44624 30.3359 7.47982V13.9496C30.3359 14.8719 30.9022 15.4382 31.8246 15.4382H36.2564C36.2899 15.4357 36.3214 15.4212 36.345 15.3974C36.3687 15.3735 36.383 15.342 36.3852 15.3085V13.9496C36.3829 13.916 36.3685 13.8845 36.3446 13.8608C36.3208 13.8371 36.2891 13.8229 36.2555 13.8208Z" fill="#05662C"/>
<path d="M76.5309 13.8208H72.2868L76.4664 8.85482C76.5085 8.80471 76.5313 8.74129 76.5309 8.6759V7.47982C76.5286 7.44617 76.5141 7.41449 76.4903 7.39065C76.4664 7.3668 76.4348 7.3524 76.4011 7.3501H70.1863C70.1528 7.3526 70.1214 7.3671 70.0977 7.39093C70.0741 7.41475 70.0598 7.44631 70.0575 7.47982V8.84319C70.0598 8.8766 70.0741 8.90805 70.0978 8.93173C70.1215 8.9554 70.1529 8.96972 70.1863 8.97201H74.2255L70.0575 13.9541C70.0152 14.004 69.992 14.0675 69.9922 14.133V15.3139C69.9947 15.3474 70.0091 15.379 70.0329 15.4028C70.0568 15.4266 70.0883 15.4411 70.1219 15.4436H76.5273C76.5608 15.4411 76.5924 15.4266 76.6162 15.4028C76.64 15.379 76.6545 15.3474 76.657 15.3139V13.9496C76.6546 13.9167 76.6406 13.8857 76.6175 13.8621C76.5944 13.8385 76.5637 13.8238 76.5309 13.8208Z" fill="#05662C"/>
<path d="M68.6692 4.45947H67.1484C67.1148 4.46179 67.0832 4.47623 67.0595 4.50009C67.0358 4.52396 67.0216 4.55562 67.0195 4.58919V6.14133C67.0216 6.17489 67.0358 6.20656 67.0595 6.23042C67.0832 6.25429 67.1148 6.26872 67.1484 6.27104H67.7307C67.872 6.27525 68.0127 6.25053 68.1441 6.19838C68.2755 6.14624 68.3948 6.06777 68.4948 5.96782C68.5947 5.86786 68.6732 5.74852 68.7253 5.61713C68.7775 5.48574 68.8022 5.34508 68.798 5.20378V4.58472C68.7949 4.55195 68.7802 4.52136 68.7566 4.49841C68.733 4.47546 68.702 4.46166 68.6692 4.45947Z" fill="#05662C"/>
<path d="M85.2653 7.34991H83.7445C83.7109 7.35221 83.6792 7.36662 83.6553 7.39046C83.6315 7.41431 83.6171 7.44598 83.6148 7.47963V8.44043C83.1675 7.78827 82.1968 7.18799 81.0267 7.18799C78.8108 7.18799 77.1289 9.08007 77.1289 11.3926C77.1289 13.7052 78.8108 15.5973 81.0267 15.5973C82.1968 15.5973 83.163 14.9979 83.6148 14.3448V15.3056C83.6171 15.3393 83.6315 15.3709 83.6553 15.3948C83.6792 15.4186 83.7109 15.433 83.7445 15.4353H85.2653C85.299 15.433 85.3306 15.4186 85.3545 15.3948C85.3783 15.3709 85.3927 15.3393 85.395 15.3056V7.47963C85.3927 7.44598 85.3783 7.41431 85.3545 7.39046C85.3306 7.36662 85.299 7.35221 85.2653 7.34991ZM81.3514 13.9816C79.9281 13.9816 78.9414 12.8499 78.9414 11.3944C78.9414 9.93889 79.9254 8.80633 81.3514 8.80633C82.7774 8.80633 83.7615 9.938 83.7615 11.3944C83.7615 12.8508 82.7748 13.9816 81.3514 13.9816Z" fill="#05662C"/>
<path d="M62.0876 7.34991H60.5668C60.5331 7.35221 60.5014 7.36662 60.4776 7.39046C60.4537 7.41431 60.4393 7.44598 60.437 7.47963V8.44043C59.9844 7.78827 59.0191 7.18799 57.849 7.18799C55.633 7.18799 53.9512 9.08007 53.9512 11.3926C53.9512 13.7052 55.633 15.5973 57.849 15.5973C59.0191 15.5973 59.9844 14.9979 60.437 14.3448V15.3056C60.4393 15.3393 60.4537 15.3709 60.4776 15.3948C60.5014 15.4186 60.5331 15.433 60.5668 15.4353H62.0876C62.1212 15.4329 62.1527 15.4184 62.1766 15.3946C62.2004 15.3708 62.2148 15.3392 62.2173 15.3056V7.47963C62.2148 7.44605 62.2004 7.41448 62.1766 7.39067C62.1527 7.36686 62.1212 7.35239 62.0876 7.34991ZM58.1737 13.9816C56.7504 13.9816 55.7636 12.8499 55.7636 11.3944C55.7636 9.93889 56.7477 8.80633 58.1737 8.80633C59.5997 8.80633 60.5838 9.938 60.5838 11.3944C60.5838 12.8508 59.597 13.9816 58.1737 13.9816Z" fill="#05662C"/>
<path d="M68.6692 7.3501H67.1493C67.0776 7.3501 67.0195 7.40818 67.0195 7.47982V15.3076C67.0195 15.3792 67.0776 15.4373 67.1493 15.4373H68.6692C68.7408 15.4373 68.7989 15.3792 68.7989 15.3076V7.47982C68.7989 7.40818 68.7408 7.3501 68.6692 7.3501Z" fill="#05662C"/>
<path d="M65.386 4.45508H63.866C63.7944 4.45508 63.7363 4.51315 63.7363 4.58479V15.3084C63.7363 15.38 63.7944 15.4381 63.866 15.4381H65.386C65.4576 15.4381 65.5157 15.38 65.5157 15.3084V4.58479C65.5157 4.51315 65.4576 4.45508 65.386 4.45508Z" fill="#05662C"/>
</svg>
