<svg width="110" height="32" viewBox="0 0 110 32" fill="none" xmlns="http://www.w3.org/2000/svg">
<path d="M15.8038 1.70082L8.97851 4.49992C8.6063 4.65425 8.38086 4.98863 8.38086 5.39261V13.0364L13.7794 10.8698C15.536 10.1632 16.5996 8.58964 16.5996 6.69382V2.23945C16.6012 1.79311 16.2138 1.53287 15.8038 1.70082Z" fill="#CBDB2A"/>
<path d="M0.0917969 17.0547V21.1717C0.0917969 26.782 4.15579 30.846 9.76611 30.846H15.85C16.2858 30.846 16.602 30.5298 16.602 30.094V23.3429C16.602 22.9071 16.2858 22.5909 15.85 22.5909H9.63599C8.90822 22.5909 8.38169 22.0644 8.38169 21.3366V13.0361L0.692469 16.1666C0.317237 16.3179 0.0917969 16.6508 0.0917969 17.0547Z" fill="#00586F"/>
<path d="M42.5725 5.27197C38.9654 5.27197 36.1875 8.07411 36.1875 11.6085C36.1875 15.143 38.9654 17.9451 42.5725 17.9451C46.1796 17.9451 48.9575 15.143 48.9575 11.6085C48.9575 8.07411 46.1796 5.27197 42.5725 5.27197ZM42.5725 15.4592C40.4043 15.4592 38.8928 13.7782 38.8928 11.6085C38.8928 9.44037 40.4043 7.75788 42.5725 7.75788C44.7165 7.75788 46.228 9.43886 46.228 11.6085C46.228 13.7767 44.718 15.4592 42.5725 15.4592Z" fill="#00586F"/>
<path d="M61.7533 14.4848L59.7546 13.4121C59.6593 13.3606 59.5352 13.3879 59.4868 13.5089C58.8771 14.6543 57.7317 15.4592 56.2459 15.4592C54.0762 15.4592 52.542 13.7782 52.542 11.6085C52.542 9.44037 54.0777 7.75788 56.2459 7.75788C57.7332 7.75788 58.8786 8.56281 59.4868 9.70818C59.5352 9.83073 59.6593 9.85645 59.7546 9.80501L61.7533 8.73227C61.8487 8.68083 61.9001 8.5613 61.826 8.46447C60.7532 6.51417 58.7061 5.27197 56.2459 5.27197C52.5904 5.27197 49.8125 8.00148 49.8125 11.6085C49.8125 15.2156 52.5904 17.9451 56.2459 17.9451C58.7076 17.9451 60.7789 16.7029 61.8517 14.7284C61.9001 14.6543 61.8487 14.5347 61.7533 14.4848Z" fill="#00586F"/>
<path d="M35.8724 15.2641H29.6342V5.71081C29.6342 5.61397 29.5374 5.51562 29.439 5.51562H27.1483C27.0515 5.51562 26.9531 5.61246 26.9531 5.71081V15.4593C26.9531 16.8482 27.8065 17.7016 29.1954 17.7016H35.8724C35.9693 17.7016 36.0676 17.6047 36.0676 17.5064V15.4593C36.0676 15.3609 35.9693 15.2641 35.8724 15.2641Z" fill="#00586F"/>
<path d="M96.5543 15.2641H90.1602L96.4574 7.78215C96.5225 7.70347 96.5543 7.61117 96.5543 7.51434V5.71081C96.5543 5.61397 96.4574 5.51562 96.3591 5.51562H87.001C86.9042 5.51562 86.8058 5.61246 86.8058 5.71081V7.75794C86.8058 7.85477 86.9027 7.95312 87.001 7.95312H93.0864L86.8058 15.4593C86.7408 15.5394 86.709 15.6302 86.709 15.7271V17.5064C86.709 17.6032 86.8058 17.7016 86.9042 17.7016H96.5543C96.6511 17.7016 96.7494 17.6047 96.7494 17.5064V15.4593C96.7494 15.3609 96.6511 15.2641 96.5543 15.2641Z" fill="#00586F"/>
<path d="M84.7105 1.15332H82.4198C82.323 1.15332 82.2246 1.25016 82.2246 1.3485V3.68765C82.2246 3.78448 82.3214 3.88283 82.4198 3.88283H83.2973C84.2233 3.88283 84.9057 3.20045 84.9057 2.27448V1.3485C84.9057 1.25167 84.8074 1.15332 84.7105 1.15332Z" fill="#00586F"/>
<path d="M109.714 5.51557H107.423C107.326 5.51557 107.228 5.61241 107.228 5.71075V7.15872C106.547 6.17676 105.091 5.27197 103.329 5.27197C99.9894 5.27197 97.4551 8.12403 97.4551 11.6085C97.4551 15.0931 99.9894 17.9451 103.329 17.9451C105.091 17.9451 106.547 17.0418 107.228 16.0584V17.5063C107.228 17.6032 107.325 17.7015 107.423 17.7015H109.714C109.81 17.7015 109.909 17.6047 109.909 17.5063V5.71075C109.907 5.61392 109.81 5.51557 109.714 5.51557ZM103.816 15.5076C101.672 15.5076 100.185 13.8024 100.185 11.6085C100.185 9.41465 101.672 7.70946 103.816 7.70946C105.96 7.70946 107.447 9.41465 107.447 11.6085C107.447 13.8024 105.96 15.5076 103.816 15.5076Z" fill="#00586F"/>
<path d="M74.7918 5.51557H72.501C72.4042 5.51557 72.3059 5.61241 72.3059 5.71075V7.15872C71.625 6.17676 70.1695 5.27197 68.4068 5.27197C65.0675 5.27197 62.5332 8.12403 62.5332 11.6085C62.5332 15.0931 65.0675 17.9451 68.4068 17.9451C70.1695 17.9451 71.625 17.0418 72.3059 16.0584V17.5063C72.3059 17.6032 72.4027 17.7015 72.501 17.7015H74.7918C74.8886 17.7015 74.987 17.6047 74.987 17.5063V5.71075C74.9854 5.61392 74.8886 5.51557 74.7918 5.51557ZM68.894 15.5076C66.75 15.5076 65.2627 13.8024 65.2627 11.6085C65.2627 9.41465 66.75 7.70946 68.894 7.70946C71.0379 7.70946 72.5253 9.41465 72.5253 11.6085C72.5253 13.8024 71.0379 15.5076 68.894 15.5076Z" fill="#00586F"/>
<path d="M84.7105 5.51562H82.4198C82.323 5.51562 82.2246 5.61246 82.2246 5.71081V17.5064C82.2246 17.6032 82.3214 17.7016 82.4198 17.7016H84.7105C84.8074 17.7016 84.9057 17.6047 84.9057 17.5064V5.71081C84.9057 5.61397 84.8074 5.51562 84.7105 5.51562Z" fill="#00586F"/>
<path d="M79.7613 1.15332H77.4706C77.3737 1.15332 77.2754 1.25016 77.2754 1.3485V17.5061C77.2754 17.603 77.3722 17.7013 77.4706 17.7013H79.7613C79.8581 17.7013 79.9565 17.6045 79.9565 17.5061V1.3485C79.9565 1.25167 79.8596 1.15332 79.7613 1.15332Z" fill="#00586F"/>
<path d="M30.2361 30.8465C29.6445 30.8465 29.1014 30.7481 28.6036 30.5514C28.1073 30.3547 27.6791 30.0809 27.3205 29.7329C26.9619 29.3849 26.682 28.9748 26.4808 28.5028C26.2796 28.0307 26.1797 27.5208 26.1797 26.9716C26.1797 26.4299 26.278 25.9231 26.4747 25.451C26.6714 24.9789 26.9453 24.5689 27.2933 24.2209C27.6413 23.8729 28.0574 23.5975 28.54 23.3963C29.0227 23.1951 29.5447 23.0952 30.109 23.0952C30.7279 23.0952 31.2801 23.1936 31.7628 23.3903C32.2454 23.587 32.6615 23.8653 33.014 24.2254L32.1698 25.1015C31.9232 24.8549 31.6327 24.6582 31.2983 24.5099C30.9639 24.3616 30.5675 24.2875 30.1105 24.2875C29.7156 24.2875 29.3555 24.3586 29.0272 24.4993C28.7004 24.64 28.4159 24.8322 28.1769 25.0743C27.9378 25.3179 27.7532 25.6008 27.6231 25.9246C27.493 26.2484 27.4279 26.5964 27.4279 26.9701C27.4279 27.3499 27.493 27.7039 27.6231 28.0322C27.7532 28.359 27.9393 28.6435 28.1829 28.8826C28.4265 29.1216 28.7201 29.3107 29.065 29.4469C29.41 29.5846 29.7973 29.6527 30.227 29.6527C30.5644 29.6527 30.8958 29.6164 31.2196 29.5422C31.5434 29.4681 31.8112 29.344 32.023 29.167V27.4981H30.1423V26.3361H33.2259V29.7692C33.0564 29.9523 32.8597 30.1111 32.6343 30.2443C32.4088 30.3774 32.1683 30.4909 31.911 30.5817C31.6538 30.674 31.383 30.7406 31.097 30.7829C30.8126 30.8253 30.5251 30.8465 30.2361 30.8465Z" fill="#00586F"/>
<path d="M36.9755 30.8254C36.5745 30.8254 36.2038 30.7588 35.8664 30.6241C35.529 30.491 35.2385 30.3018 34.9949 30.0598C34.7513 29.8162 34.5622 29.5257 34.4245 29.1883C34.2868 28.8508 34.2188 28.4802 34.2188 28.0792C34.2188 27.6919 34.2868 27.3318 34.4245 26.9959C34.5622 26.6615 34.7513 26.371 34.9949 26.1244C35.2385 25.8777 35.529 25.6841 35.8664 25.5434C36.2038 25.4027 36.5745 25.3315 36.9755 25.3315C37.3205 25.3315 37.6473 25.3875 37.9575 25.501C38.2676 25.6145 38.5385 25.7809 38.7715 26.0033C39.0045 26.2257 39.1875 26.4996 39.3207 26.8279C39.4538 27.1547 39.5219 27.53 39.5219 27.9536C39.5219 28.0096 39.5219 28.0671 39.5219 28.1231C39.5219 28.1791 39.5189 28.2502 39.5113 28.3349H35.3596C35.3732 28.5528 35.4246 28.751 35.5124 28.9265C35.6001 29.102 35.7167 29.2533 35.8604 29.3804C36.0041 29.5075 36.1736 29.6043 36.3673 29.6709C36.5609 29.7375 36.7667 29.7708 36.9846 29.7708C37.3583 29.7708 37.6669 29.6951 37.9136 29.5438C38.1602 29.3925 38.3539 29.2004 38.4946 28.9689L39.3812 29.6028C39.1421 29.9826 38.8199 30.2822 38.4144 30.5001C38.0119 30.7164 37.5323 30.8254 36.9755 30.8254ZM38.3493 27.4876C38.2858 27.1078 38.1178 26.8173 37.847 26.6161C37.5762 26.4149 37.272 26.315 36.9331 26.315C36.7637 26.315 36.5972 26.3392 36.4308 26.3891C36.2659 26.4391 36.1146 26.5132 35.9769 26.6116C35.8392 26.7099 35.7212 26.831 35.6228 26.9762C35.5245 27.1199 35.4534 27.2909 35.411 27.4891H38.3493V27.4876Z" fill="#00586F"/>
<path d="M42.3923 30.8253C41.9202 30.8253 41.4966 30.733 41.1199 30.5514C40.7431 30.3683 40.4602 30.0869 40.2695 29.7056L41.1244 29.0928C41.2303 29.3259 41.4013 29.5044 41.6373 29.6315C41.8733 29.7586 42.1245 29.8221 42.3923 29.8221C42.5966 29.8221 42.7736 29.7752 42.9264 29.6799C43.0777 29.5846 43.1534 29.4454 43.1534 29.2623C43.1534 29.108 43.0974 28.9809 42.9839 28.8825C42.8704 28.7842 42.6571 28.6858 42.3394 28.5875L41.8749 28.4604C41.4104 28.3333 41.0624 28.1321 40.8294 27.8537C40.5963 27.5753 40.4844 27.2394 40.4919 26.8445C40.4919 26.6115 40.5419 26.4027 40.6402 26.2166C40.7386 26.0305 40.8732 25.8716 41.0412 25.7415C41.2106 25.6114 41.4088 25.5115 41.6373 25.4404C41.8658 25.3708 42.1139 25.3345 42.3817 25.3345C42.7827 25.3345 43.1352 25.4101 43.4378 25.5614C43.7404 25.7127 43.984 25.9367 44.1671 26.2317L43.3637 26.8445C43.2442 26.6826 43.1019 26.5525 42.9355 26.4541C42.7706 26.3558 42.5784 26.3058 42.3605 26.3058C42.185 26.3058 42.0231 26.3482 41.8749 26.4329C41.7266 26.5177 41.6524 26.6402 41.6524 26.8021C41.6524 26.9292 41.6933 27.0457 41.7735 27.1501C41.8537 27.256 42.0246 27.3468 42.2864 27.4255L42.825 27.5844C43.2895 27.7251 43.6527 27.9187 43.9129 28.1654C44.1732 28.412 44.3033 28.7539 44.3033 29.1897C44.3033 29.4439 44.2533 29.6708 44.155 29.8705C44.0566 30.0718 43.922 30.2443 43.754 30.388C43.5846 30.5317 43.3849 30.6422 43.1519 30.7148C42.9204 30.7874 42.6677 30.8253 42.3923 30.8253Z" fill="#00586F"/>
<path d="M47.7273 30.7723C47.4731 30.7723 47.2371 30.7375 47.0192 30.6663C46.8013 30.5952 46.6092 30.4893 46.4442 30.3441C46.2793 30.2003 46.1507 30.0173 46.0584 29.7948C45.9661 29.5724 45.9207 29.3137 45.9207 29.0187V26.4737H44.8223V25.4388H45.9207V23.9712H47.0827V25.4388H48.5927V26.4737H47.0827V28.8295C47.0827 29.1609 47.1554 29.3924 47.2991 29.527C47.4428 29.6617 47.6668 29.7283 47.9694 29.7283C48.0813 29.7283 48.1933 29.7192 48.3022 29.7025C48.4112 29.6844 48.508 29.6587 48.5927 29.6239V30.6588C48.4732 30.6936 48.3446 30.7223 48.2069 30.7435C48.0692 30.7617 47.9088 30.7723 47.7273 30.7723Z" fill="#00586F"/>
<path d="M51.7828 30.825C51.4242 30.825 51.0868 30.7524 50.7736 30.6086C50.4604 30.4649 50.1911 30.2667 49.9656 30.017C49.7402 29.7674 49.5631 29.4769 49.4315 29.1455C49.3014 28.8142 49.2363 28.4586 49.2363 28.0789C49.2363 27.6991 49.3014 27.3435 49.4315 27.0122C49.5616 26.6808 49.7402 26.3903 49.9656 26.1407C50.1911 25.891 50.4604 25.6928 50.7736 25.5491C51.0868 25.4053 51.4227 25.3327 51.7828 25.3327C52.1625 25.3327 52.503 25.4159 52.8025 25.5808C53.1021 25.7458 53.326 25.9349 53.4728 26.1452V25.4371H54.6348V30.7176H53.4728V30.0095C53.3245 30.2213 53.1006 30.4089 52.8025 30.5738C52.503 30.7418 52.164 30.825 51.7828 30.825ZM50.3469 24.3296C50.4029 23.9922 50.5406 23.7274 50.7584 23.5383C50.9763 23.3476 51.2305 23.2523 51.5195 23.2523C51.6678 23.2523 51.807 23.2765 51.9371 23.3264C52.0672 23.3764 52.1913 23.4308 52.3063 23.4898C52.4228 23.5504 52.5287 23.6048 52.6225 23.6532C52.7178 23.7032 52.8071 23.7274 52.8918 23.7274C53.0189 23.7274 53.1172 23.6865 53.1868 23.6063C53.2564 23.5261 53.3139 23.4036 53.3563 23.2417H54.1174L54.075 23.4747C54.019 23.8121 53.8813 24.0784 53.6635 24.2721C53.4456 24.4657 53.1914 24.5626 52.9024 24.5626C52.7541 24.5626 52.6149 24.5384 52.4848 24.4884C52.3547 24.4385 52.2306 24.384 52.1156 24.325C52.0006 24.266 51.8932 24.21 51.7994 24.1616C51.7041 24.1117 51.6148 24.0875 51.5301 24.0875C51.403 24.0875 51.3046 24.1268 51.235 24.204C51.1639 24.2811 51.1079 24.4007 51.0656 24.5626H50.3045L50.3469 24.3296ZM51.9946 29.7689C52.2276 29.7689 52.4394 29.725 52.6331 29.6373C52.8268 29.5495 52.9917 29.43 53.1294 29.2787C53.267 29.1274 53.3745 28.9488 53.4516 28.7446C53.5288 28.5403 53.5681 28.3179 53.5681 28.0789C53.5681 27.8398 53.5288 27.6174 53.4516 27.4131C53.3745 27.2089 53.267 27.0318 53.1294 26.8805C52.9917 26.7292 52.8268 26.6097 52.6331 26.5219C52.4394 26.4342 52.2261 26.3903 51.9946 26.3903C51.7631 26.3903 51.5498 26.4342 51.3561 26.5219C51.1624 26.6097 50.9975 26.7292 50.8598 26.8805C50.7221 27.0318 50.6147 27.2104 50.5375 27.4131C50.4604 27.6174 50.421 27.8398 50.421 28.0789C50.421 28.3179 50.4604 28.5403 50.5375 28.7446C50.6147 28.9488 50.7221 29.1274 50.8598 29.2787C50.9975 29.43 51.1624 29.5495 51.3561 29.6373C51.5482 29.725 51.7616 29.7689 51.9946 29.7689Z" fill="#00586F"/>
<path d="M58.5974 30.8253C58.2025 30.8253 57.8379 30.7542 57.5035 30.6135C57.1691 30.4728 56.8771 30.2776 56.6274 30.0279C56.3778 29.7783 56.1826 29.4863 56.0419 29.1519C55.9012 28.8175 55.8301 28.4604 55.8301 28.0792C55.8301 27.6994 55.8997 27.3408 56.0419 27.0064C56.1826 26.672 56.3778 26.38 56.6274 26.1304C56.8771 25.8807 57.1691 25.6855 57.5035 25.5448C57.8379 25.4041 58.2025 25.333 58.5974 25.333C58.9847 25.333 59.3479 25.4041 59.6853 25.5448C60.0227 25.6855 60.3177 25.8807 60.5674 26.1304C60.817 26.38 61.0122 26.672 61.1529 27.0064C61.2936 27.3408 61.3647 27.6979 61.3647 28.0792C61.3647 28.4589 61.2936 28.8175 61.1529 29.1519C61.0122 29.4863 60.817 29.7783 60.5674 30.0279C60.3177 30.2776 60.0227 30.4728 59.6853 30.6135C59.3464 30.7542 58.9847 30.8253 58.5974 30.8253ZM58.5974 29.748C58.8304 29.748 59.0422 29.7057 59.2359 29.6209C59.4296 29.5362 59.596 29.4182 59.7382 29.2669C59.8789 29.1156 59.9879 28.937 60.065 28.7343C60.1422 28.53 60.1816 28.3122 60.1816 28.0792C60.1816 27.8462 60.1422 27.6283 60.065 27.424C59.9879 27.2198 59.8789 27.0427 59.7382 26.8899C59.5975 26.7386 59.4296 26.6206 59.2359 26.5359C59.0422 26.4511 58.8289 26.4088 58.5974 26.4088C58.3644 26.4088 58.1496 26.4511 57.9529 26.5359C57.7562 26.6206 57.5867 26.7386 57.446 26.8899C57.3053 27.0412 57.1963 27.2198 57.1192 27.424C57.042 27.6283 57.0027 27.8462 57.0027 28.0792C57.0027 28.3122 57.042 28.53 57.1192 28.7343C57.1963 28.9386 57.3053 29.1156 57.446 29.2669C57.5867 29.4182 57.7562 29.5362 57.9529 29.6209C58.1496 29.7057 58.3644 29.748 58.5974 29.748Z" fill="#00586F"/>
<path d="M67.1832 30.825C66.8246 30.825 66.4872 30.7524 66.174 30.6087C65.8608 30.4649 65.5914 30.2667 65.366 30.0171C65.1406 29.7674 64.9635 29.4769 64.8319 29.1455C64.7018 28.8142 64.6367 28.4586 64.6367 28.0789C64.6367 27.6991 64.7018 27.3435 64.8319 27.0122C64.962 26.6808 65.1406 26.3903 65.366 26.1407C65.5914 25.891 65.8608 25.6928 66.174 25.5491C66.4872 25.4053 66.823 25.3327 67.1832 25.3327C67.5629 25.3327 67.9034 25.4159 68.2029 25.5808C68.5025 25.7458 68.7264 25.9349 68.8732 26.1452V22.7969H70.0352V30.7191H68.8732V30.011C68.7249 30.2228 68.501 30.4104 68.2029 30.5754C67.9034 30.7418 67.5629 30.825 67.1832 30.825ZM67.395 29.7689C67.628 29.7689 67.8398 29.725 68.0335 29.6373C68.2271 29.5495 68.3921 29.43 68.5298 29.2787C68.6674 29.1274 68.7749 28.9489 68.852 28.7446C68.9292 28.5403 68.9685 28.3179 68.9685 28.0789C68.9685 27.8398 68.9292 27.6174 68.852 27.4131C68.7749 27.2089 68.6674 27.0318 68.5298 26.8805C68.3921 26.7292 68.2271 26.6097 68.0335 26.522C67.8398 26.4342 67.6265 26.3903 67.395 26.3903C67.1635 26.3903 66.9501 26.4342 66.7565 26.522C66.5628 26.6097 66.3979 26.7292 66.2602 26.8805C66.1225 27.0318 66.0151 27.2104 65.9379 27.4131C65.8608 27.6174 65.8214 27.8398 65.8214 28.0789C65.8214 28.3179 65.8608 28.5403 65.9379 28.7446C66.0151 28.9489 66.1225 29.1274 66.2602 29.2787C66.3979 29.43 66.5628 29.5495 66.7565 29.6373C66.9486 29.725 67.162 29.7689 67.395 29.7689Z" fill="#00586F"/>
<path d="M73.995 30.8254C73.5941 30.8254 73.2234 30.7588 72.886 30.6241C72.5486 30.491 72.2581 30.3018 72.0145 30.0598C71.7709 29.8162 71.5817 29.5257 71.4441 29.1883C71.3064 28.8508 71.2383 28.4802 71.2383 28.0792C71.2383 27.6919 71.3064 27.3318 71.4441 26.9959C71.5817 26.6615 71.7709 26.371 72.0145 26.1244C72.2581 25.8777 72.5486 25.6841 72.886 25.5434C73.2234 25.4027 73.5941 25.3315 73.995 25.3315C74.34 25.3315 74.6668 25.3875 74.977 25.501C75.2872 25.6145 75.558 25.7809 75.791 26.0033C76.024 26.2257 76.2056 26.4996 76.3402 26.8279C76.4734 27.1547 76.5415 27.53 76.5415 27.9536C76.5415 28.0096 76.5415 28.0671 76.5415 28.1231C76.5415 28.1791 76.5384 28.2502 76.5309 28.3349H72.3791C72.3927 28.5528 72.4442 28.751 72.5319 28.9265C72.6197 29.102 72.7362 29.2533 72.8799 29.3804C73.0237 29.5075 73.1931 29.6043 73.3868 29.6709C73.5805 29.7375 73.7862 29.7708 74.0041 29.7708C74.3778 29.7708 74.6865 29.6951 74.9331 29.5438C75.1797 29.3925 75.3734 29.2004 75.5141 28.9689L76.4023 29.6028C76.1632 29.9826 75.8409 30.2822 75.4354 30.5001C75.0314 30.7164 74.5503 30.8254 73.995 30.8254ZM75.3673 27.4876C75.3038 27.1078 75.1374 26.8173 74.865 26.6161C74.5942 26.4149 74.2901 26.315 73.9511 26.315C73.7817 26.315 73.6152 26.3392 73.4488 26.3891C73.2839 26.4391 73.1326 26.5132 72.9949 26.6116C72.8572 26.7099 72.7392 26.831 72.6409 26.9762C72.5425 27.1199 72.4714 27.2909 72.429 27.4891H75.3673V27.4876Z" fill="#00586F"/>
<path d="M80.3535 23.2207H84.8109V24.4039H81.5897V26.336H84.124V27.5086H81.5897V30.7193H80.3535V23.2207Z" fill="#00586F"/>
<path d="M85.498 25.4392H86.6601V26.3788C86.71 26.2305 86.7811 26.0958 86.8764 25.9718C86.9717 25.8492 87.0807 25.7433 87.2032 25.6555C87.3258 25.5678 87.462 25.5012 87.6102 25.4543C87.7585 25.4089 87.9053 25.3862 88.0536 25.3862C88.2155 25.3862 88.3668 25.3998 88.5075 25.4286V26.6224C88.4091 26.5876 88.3138 26.5634 88.223 26.5482C88.1307 26.5346 88.0324 26.5271 87.928 26.5271C87.7585 26.5271 87.5981 26.5619 87.4468 26.633C87.2955 26.7041 87.1624 26.8054 87.0459 26.9386C86.9294 27.0717 86.8356 27.2412 86.766 27.4455C86.6949 27.6497 86.6601 27.8827 86.6601 28.143V30.7197H85.498V25.4392Z" fill="#00586F"/>
<path d="M91.7068 30.8253C91.3119 30.8253 90.9472 30.7542 90.6129 30.6135C90.2785 30.4728 89.9865 30.2776 89.7368 30.0279C89.4872 29.7783 89.292 29.4863 89.1513 29.1519C89.0106 28.8175 88.9395 28.4604 88.9395 28.0792C88.9395 27.6994 89.0106 27.3408 89.1513 27.0064C89.292 26.672 89.4872 26.38 89.7368 26.1304C89.9865 25.8807 90.2785 25.6855 90.6129 25.5448C90.9472 25.4041 91.3119 25.333 91.7068 25.333C92.0941 25.333 92.4573 25.4041 92.7947 25.5448C93.1321 25.6855 93.4271 25.8807 93.6767 26.1304C93.9264 26.38 94.1216 26.672 94.2623 27.0064C94.403 27.3408 94.4741 27.6979 94.4741 28.0792C94.4741 28.4589 94.403 28.8175 94.2623 29.1519C94.1216 29.4863 93.9264 29.7783 93.6767 30.0279C93.4271 30.2776 93.1336 30.4728 92.7947 30.6135C92.4573 30.7542 92.0941 30.8253 91.7068 30.8253ZM91.7068 29.748C91.9398 29.748 92.1516 29.7057 92.3453 29.6209C92.539 29.5362 92.7054 29.4182 92.8476 29.2669C92.9883 29.1156 93.0973 28.937 93.1744 28.7343C93.2516 28.53 93.2909 28.3122 93.2909 28.0792C93.2909 27.8462 93.2516 27.6283 93.1744 27.424C93.0973 27.2198 92.9883 27.0427 92.8476 26.8899C92.7069 26.7386 92.539 26.6206 92.3453 26.5359C92.1516 26.4511 91.9383 26.4088 91.7068 26.4088C91.4753 26.4088 91.2589 26.4511 91.0622 26.5359C90.8655 26.6206 90.6961 26.7386 90.5554 26.8899C90.4147 27.0412 90.3057 27.2198 90.2286 27.424C90.1514 27.6283 90.1121 27.8462 90.1121 28.0792C90.1121 28.3122 90.1514 28.53 90.2286 28.7343C90.3057 28.9386 90.4147 29.1156 90.5554 29.2669C90.6961 29.4182 90.8655 29.5362 91.0622 29.6209C91.2604 29.7057 91.4753 29.748 91.7068 29.748Z" fill="#00586F"/>
<path d="M97.8347 30.7723C97.5805 30.7723 97.3445 30.7375 97.1266 30.6663C96.9087 30.5952 96.7166 30.4893 96.5517 30.3441C96.3867 30.2003 96.2581 30.0173 96.1658 29.7948C96.0735 29.5724 96.0281 29.3137 96.0281 29.0187V26.4737H94.9297V25.4388H96.0281V23.9712H97.1902V25.4388H98.7002V26.4737H97.1902V28.8295C97.1902 29.1609 97.2628 29.3924 97.4065 29.527C97.5503 29.6617 97.7742 29.7283 98.0768 29.7283C98.1888 29.7283 98.3007 29.7192 98.4097 29.7025C98.5186 29.6844 98.6154 29.6587 98.7002 29.6239V30.6588C98.5806 30.6936 98.452 30.7223 98.3143 30.7435C98.1782 30.7617 98.0178 30.7723 97.8347 30.7723Z" fill="#00586F"/>
<path d="M101.89 30.8253C101.532 30.8253 101.194 30.7527 100.881 30.6089C100.568 30.4652 100.298 30.267 100.073 30.0173C99.8476 29.7677 99.6706 29.4772 99.5389 29.1458C99.4088 28.8145 99.3438 28.4589 99.3438 28.0792C99.3438 27.6994 99.4088 27.3438 99.5389 27.0125C99.6691 26.6811 99.8476 26.3906 100.073 26.141C100.298 25.8913 100.568 25.6931 100.881 25.5494C101.194 25.4056 101.53 25.333 101.89 25.333C102.27 25.333 102.61 25.4162 102.91 25.5811C103.21 25.7461 103.433 25.9352 103.58 26.1455V25.4374H104.742V30.7179H103.58V30.0098C103.432 30.2216 103.21 30.4092 102.91 30.5741C102.61 30.7421 102.27 30.8253 101.89 30.8253ZM102.102 29.7692C102.335 29.7692 102.547 29.7253 102.741 29.6376C102.934 29.5498 103.099 29.4303 103.237 29.279C103.374 29.1277 103.482 28.9491 103.559 28.7449C103.636 28.5406 103.676 28.3182 103.676 28.0792C103.676 27.8401 103.636 27.6177 103.559 27.4134C103.482 27.2092 103.374 27.0321 103.237 26.8808C103.099 26.7295 102.934 26.61 102.741 26.5222C102.547 26.4345 102.334 26.3906 102.102 26.3906C101.869 26.3906 101.657 26.4345 101.464 26.5222C101.27 26.61 101.105 26.7295 100.967 26.8808C100.83 27.0321 100.722 27.2107 100.645 27.4134C100.568 27.6177 100.528 27.8401 100.528 28.0792C100.528 28.3182 100.568 28.5406 100.645 28.7449C100.722 28.9491 100.83 29.1277 100.967 29.279C101.105 29.4303 101.27 29.5498 101.464 29.6376C101.656 29.7253 101.869 29.7692 102.102 29.7692Z" fill="#00586F"/>
<path d="M107.996 30.8253C107.524 30.8253 107.1 30.733 106.723 30.5514C106.347 30.3683 106.064 30.0869 105.873 29.7056L106.729 29.0928C106.835 29.3259 107.006 29.5044 107.242 29.6315C107.478 29.7586 107.73 29.8221 107.997 29.8221C108.202 29.8221 108.379 29.7752 108.531 29.6799C108.683 29.5846 108.758 29.4454 108.758 29.2623C108.758 29.108 108.702 28.9809 108.589 28.8825C108.477 28.7842 108.262 28.6858 107.944 28.5875L107.48 28.4604C107.015 28.3333 106.667 28.1321 106.434 27.8537C106.201 27.5753 106.089 27.2394 106.097 26.8445C106.097 26.6115 106.145 26.4027 106.245 26.2166C106.344 26.0305 106.478 25.8716 106.646 25.7415C106.816 25.6114 107.014 25.5115 107.242 25.4404C107.471 25.3708 107.719 25.3345 107.987 25.3345C108.388 25.3345 108.74 25.4101 109.043 25.5614C109.345 25.7127 109.589 25.9367 109.772 26.2317L108.97 26.8445C108.851 26.6826 108.708 26.5525 108.542 26.4541C108.377 26.3558 108.185 26.3058 107.967 26.3058C107.792 26.3058 107.63 26.3482 107.481 26.4329C107.333 26.5177 107.259 26.6402 107.259 26.8021C107.259 26.9292 107.3 27.0457 107.38 27.1501C107.462 27.256 107.631 27.3468 107.893 27.4255L108.432 27.5844C108.896 27.7251 109.259 27.9187 109.519 28.1654C109.78 28.412 109.91 28.7539 109.91 29.1897C109.91 29.4439 109.86 29.6708 109.762 29.8705C109.663 30.0703 109.529 30.2443 109.361 30.388C109.191 30.5317 108.991 30.6422 108.758 30.7148C108.524 30.7874 108.27 30.8253 107.996 30.8253Z" fill="#00586F"/>
</svg>
