<svg width="292" height="40" viewBox="0 0 292 40" fill="none" xmlns="http://www.w3.org/2000/svg">
<path d="M275.937 9.91016C267.428 9.91016 260.875 16.5216 260.875 24.8561C260.875 33.1905 267.428 39.802 275.937 39.802C284.447 39.802 291 33.1905 291 24.8561C291 16.5189 284.447 9.91016 275.937 9.91016ZM275.937 33.9396C270.821 33.9396 267.256 29.9721 267.256 24.8561C267.256 19.74 270.821 15.7726 275.937 15.7726C280.995 15.7726 284.56 19.74 284.56 24.8561C284.56 29.9721 280.995 33.9396 275.937 33.9396Z" fill="black"/>
<path d="M82.0927 31.6451L77.4011 29.1148C77.1542 28.9817 76.8851 29.0677 76.7519 29.3229C75.3092 32.0252 72.5958 33.9396 69.1 33.9396C63.984 33.9396 60.3633 29.9721 60.3633 24.8561C60.3633 19.74 63.984 15.7726 69.1 15.7726C72.5958 15.7726 75.3092 17.6869 76.7519 20.3892C76.8851 20.6417 77.1542 20.7277 77.4011 20.5973L82.0872 18.067C82.323 17.9394 82.409 17.6758 82.2758 17.44C79.7455 12.84 74.9125 9.91016 69.1 9.91016C60.4771 9.91016 53.9238 16.3496 53.9238 24.8561C53.9238 33.3653 60.4771 39.802 69.1 39.802C74.9291 39.802 79.7705 36.8527 82.298 32.2361C82.4201 32.0197 82.3286 31.77 82.0927 31.6451Z" fill="black"/>
<path d="M21.0414 33.4789H6.32572V10.9449C6.32572 10.7147 6.09544 10.4844 5.86516 10.4844H0.460558C0.23028 10.4844 0 10.7147 0 10.9449V33.9395C0 37.2161 2.01147 39.2276 5.28808 39.2276H21.0386C21.2689 39.2276 21.4991 38.9973 21.4991 38.767V33.9395C21.5019 33.7092 21.2716 33.4789 21.0414 33.4789Z" fill="black"/>
<path d="M112.848 10.4845H107.443C107.213 10.4845 106.983 10.7147 106.983 10.945V14.3604C105.376 12.0437 101.944 9.91016 97.7852 9.91016C89.9086 9.91016 83.9297 16.6354 83.9297 24.8561C83.9297 33.0767 89.9086 39.802 97.7852 39.802C101.944 39.802 105.376 37.6712 106.983 35.3518V38.7671C106.983 38.9974 107.213 39.2277 107.443 39.2277H112.848C113.078 39.2277 113.308 38.9974 113.308 38.7671V10.945C113.308 10.7147 113.078 10.4845 112.848 10.4845ZM98.9366 34.0533C93.8788 34.0533 90.3719 30.0304 90.3719 24.8561C90.3719 19.6817 93.8788 15.6588 98.9366 15.6588C103.994 15.6588 107.501 19.6817 107.501 24.8561C107.501 30.0304 103.994 34.0533 98.9366 34.0533Z" fill="black"/>
<path d="M36.8496 9.91016C28.3403 9.91016 21.7871 16.5216 21.7871 24.8561C21.7871 33.1905 28.3403 39.802 36.8496 39.802C45.3588 39.802 51.912 33.1905 51.912 24.8561C51.912 16.5189 45.3588 9.91016 36.8496 9.91016ZM36.8496 33.9396C31.7335 33.9396 28.1683 29.9721 28.1683 24.8561C28.1683 19.74 31.7335 15.7726 36.8496 15.7726C41.9074 15.7726 45.4725 19.74 45.4725 24.8561C45.4725 29.9721 41.9074 33.9396 36.8496 33.9396Z" fill="black"/>
<path d="M164.183 33.4789H149.126L163.964 15.8085C164.113 15.6365 164.183 15.4284 164.183 15.1982V10.9449C164.183 10.7147 163.952 10.4844 163.722 10.4844H141.646C141.416 10.4844 141.185 10.7147 141.185 10.9449V15.7725C141.185 16.0027 141.416 16.233 141.646 16.233H156.001L141.174 33.9617C141.024 34.1393 140.955 34.3418 140.955 34.5665V38.7698C140.955 39.0001 141.185 39.2304 141.416 39.2304H164.18C164.41 39.2304 164.64 39.0001 164.64 38.7698V33.9423C164.643 33.7092 164.413 33.4789 164.183 33.4789Z" fill="black"/>
<path d="M195.227 10.4845H189.822C189.592 10.4845 189.361 10.7147 189.361 10.945V14.3604C187.755 12.0437 184.323 9.91016 180.164 9.91016C172.287 9.91016 166.309 16.6354 166.309 24.8561C166.309 33.0767 172.287 39.802 180.164 39.802C184.323 39.802 187.755 37.6712 189.361 35.3518V38.7671C189.361 38.9974 189.592 39.2277 189.822 39.2277H195.227C195.457 39.2277 195.687 38.9974 195.687 38.7671V10.945C195.687 10.7147 195.457 10.4845 195.227 10.4845ZM181.316 34.0533C176.258 34.0533 172.751 30.0304 172.751 24.8561C172.751 19.6817 176.258 15.6588 181.316 15.6588C186.373 15.6588 189.88 19.6817 189.88 24.8561C189.88 30.0304 186.373 34.0533 181.316 34.0533Z" fill="black"/>
<path d="M259.031 31.6507L254.35 29.1093C254.103 28.9761 253.834 29.0621 253.701 29.3174C252.253 32.0197 249.539 33.9396 246.043 33.9396C240.927 33.9396 237.307 29.9721 237.307 24.8561C237.307 19.74 240.927 15.7726 246.043 15.7726C249.539 15.7726 252.253 17.6925 253.701 20.3948C253.834 20.6472 254.103 20.7277 254.35 20.5973L259.031 18.0615C259.266 17.9338 259.352 17.6703 259.219 17.4344C256.683 12.84 251.85 9.91016 246.043 9.91016C237.42 9.91016 230.867 16.3496 230.867 24.8561C230.867 33.3653 237.42 39.802 246.043 39.802C251.867 39.802 256.708 36.8583 259.236 32.2416C259.358 32.0252 259.266 31.7783 259.031 31.6507Z" fill="black"/>
<path d="M222.013 30.3195L225.703 28.8407C227.048 28.2997 227.864 27.0928 227.864 25.6335V21.8741C227.864 21.5356 227.57 21.3331 227.253 21.4662L222.015 23.6109C221.732 23.7247 221.555 23.9854 221.555 24.2962V29.7646L210.546 16.2364H221.657C221.932 16.2364 222.129 16.0422 222.129 15.7648V10.9595C222.129 10.6848 221.935 10.4878 221.657 10.4878H208.676C204.251 10.4878 202.231 15.3236 204.767 18.4199L206.412 20.4258C202.031 22.8979 199.881 26.0247 199.881 29.9755C199.881 35.6658 204.364 39.8053 210.285 39.8053C213.664 39.8053 216.655 38.4542 219.111 35.9599L221.577 38.9785C221.71 39.145 221.899 39.231 222.112 39.231H228.225C228.655 39.231 228.885 38.7649 228.616 38.4375L222.013 30.3195ZM206.207 29.8007C206.207 27.8641 207.336 26.2882 209.955 24.7595L215.659 31.7317C214.136 33.1716 212.593 33.9984 210.748 33.9984C208.104 33.9956 206.207 32.3282 206.207 29.8007Z" fill="white"/>
<path d="M124.574 0.194336H119.17C118.939 0.194336 118.709 0.424616 118.709 0.654894V38.7674C118.709 38.9977 118.939 39.2279 119.17 39.2279H124.574C124.804 39.2279 125.035 38.9977 125.035 38.7674V0.654894C125.035 0.424616 124.804 0.194336 124.574 0.194336Z" fill="black"/>
<path d="M136.244 0.194336H130.839C130.609 0.194336 130.379 0.424616 130.379 0.654894V6.17326C130.379 6.40354 130.609 6.63381 130.839 6.63381H132.909C135.093 6.63381 136.705 5.02464 136.705 2.83838V0.654894C136.705 0.424616 136.474 0.194336 136.244 0.194336Z" fill="black"/>
<path d="M136.244 10.4844H130.839C130.609 10.4844 130.379 10.7147 130.379 10.9449V38.7698C130.379 39.0001 130.609 39.2304 130.839 39.2304H136.244C136.474 39.2304 136.705 39.0001 136.705 38.7698V10.9449C136.705 10.7147 136.474 10.4844 136.244 10.4844Z" fill="black"/>
</svg>
