<svg width="96" height="32" viewBox="0 0 96 32" fill="none" xmlns="http://www.w3.org/2000/svg">
<path d="M24.0623 13.369L25.0296 12.8317C25.1761 12.7535 25.2543 12.7828 25.2934 12.8512C25.694 13.5547 26.2509 13.9064 26.9934 13.9064C27.6188 13.9064 28.1561 13.5938 28.1561 13.0955C28.1561 12.6656 27.6481 12.3334 26.6417 12.1282C25.8308 11.9621 25.2054 11.669 24.8049 11.2489C24.4629 10.8776 24.2773 10.4379 24.2773 9.9103C24.2773 9.24591 24.5411 8.70853 25.0784 8.27863C25.6158 7.84873 26.2411 7.64355 26.9544 7.64355C28.2245 7.64355 29.1332 8.15162 29.651 9.17752C29.6901 9.24591 29.6608 9.33384 29.5924 9.36316L28.5665 9.93961C28.4981 9.97869 28.4102 9.94938 28.3711 9.88099C28.0389 9.30453 27.5504 9.01142 26.8957 9.01142C26.3877 9.01142 25.8601 9.32407 25.8601 9.72466C25.8601 10.2034 26.2704 10.4574 27.2279 10.6626C28.8987 11.0339 29.778 11.8351 29.778 12.9782C29.778 13.6524 29.5142 14.2093 29.0062 14.6294C28.4981 15.0593 27.8239 15.2645 26.9934 15.2645C25.5767 15.2645 24.5801 14.6881 24.0037 13.5351C23.9744 13.4961 24.0037 13.4081 24.0623 13.369Z" fill="#05662C"/>
<path d="M32.0926 11.9621C32.1024 12.5092 32.3271 12.9685 32.757 13.3397C33.1869 13.7012 33.6852 13.8771 34.2421 13.8771C35.1117 13.8771 35.7468 13.5351 36.1571 12.861C36.1962 12.7926 36.2842 12.7633 36.3525 12.8121L37.2319 13.3984C37.3687 13.4863 37.3882 13.5742 37.3491 13.6328C36.7141 14.7076 35.5514 15.2938 34.2714 15.2938C33.1771 15.2938 32.2587 14.9323 31.5162 14.1995C30.7834 13.4667 30.4121 12.5483 30.4121 11.454C30.4121 10.3891 30.7736 9.49994 31.4771 8.74762C32.1806 8.00507 33.0599 7.63379 34.1249 7.63379C35.2387 7.63379 36.1278 7.97576 36.7629 8.67923C37.398 9.3827 37.7106 10.2914 37.7106 11.4345C37.7106 11.5908 37.7009 11.7081 37.6911 11.8155C37.6813 11.8937 37.6227 11.9426 37.5543 11.9426L32.0926 11.9621ZM32.1708 10.7213H36.0301C35.9715 9.68558 35.1606 9.0505 34.1151 9.0505C33.1088 9.0505 32.3271 9.7149 32.1708 10.7213Z" fill="#05662C"/>
<path d="M43.8286 15.157C43.7505 15.157 43.6918 15.0984 43.6918 15.0203V11.0241C43.6918 9.92008 43.1935 9.1873 42.109 9.1873C41.1124 9.1873 40.4969 9.94939 40.4969 11.0632V15.0203C40.4969 15.0984 40.4383 15.157 40.3601 15.157H39.002C38.9239 15.157 38.8652 15.0984 38.8652 15.0203V7.93668C38.8652 7.85852 38.9239 7.79989 39.002 7.79989H40.321C40.3992 7.79989 40.4578 7.85852 40.4578 7.93668V8.78671C41.0343 8.01484 41.7671 7.62402 42.6464 7.62402C43.7114 7.62402 44.4637 8.02461 44.9229 8.83556C45.685 8.00507 46.3983 7.62402 47.4925 7.62402C49.2708 7.62402 50.1697 8.83556 50.1697 10.604V15.0203C50.1697 15.0984 50.111 15.157 50.0329 15.157H48.6748C48.5966 15.157 48.538 15.0984 48.538 15.0203V11.0144C48.538 9.90054 48.0592 9.19707 46.9649 9.19707C45.9586 9.19707 45.3333 9.93962 45.3333 11.0632V15.0203C45.3333 15.0984 45.2747 15.157 45.1965 15.157H43.8286Z" fill="#05662C"/>
<path d="M53.1883 15.1569H51.8302C51.752 15.1569 51.6934 15.0983 51.6934 15.0201V7.93652C51.6934 7.85835 51.752 7.79973 51.8302 7.79973H53.1883C53.2664 7.79973 53.3251 7.85835 53.3251 7.93652V15.0201C53.3348 15.0983 53.2664 15.1569 53.1883 15.1569ZM53.2371 6.63705H51.7813C51.7032 6.63705 51.6445 6.57842 51.6445 6.50026V5.12263C51.6445 5.04446 51.7032 4.98584 51.7813 4.98584H53.2371C53.3153 4.98584 53.3739 5.04446 53.3739 5.12263V6.50026C53.3739 6.57842 53.3153 6.63705 53.2371 6.63705Z" fill="#05662C"/>
<path d="M60.0181 15.157C59.94 15.157 59.8814 15.0984 59.8814 15.0202V11.0339C59.8814 9.92984 59.344 9.19706 58.2497 9.19706C57.214 9.19706 56.5496 9.93961 56.5496 11.0632V15.0202C56.5496 15.0984 56.491 15.157 56.4128 15.157H55.0547C54.9766 15.157 54.918 15.0984 54.918 15.0202V7.93667C54.918 7.8585 54.9766 7.79988 55.0547 7.79988H56.3738C56.4519 7.79988 56.5105 7.8585 56.5105 7.93667V8.7867C57.0772 8.0246 57.8198 7.64355 58.7577 7.64355C60.5653 7.64355 61.513 8.85509 61.513 10.6235V15.0202C61.513 15.0984 61.4544 15.157 61.3762 15.157H60.0181Z" fill="#05662C"/>
<path d="M69.1927 8.73803C69.9548 9.47082 70.3261 10.3697 70.3261 11.4444C70.3261 12.5387 69.9548 13.4474 69.1927 14.1899C68.4502 14.9227 67.5415 15.294 66.4472 15.294C65.3725 15.294 64.4443 14.9227 63.692 14.1899C62.9299 13.4572 62.5586 12.5485 62.5586 11.4738C62.5586 10.399 62.9494 9.49036 63.7017 8.75757C64.4638 8.02479 65.3823 7.65351 66.457 7.65351C67.5318 7.64374 68.4404 8.00525 69.1927 8.73803ZM64.2489 11.4347C64.2489 12.0795 64.4541 12.6364 64.8742 13.1054C65.2845 13.5646 65.8219 13.7991 66.4765 13.7991C67.1214 13.7991 67.6588 13.5744 68.0594 13.125C68.46 12.6658 68.6651 12.1186 68.6651 11.4738C68.6651 10.8289 68.4599 10.272 68.0398 9.82255C67.6392 9.36334 67.1019 9.14839 66.457 9.14839C65.8122 9.14839 65.2748 9.37311 64.8547 9.82255C64.4541 10.2525 64.2489 10.7898 64.2489 11.4347Z" fill="#05662C"/>
<path d="M72.0745 7.88774L74.2045 13.2419L76.3345 7.88774C76.354 7.82912 76.4126 7.7998 76.4615 7.7998H77.8782C77.9759 7.7998 78.0443 7.90728 78.0052 7.99521L75.0448 15.0788C75.0252 15.1276 74.9666 15.1667 74.9177 15.1667H73.4619C73.4033 15.1667 73.3545 15.1374 73.3349 15.0788L70.3354 7.99521C70.2963 7.89751 70.3647 7.7998 70.4624 7.7998H71.928C71.9964 7.7998 72.0452 7.82912 72.0745 7.88774Z" fill="#05662C"/>
<path d="M84.6595 8.73803C85.4216 9.47082 85.7929 10.3697 85.7929 11.4444C85.7929 12.5387 85.4216 13.4474 84.6595 14.1899C83.917 14.9227 83.0083 15.294 81.914 15.294C80.8393 15.294 79.9111 14.9227 79.1588 14.1899C78.3967 13.4572 78.0254 12.5485 78.0254 11.4738C78.0254 10.399 78.4162 9.49036 79.1685 8.75757C79.9306 8.02479 80.849 7.65351 81.9238 7.65351C82.9888 7.64374 83.8974 8.00525 84.6595 8.73803ZM79.7059 11.4347C79.7059 12.0795 79.9111 12.6364 80.3312 13.1054C80.7416 13.5646 81.279 13.7991 81.9336 13.7991C82.5882 13.7991 83.1158 13.5744 83.5164 13.125C83.917 12.6658 84.1221 12.1186 84.1221 11.4738C84.1221 10.8289 83.917 10.272 83.4968 9.82255C83.0963 9.36334 82.5589 9.14839 81.914 9.14839C81.2692 9.14839 80.7318 9.37311 80.3117 9.82255C79.9111 10.2525 79.7059 10.7898 79.7059 11.4347Z" fill="#05662C"/>
<path d="M86.3496 13.369L87.3168 12.8317C87.4634 12.7535 87.5416 12.7828 87.5806 12.8512C87.9812 13.5547 88.5381 13.9064 89.2807 13.9064C89.906 13.9064 90.4434 13.5938 90.4434 13.0955C90.4434 12.6656 89.9353 12.3334 88.929 12.1282C88.118 11.9621 87.4927 11.669 87.0921 11.2489C86.7501 10.8776 86.5645 10.4379 86.5645 9.9103C86.5645 9.24591 86.8283 8.70853 87.3657 8.27863C87.9031 7.84873 88.5284 7.64355 89.2416 7.64355C90.5118 7.64355 91.4204 8.15162 91.9383 9.17752C91.9773 9.24591 91.948 9.33384 91.8796 9.36316L90.8537 9.93961C90.7853 9.97869 90.6974 9.94938 90.6583 9.88099C90.3261 9.30453 89.8376 9.01142 89.183 9.01142C88.6749 9.01142 88.1473 9.32407 88.1473 9.72466C88.1473 10.2034 88.5577 10.4574 89.5152 10.6626C91.1859 11.0339 92.0653 11.8351 92.0653 12.9782C92.0653 13.6524 91.8015 14.2093 91.2934 14.6294C90.7853 15.0593 90.1112 15.2645 89.2807 15.2645C87.864 15.2645 86.8674 14.6881 86.2909 13.5351C86.2519 13.4961 86.2812 13.4081 86.3496 13.369Z" fill="#05662C"/>
<path d="M70.1597 19.6021H68.8212C68.7723 19.6021 68.7235 19.6412 68.7235 19.6998V20.5303C68.3326 19.9734 67.5022 19.4653 66.5056 19.4653C64.6101 19.4653 63.1641 21.0872 63.1641 23.0706C63.1641 25.054 64.6101 26.6759 66.5056 26.6759C67.5119 26.6759 68.3326 26.1581 68.7235 25.611V26.4414C68.7235 26.4903 68.7625 26.5391 68.8212 26.5391H70.1597C70.2086 26.5391 70.2574 26.5001 70.2574 26.4414V19.6901C70.2574 19.651 70.2086 19.6021 70.1597 19.6021ZM66.7889 25.2983C65.5676 25.2983 64.7273 24.3212 64.7273 23.0804C64.7273 21.8396 65.5676 20.8625 66.7889 20.8625C68.0102 20.8625 68.8602 21.8298 68.8602 23.0804C68.8602 24.331 68.0004 25.2983 66.7889 25.2983Z" fill="#05662C"/>
<path d="M62.8504 25.1614H59.206L62.8211 20.8527C62.8309 20.8429 62.8407 20.8136 62.8407 20.794V19.6998C62.8407 19.6509 62.8016 19.6021 62.743 19.6021H57.379C57.3301 19.6021 57.2813 19.6411 57.2813 19.6998V20.9015C57.2813 20.9504 57.3204 20.9992 57.379 20.9992H60.867L57.252 25.3178C57.2422 25.3373 57.2324 25.3568 57.2324 25.3764V26.4511C57.2324 26.5 57.2715 26.5488 57.3301 26.5488H62.8504C62.8993 26.5488 62.9481 26.5098 62.9481 26.4511V25.2494C62.9481 25.2005 62.9091 25.1614 62.8504 25.1614Z" fill="#05662C"/>
<path d="M56.237 19.6021H54.8985C54.8496 19.6021 54.8008 19.6411 54.8008 19.6998V26.5195C54.8008 26.5 54.8399 26.5391 54.8985 26.5391H56.237C56.2859 26.5391 56.3347 26.5 56.3347 26.4414V19.69C56.3347 19.6509 56.2957 19.6021 56.237 19.6021Z" fill="#05662C"/>
<path d="M56.2664 17.1206H54.879C54.8301 17.1206 54.7812 17.1597 54.7812 17.2183V18.6643C54.7812 18.7132 54.8203 18.762 54.879 18.762H55.3675C55.9537 18.762 56.3543 18.4103 56.3543 17.8143V17.2183C56.3543 17.1597 56.3152 17.1206 56.2664 17.1206Z" fill="#05662C"/>
<path d="M53.5593 17.1206H52.2208C52.1719 17.1206 52.123 17.1597 52.123 17.2183V26.4514C52.123 26.5002 52.1621 26.5491 52.2208 26.5491H53.5593C53.6082 26.5491 53.657 26.51 53.657 26.4514V17.2183C53.657 17.1597 53.6179 17.1206 53.5593 17.1206Z" fill="#05662C"/>
<path d="M50.9312 19.6021H49.5926C49.5438 19.6021 49.4949 19.6412 49.4949 19.6998V20.5303C49.1041 19.9734 48.2736 19.4653 47.277 19.4653C45.3816 19.4653 43.9355 21.0872 43.9355 23.0706C43.9355 25.054 45.3816 26.6759 47.277 26.6759C48.2834 26.6759 49.1041 26.1581 49.4949 25.611V26.4414C49.4949 26.4903 49.534 26.5391 49.5926 26.5391H50.9312C50.98 26.5391 51.0289 26.5001 51.0289 26.4414V19.6901C51.0289 19.651 50.98 19.6021 50.9312 19.6021ZM47.5604 25.2983C46.3391 25.2983 45.489 24.3212 45.489 23.0804C45.489 21.8396 46.3293 20.8625 47.5604 20.8625C48.7817 20.8625 49.6219 21.8298 49.6219 23.0804C49.6219 24.331 48.7817 25.2983 47.5604 25.2983Z" fill="#05662C"/>
<path d="M42.4598 24.0965C42.411 24.0672 42.3523 24.0868 42.323 24.1356C41.9713 24.8 41.3167 25.269 40.4667 25.269C39.2258 25.269 38.3465 24.3017 38.3562 23.0609C38.366 21.7809 39.431 20.7648 40.7011 20.8918C41.4437 20.97 42.0104 21.4096 42.323 22.0154C42.3426 22.0643 42.411 22.0838 42.4598 22.0545L43.6225 21.4292C43.6714 21.3999 43.6909 21.3413 43.6616 21.3022C43.0558 20.1786 41.8834 19.4751 40.4764 19.4751C38.3953 19.4751 36.8125 21.0286 36.8125 23.0804C36.8125 25.1322 38.3953 26.6857 40.4764 26.6857C41.8834 26.6857 43.0558 25.9725 43.6616 24.8586C43.6909 24.8098 43.6714 24.7511 43.6225 24.7316L42.4598 24.0965Z" fill="#05662C"/>
<path d="M32.7186 19.4653C30.6668 19.4653 29.084 21.0579 29.084 23.0706C29.084 25.0833 30.6668 26.6759 32.7186 26.6759C34.7704 26.6759 36.3532 25.0736 36.3532 23.0706C36.3532 21.0579 34.7704 19.4653 32.7186 19.4653ZM32.7186 25.269C31.4875 25.269 30.6179 24.3115 30.6179 23.0706C30.6179 21.8298 31.4777 20.8723 32.7186 20.8723C33.9399 20.8723 34.7997 21.8298 34.7997 23.0706C34.7997 24.3115 33.9399 25.269 32.7186 25.269Z" fill="#05662C"/>
<path d="M28.9183 24.9958H25.8699V19.71C25.8699 19.6612 25.8309 19.6123 25.7722 19.6123H24.3458C24.2871 19.6123 24.248 19.6514 24.248 19.71V25.1815C24.248 25.9436 24.8636 26.5591 25.6257 26.5591H28.9281C28.9769 26.5591 29.0258 26.52 29.0258 26.4614V25.0935C29.016 25.0349 28.9769 24.9958 28.9183 24.9958Z" fill="#05662C"/>
<path d="M16.9986 21.6344V26.8909C16.9986 27.2426 16.7153 27.526 16.3636 27.526H11.4686C7.30635 27.526 3.93555 24.1552 3.93555 19.993V16.544C3.93555 16.2802 4.09187 16.0457 4.33613 15.948L10.472 13.4761V19.9734C10.472 20.5303 10.9214 20.9895 11.4881 20.9895H16.3636C16.7153 20.9895 16.9986 21.2827 16.9986 21.6344Z" fill="#05662C"/>
<path d="M16.9974 4.89793V7.97562C16.9974 10.0274 16.0496 11.2292 14.1933 11.9815L10.4609 13.4862V7.34054C10.4609 7.07674 10.6173 6.84224 10.8615 6.74454L16.4111 4.50711C16.6945 4.38986 16.9974 4.59504 16.9974 4.89793Z" fill="#FF8026"/>
</svg>
