<svg width="160" height="54" viewBox="0 0 160 54" fill="none" xmlns="http://www.w3.org/2000/svg">
<path d="M29.2419 14.0101L23.241 16.4731C23.0836 16.5343 22.9488 16.6424 22.8547 16.7826C22.7607 16.9229 22.7119 17.0887 22.715 17.2576V23.9791L27.4631 22.0725C28.2038 21.7897 28.8393 21.2855 29.283 20.6285C29.7267 19.9714 29.9571 19.1936 29.9428 18.4009V14.4875C29.9497 14.4016 29.9337 14.3155 29.8965 14.2378C29.8593 14.1601 29.8022 14.0936 29.731 14.0451C29.6599 13.9966 29.5771 13.9679 29.4912 13.9617C29.4053 13.9555 29.3193 13.9722 29.2419 14.0101Z" fill="#7DDF20"/>
<path d="M15.426 27.512V31.132C15.426 36.0655 19.0004 39.6384 23.9401 39.6384H29.2902C29.3777 39.6414 29.4648 39.6263 29.5462 39.5942C29.6276 39.5621 29.7015 39.5136 29.7634 39.4517C29.8253 39.3899 29.8738 39.3159 29.9059 39.2345C29.938 39.1531 29.953 39.066 29.95 38.9786V33.0355C29.953 32.9479 29.938 32.8608 29.9059 32.7793C29.8738 32.6978 29.8253 32.6238 29.7635 32.5618C29.7016 32.4998 29.6277 32.4512 29.5463 32.4189C29.4649 32.3866 29.3777 32.3714 29.2902 32.3741H23.8184C23.6722 32.3794 23.5265 32.3546 23.3904 32.301C23.2543 32.2475 23.1306 32.1665 23.0272 32.0631C22.9237 31.9597 22.8427 31.836 22.7892 31.6999C22.7357 31.5637 22.7108 31.418 22.7162 31.2719V23.9741L15.9551 26.726C15.7963 26.7859 15.66 26.8937 15.5652 27.0346C15.4704 27.1754 15.4218 27.3423 15.426 27.512Z" fill="#05662C"/>
<path d="M59.2257 19.9321C54.654 19.9321 51.1328 23.4852 51.1328 27.9642C51.1328 32.4432 54.654 35.9947 59.2257 35.9947C63.7974 35.9947 67.3186 32.4432 67.3186 27.9642C67.3186 23.4852 63.7974 19.9321 59.2257 19.9321ZM59.2257 32.8446C56.4769 32.8446 54.5612 30.7161 54.5612 27.9642C54.5612 25.2123 56.4769 23.0838 59.2257 23.0838C61.9441 23.0838 63.8582 25.2123 63.8582 27.9642C63.8582 30.7161 61.9441 32.8446 59.2257 32.8446Z" fill="#05662C"/>
<path d="M83.5356 31.6085L81.0027 30.2493C80.9729 30.2319 80.9398 30.2212 80.9054 30.218C80.8711 30.2149 80.8366 30.2194 80.8042 30.2311C80.7718 30.2429 80.7424 30.2617 80.7181 30.2861C80.6938 30.3105 80.6752 30.34 80.6636 30.3724C80.2761 31.1248 79.6869 31.7544 78.9619 32.191C78.237 32.6276 77.4049 32.8539 76.5586 32.8446C73.8083 32.8446 71.8622 30.7161 71.8622 27.9642C71.8622 25.2123 73.8083 23.0838 76.5586 23.0838C77.4049 23.0733 78.2373 23.2989 78.9625 23.7354C79.6876 24.1718 80.2767 24.8017 80.6636 25.5544C80.675 25.587 80.6935 25.6167 80.7177 25.6413C80.742 25.6659 80.7714 25.6848 80.8039 25.6966C80.8363 25.7083 80.871 25.7128 80.9054 25.7095C80.9398 25.7062 80.973 25.6953 81.0027 25.6776L83.5356 24.3184C83.5664 24.3048 83.5938 24.2845 83.6157 24.259C83.6377 24.2335 83.6537 24.2034 83.6626 24.1709C83.6715 24.1384 83.673 24.1044 83.6671 24.0713C83.6611 24.0381 83.6479 24.0067 83.6283 23.9793C82.2691 21.5072 79.6754 19.9321 76.5556 19.9321C71.9215 19.9321 68.4004 23.3925 68.4004 27.9642C68.4004 32.5359 71.9215 35.9947 76.5556 35.9947C79.6754 35.9947 82.3011 34.4197 83.6603 31.9171C83.6838 31.8596 83.6839 31.7951 83.6606 31.7375C83.6373 31.6799 83.5925 31.6336 83.5356 31.6085Z" fill="#05662C"/>
<path d="M50.7336 32.5967H42.8277V20.4885C42.8231 20.4243 42.7955 20.3639 42.75 20.3184C42.7045 20.2729 42.6441 20.2453 42.5799 20.2407H39.676C39.6119 20.2454 39.5517 20.273 39.5065 20.3185C39.4612 20.3641 39.4339 20.4245 39.4297 20.4885V32.8445C39.4297 34.6051 40.5107 35.6861 42.2712 35.6861H50.7336C50.7977 35.6818 50.8581 35.6542 50.9034 35.6086C50.9488 35.563 50.9759 35.5024 50.9799 35.4382V32.8445C50.9759 32.7803 50.9488 32.7198 50.9034 32.6742C50.8581 32.6285 50.7977 32.601 50.7336 32.5967Z" fill="#05662C"/>
<path d="M127.646 32.597H119.541L127.522 23.1145C127.603 23.0196 127.647 22.8986 127.646 22.774V20.4934C127.641 20.4291 127.614 20.3685 127.568 20.3229C127.523 20.2774 127.462 20.2499 127.398 20.2456H115.539C115.475 20.2499 115.414 20.2774 115.368 20.3229C115.323 20.3685 115.295 20.4291 115.291 20.4934V23.0887C115.295 23.1528 115.323 23.2132 115.369 23.2586C115.414 23.3039 115.475 23.3311 115.539 23.335H123.252L115.291 32.8494C115.211 32.9442 115.167 33.0644 115.168 33.1884V35.4386C115.172 35.5028 115.199 35.5633 115.244 35.6089C115.29 35.6545 115.35 35.6821 115.414 35.6864H127.647C127.711 35.6821 127.772 35.6545 127.817 35.6089C127.862 35.5633 127.889 35.5028 127.893 35.4386V32.8448C127.889 32.7804 127.862 32.7196 127.816 32.674C127.771 32.6284 127.71 32.601 127.646 32.597Z" fill="#05662C"/>
<path d="M112.635 14.7124H109.731C109.667 14.7167 109.607 14.744 109.561 14.7893C109.516 14.8346 109.489 14.8948 109.484 14.9587V17.9249C109.489 17.9888 109.516 18.049 109.561 18.0943C109.607 18.1396 109.667 18.1669 109.731 18.1712H110.842C111.112 18.1799 111.381 18.1331 111.632 18.0337C111.884 17.9343 112.112 17.7844 112.303 17.5933C112.494 17.4023 112.644 17.174 112.743 16.9228C112.843 16.6715 112.89 16.4025 112.881 16.1324V14.9587C112.877 14.8948 112.849 14.8346 112.804 14.7893C112.759 14.744 112.698 14.7167 112.635 14.7124Z" fill="#05662C"/>
<path d="M144.326 20.2408H141.422C141.358 20.2454 141.298 20.273 141.252 20.3186C141.207 20.3641 141.18 20.4245 141.176 20.4886V22.3237C140.312 21.0785 138.468 19.9321 136.233 19.9321C132.002 19.9321 128.783 23.546 128.783 27.9642C128.783 32.3824 131.996 35.9947 136.233 35.9947C138.468 35.9947 140.312 34.8499 141.176 33.6047V35.4383C141.18 35.5025 141.207 35.563 141.252 35.6086C141.297 35.6543 141.358 35.6818 141.422 35.6861H144.326C144.39 35.6818 144.451 35.6543 144.496 35.6088C144.542 35.5632 144.569 35.5026 144.574 35.4383V20.4886C144.569 20.4244 144.542 20.364 144.496 20.3185C144.45 20.2729 144.39 20.2454 144.326 20.2408ZM136.85 32.9054C134.133 32.9054 132.248 30.7434 132.248 27.9642C132.248 25.185 134.133 23.0215 136.85 23.0215C139.567 23.0215 141.454 25.1835 141.454 27.9642C141.454 30.7449 139.569 32.9054 136.85 32.9054Z" fill="#05662C"/>
<path d="M100.068 20.2408H97.1642C97.1001 20.2454 97.0399 20.273 96.9946 20.3186C96.9493 20.3641 96.9221 20.4245 96.9179 20.4886V22.3237C96.0528 21.0785 94.2086 19.9321 91.9752 19.9321C87.7425 19.9321 84.5254 23.546 84.5254 27.9642C84.5254 32.3824 87.7379 35.9947 91.9752 35.9947C94.2086 35.9947 96.0528 34.8499 96.9179 33.6047V35.4383C96.9218 35.5025 96.9489 35.563 96.9943 35.6086C97.0396 35.6543 97.1 35.6818 97.1642 35.6861H100.068C100.132 35.6818 100.193 35.6543 100.238 35.6086C100.283 35.563 100.31 35.5025 100.314 35.4383V20.4886C100.31 20.4245 100.283 20.3641 100.238 20.3186C100.192 20.273 100.132 20.2454 100.068 20.2408ZM92.5924 32.9054C89.874 32.9054 87.9903 30.7434 87.9903 27.9642C87.9903 25.185 89.874 23.0215 92.5924 23.0215C95.3108 23.0215 97.1946 25.1835 97.1946 27.9642C97.1946 30.7449 95.3048 32.9054 92.5863 32.9054H92.5924Z" fill="#05662C"/>
<path d="M112.635 20.2407H109.732C109.595 20.2407 109.484 20.3517 109.484 20.4885V35.4367C109.484 35.5736 109.595 35.6845 109.732 35.6845H112.635C112.771 35.6845 112.882 35.5736 112.882 35.4367V20.4885C112.882 20.3517 112.771 20.2407 112.635 20.2407Z" fill="#05662C"/>
<path d="M106.363 14.7124H103.461C103.324 14.7124 103.213 14.8234 103.213 14.9602V35.438C103.213 35.5748 103.324 35.6858 103.461 35.6858H106.363C106.5 35.6858 106.611 35.5748 106.611 35.438V14.9602C106.611 14.8234 106.5 14.7124 106.363 14.7124Z" fill="#05662C"/>
</svg>
