<svg width="448" height="819" viewBox="0 0 448 819" fill="none" xmlns="http://www.w3.org/2000/svg">
<path d="M618.095 553.913L721.055 512.621C758.601 497.514 781.361 463.813 781.361 423.063V318.089C781.361 308.638 773.156 302.982 764.33 306.701L618.172 366.587C610.276 369.763 605.322 377.045 605.322 385.722V538.419L298.142 160.667H608.186C615.85 160.667 621.346 155.243 621.346 147.496V13.3153C621.346 5.64561 615.927 0.14502 608.186 0.14502H245.965C122.489 0.14502 66.1321 135.178 136.889 221.637L182.796 277.649C60.5587 346.676 0.5625 433.987 0.5625 544.307C0.5625 703.201 125.664 818.789 290.865 818.789C385.156 818.789 468.609 781.06 537.12 711.413L605.94 795.702C609.656 800.351 614.921 802.752 620.882 802.752H791.425C803.424 802.752 809.849 789.737 802.34 780.596L618.095 553.913ZM177.067 539.426C177.067 485.351 208.575 441.346 281.654 398.659L440.817 593.346C398.316 633.554 355.274 656.641 303.794 656.641C230.018 656.563 177.067 610.003 177.067 539.426Z" fill="#78DE1F"/>
</svg>
