<svg width="40" height="41" viewBox="0 0 40 41" fill="none" xmlns="http://www.w3.org/2000/svg">
<path d="M30.6948 27.828L35.7923 25.7852C37.6512 25.0378 38.778 23.3705 38.778 21.3545V16.1612C38.778 15.6936 38.3718 15.4138 37.9348 15.5978L30.6986 18.5605C30.3077 18.7176 30.0624 19.0779 30.0624 19.5071V27.0615L14.8541 8.37306H30.2042C30.5836 8.37306 30.8558 8.10477 30.8558 7.72149V1.08321C30.8558 0.703769 30.5875 0.431641 30.2042 0.431641H12.2708C6.15763 0.431641 3.36741 7.11209 6.87053 11.3894L9.14336 14.1605C3.09148 17.5754 0.121094 21.895 0.121094 27.3528C0.121094 35.2137 6.31479 40.9321 14.4938 40.9321C19.1621 40.9321 23.2938 39.0656 26.6858 35.62L30.093 39.79C30.277 40.0199 30.5377 40.1388 30.8328 40.1388H39.2763C39.8704 40.1388 40.1885 39.4949 39.8167 39.0426L30.6948 27.828ZM8.85974 27.1113C8.85974 24.4361 10.4197 22.259 14.0378 20.1472L21.9178 29.7789C19.8137 31.7681 17.6827 32.9102 15.1339 32.9102C11.4813 32.9064 8.85974 30.6029 8.85974 27.1113Z" fill="white"/>
</svg>
