<svg width="794" height="724" viewBox="0 0 794 724" fill="none" xmlns="http://www.w3.org/2000/svg">
<path d="M659.747 514.71L657.228 515.721L658.939 517.827L856.001 760.392L856.008 760.4C862.904 768.799 857.126 780.84 845.879 780.84H663.472C657.673 780.84 652.629 778.522 649.054 774.047L649.047 774.039L649.041 774.031L575.433 683.837L574.022 682.108L572.457 683.699C499.519 757.881 410.761 798 310.498 798C134.789 798 2 675.093 2 506.287C2 389.166 65.5774 296.312 195.894 222.687L197.964 221.518L196.457 219.679L147.358 159.744C72.7144 68.4934 132.148 -74 262.474 -74H649.893C653.545 -74 656.539 -72.7104 658.617 -70.6208C660.697 -68.5297 661.968 -65.5282 661.968 -61.907V81.6749C661.968 85.3335 660.679 88.3328 658.592 90.4139C656.504 92.4961 653.507 93.7679 649.893 93.7679H318.281H314.078L316.729 97.0294L645.277 501.248L648.829 505.618V499.986V336.591C648.829 328.119 653.636 321.063 661.321 317.971L661.333 317.966L817.658 253.884L817.667 253.88L817.677 253.876C821.832 252.125 825.664 252.632 828.427 254.499C831.197 256.371 833.115 259.76 833.115 264.22V376.549C833.115 419.342 809.264 454.666 769.867 470.525L659.747 514.71ZM302.194 349.17L301.112 347.846L299.636 348.708C221.191 394.551 186.783 442.175 186.783 501.064C186.783 539.353 201.154 571.238 225.616 593.545C250.061 615.837 284.452 628.449 324.324 628.491H324.326C380.078 628.491 426.582 603.444 472.255 560.214L473.606 558.936L472.429 557.496L302.194 349.17Z" stroke="black" stroke-width="4"/>
</svg>
