<svg width="42" height="42" viewBox="0 0 42 42" fill="none" xmlns="http://www.w3.org/2000/svg">
<path d="M40.8939 1.42716H33.4277C33.1096 1.42716 32.7915 1.74527 32.7915 2.06339V6.78148C30.5723 3.58115 25.8312 0.633789 20.086 0.633789C9.20485 0.633789 0.945312 9.92433 0.945312 21.2807C0.945312 32.6371 9.20485 41.9276 20.086 41.9276C25.8312 41.9276 30.5723 38.9841 32.7915 35.7799V40.498C32.7915 40.8162 33.1096 41.1343 33.4277 41.1343H40.8939C41.212 41.1343 41.5301 40.8162 41.5301 40.498V2.06339C41.5301 1.74527 41.212 1.42716 40.8939 1.42716ZM21.6765 33.9862C14.6895 33.9862 9.8449 28.4288 9.8449 21.2807C9.8449 14.1327 14.6895 8.5752 21.6765 8.5752C28.6636 8.5752 33.5082 14.1327 33.5082 21.2807C33.5082 28.4288 28.6636 33.9862 21.6765 33.9862Z" fill="black"/>
</svg>
