<svg width="25" height="24" viewBox="0 0 25 24" fill="none" xmlns="http://www.w3.org/2000/svg">
<path d="M12.4981 8.77781C10.7238 8.77781 9.27588 10.2258 9.27588 12.0001C9.27588 13.7744 10.7238 15.2223 12.4981 15.2223C14.2724 15.2223 15.7204 13.7744 15.7204 12.0001C15.7204 10.2258 14.2724 8.77781 12.4981 8.77781ZM22.1625 12.0001C22.1625 10.6657 22.1746 9.34346 22.0997 8.01153C22.0247 6.46445 21.6718 5.09143 20.5405 3.96013C19.4068 2.82642 18.0362 2.47591 16.4891 2.40097C15.1548 2.32603 13.8325 2.33812 12.5006 2.33812C11.1662 2.33812 9.84395 2.32603 8.51201 2.40097C6.96494 2.47591 5.59192 2.82883 4.46062 3.96013C3.3269 5.09384 2.9764 6.46445 2.90146 8.01153C2.82652 9.34588 2.83861 10.6681 2.83861 12.0001C2.83861 13.332 2.82652 14.6567 2.90146 15.9886C2.9764 17.5357 3.32932 18.9087 4.46062 20.04C5.59433 21.1737 6.96494 21.5242 8.51201 21.5992C9.84636 21.6741 11.1686 21.662 12.5006 21.662C13.8349 21.662 15.1572 21.6741 16.4891 21.5992C18.0362 21.5242 19.4092 21.1713 20.5405 20.04C21.6742 18.9063 22.0247 17.5357 22.0997 15.9886C22.177 14.6567 22.1625 13.3344 22.1625 12.0001ZM12.4981 16.958C9.75451 16.958 7.54026 14.7437 7.54026 12.0001C7.54026 9.25644 9.75451 7.04219 12.4981 7.04219C15.2418 7.04219 17.456 9.25644 17.456 12.0001C17.456 14.7437 15.2418 16.958 12.4981 16.958ZM17.6591 7.99702C17.0185 7.99702 16.5012 7.47972 16.5012 6.83914C16.5012 6.19855 17.0185 5.68125 17.6591 5.68125C18.2997 5.68125 18.817 6.19855 18.817 6.83914C18.8172 6.99124 18.7873 7.1419 18.7292 7.28246C18.6711 7.42303 18.5858 7.55075 18.4783 7.65831C18.3707 7.76587 18.243 7.85115 18.1024 7.90927C17.9618 7.96739 17.8112 7.99721 17.6591 7.99702Z" fill="white"/>
</svg>
