<svg width="25" height="24" viewBox="0 0 25 24" fill="none" xmlns="http://www.w3.org/2000/svg">
<path fill-rule="evenodd" clip-rule="evenodd" d="M16.7812 19.1562H5.40625C5.40625 20.75 6.6875 22 8.25 22H16.75C18.3125 22 19.5938 20.7188 19.5938 19.1562V7.40625C19.5938 7.34375 19.5625 7.3125 19.5 7.3125H16.875C16.8125 7.3125 16.7812 7.34375 16.7812 7.40625V19.1562ZM16.7812 2C18.3438 2 19.625 3.28125 19.625 4.875H8.25V16.625C8.25 16.6875 8.1875 16.7188 8.15625 16.7188H5.5C5.4375 16.7188 5.40625 16.6562 5.40625 16.625V4.875C5.40625 3.28125 6.6875 2 8.25 2H16.7812Z" fill="white"/>
</svg>
