<svg width="360" height="360" viewBox="0 0 360 360" fill="none" xmlns="http://www.w3.org/2000/svg">
<mask id="mask0_206_1801" style="mask-type:alpha" maskUnits="userSpaceOnUse" x="0" y="0" width="360" height="360">
<rect width="360" height="360" fill="#78DE1F"/>
</mask>
<g mask="url(#mask0_206_1801)">
<path d="M496.018 247.132L496.649 246.879L543.972 227.914C561.039 221.052 571.376 205.758 571.376 187.245V139.03C571.376 137.009 570.503 135.438 569.204 134.561C567.907 133.686 566.13 133.466 564.243 134.261L564.238 134.262L497.06 161.768L497.057 161.769C493.618 163.152 491.464 166.312 491.464 170.094V240.227V241.634L490.576 240.543L349.388 67.0425L348.724 66.2269H349.776H492.28C493.921 66.2269 495.302 65.6488 496.273 64.6824C497.243 63.7164 497.829 62.3352 497.829 60.6778V-0.950937C497.829 -2.59151 497.251 -3.97327 496.285 -4.94366C495.319 -5.91374 493.938 -6.5 492.28 -6.5H325.794C269.475 -6.5 243.784 55.0204 276.046 94.4132L496.018 247.132ZM496.018 247.132L496.447 247.659L581.131 351.773L581.133 351.775C584.299 355.628 581.621 361.134 576.502 361.134H498.116C495.52 361.134 493.247 360.094 491.639 358.084L491.635 358.08L460.004 319.366L459.651 318.935L459.26 319.332C427.855 351.234 389.623 368.5 346.431 368.5C270.746 368.5 213.5 315.605 213.5 242.931C213.5 192.494 240.927 152.536 297.005 120.892L297.523 120.599L297.146 120.139L276.046 94.4135L496.018 247.132ZM342.584 175.72L342.314 175.389L341.945 175.604C308.285 195.251 293.626 215.597 293.626 240.69C293.626 257.03 299.764 270.617 310.197 280.12C320.626 289.619 335.314 295.008 352.373 295.026H352.373C376.208 295.026 396.108 284.337 415.696 265.818L416.034 265.498L415.74 265.138L342.584 175.72Z" stroke="black"/>
</g>
</svg>
