<svg width="694" height="724" viewBox="0 0 694 724" fill="none" xmlns="http://www.w3.org/2000/svg">
<path d="M660.047 514.71L657.528 515.721L659.24 517.827L856.302 760.392L856.308 760.4C863.205 768.799 857.426 780.84 846.18 780.84H663.773C657.974 780.84 652.93 778.522 649.355 774.047L649.348 774.039L649.342 774.031L575.734 683.837L574.323 682.108L572.758 683.699C499.82 757.881 411.062 798 310.799 798C135.09 798 2.30078 675.093 2.30078 506.287C2.30078 389.166 65.8781 296.312 196.195 222.687L198.265 221.518L196.758 219.679L147.659 159.744C73.0152 68.4934 132.448 -74 262.775 -74H650.194C653.846 -74 656.84 -72.7104 658.918 -70.6208C660.998 -68.5297 662.269 -65.5282 662.269 -61.907V81.6749C662.269 85.3335 660.98 88.3328 658.893 90.4139C656.805 92.4961 653.808 93.7679 650.194 93.7679H318.581H314.378L317.029 97.0294L645.578 501.248L649.13 505.618V499.986V336.591C649.13 328.119 653.937 321.063 661.622 317.971L661.634 317.966L817.959 253.884L817.968 253.88L817.977 253.876C822.133 252.125 825.965 252.632 828.728 254.499C831.498 256.371 833.416 259.76 833.416 264.22V376.549C833.416 419.342 809.565 454.666 770.168 470.525L660.047 514.71ZM302.495 349.17L301.413 347.846L299.937 348.708C221.491 394.551 187.084 442.175 187.084 501.064C187.084 539.353 201.455 571.238 225.917 593.545C250.362 615.837 284.753 628.449 324.624 628.491H324.627C380.379 628.491 426.883 603.444 472.556 560.214L473.906 558.936L472.73 557.496L302.495 349.17Z" stroke="black" stroke-width="4"/>
</svg>
