<svg width="25" height="24" viewBox="0 0 25 24" fill="none" xmlns="http://www.w3.org/2000/svg">
<path d="M5.91521 7.57504C7.0916 7.57504 8.04526 6.62138 8.04526 5.44499C8.04526 4.2686 7.0916 3.31494 5.91521 3.31494C4.73881 3.31494 3.78516 4.2686 3.78516 5.44499C3.78516 6.62138 4.73881 7.57504 5.91521 7.57504Z" fill="white"/>
<path d="M9.76448 8.86725V20.6847H13.4337V14.8407C13.4337 13.2987 13.7238 11.8053 15.6357 11.8053C17.5214 11.8053 17.5448 13.5684 17.5448 14.9381V20.6857H21.2159V14.205C21.2159 11.0216 20.5306 8.5752 16.8098 8.5752C15.0234 8.5752 13.826 9.55552 13.3363 10.4833H13.2867V8.86725H9.76448ZM3.78516 8.86725H7.46017V20.6847H3.78516V8.86725Z" fill="white"/>
</svg>
