<svg width="25" height="24" viewBox="0 0 25 24" fill="none" xmlns="http://www.w3.org/2000/svg">
<mask id="mask0_362_792" style="mask-type:alpha" maskUnits="userSpaceOnUse" x="0" y="0" width="25" height="24">
<rect x="0.611328" width="24" height="24" fill="#D9D9D9"/>
</mask>
<g mask="url(#mask0_362_792)">
<path d="M4.61133 18C4.32799 18 4.09066 17.904 3.89933 17.712C3.70733 17.5207 3.61133 17.2833 3.61133 17C3.61133 16.7167 3.70733 16.4793 3.89933 16.288C4.09066 16.096 4.32799 16 4.61133 16H20.6113C20.8947 16 21.132 16.096 21.3233 16.288C21.5153 16.4793 21.6113 16.7167 21.6113 17C21.6113 17.2833 21.5153 17.5207 21.3233 17.712C21.132 17.904 20.8947 18 20.6113 18H4.61133ZM4.61133 13C4.32799 13 4.09066 12.904 3.89933 12.712C3.70733 12.5207 3.61133 12.2833 3.61133 12C3.61133 11.7167 3.70733 11.479 3.89933 11.287C4.09066 11.0957 4.32799 11 4.61133 11H20.6113C20.8947 11 21.132 11.0957 21.3233 11.287C21.5153 11.479 21.6113 11.7167 21.6113 12C21.6113 12.2833 21.5153 12.5207 21.3233 12.712C21.132 12.904 20.8947 13 20.6113 13H4.61133ZM4.61133 8C4.32799 8 4.09066 7.90433 3.89933 7.713C3.70733 7.521 3.61133 7.28333 3.61133 7C3.61133 6.71667 3.70733 6.479 3.89933 6.287C4.09066 6.09567 4.32799 6 4.61133 6H20.6113C20.8947 6 21.132 6.09567 21.3233 6.287C21.5153 6.479 21.6113 6.71667 21.6113 7C21.6113 7.28333 21.5153 7.521 21.3233 7.713C21.132 7.90433 20.8947 8 20.6113 8H4.61133Z" fill="black"/>
</g>
</svg>
