<svg width="403" height="56" viewBox="0 0 403 56" fill="none" xmlns="http://www.w3.org/2000/svg">
<g clip-path="url(#clip0_547_792)">
<path d="M381.493 13.6338C369.738 13.6338 360.686 22.7672 360.686 34.2807C360.686 45.7942 369.738 54.9276 381.493 54.9276C393.248 54.9276 402.301 45.7942 402.301 34.2807C402.301 22.7634 393.248 13.6338 381.493 13.6338ZM381.493 46.8291C374.426 46.8291 369.501 41.3483 369.501 34.2807C369.501 27.2132 374.426 21.7324 381.493 21.7324C388.481 21.7324 393.406 27.2132 393.406 34.2807C393.406 41.3483 388.481 46.8291 381.493 46.8291Z" fill="black"/>
<path d="M113.707 43.6594L107.226 40.1639C106.884 39.98 106.513 40.0988 106.329 40.4514C104.336 44.1845 100.587 46.8291 95.758 46.8291C88.6905 46.8291 83.6887 41.3483 83.6887 34.2807C83.6887 27.2132 88.6905 21.7324 95.758 21.7324C100.587 21.7324 104.336 24.3769 106.329 28.11C106.513 28.4588 106.884 28.5776 107.226 28.3975L113.699 24.902C114.025 24.7257 114.144 24.3616 113.96 24.0358C110.464 17.6812 103.788 13.6338 95.758 13.6338C83.8459 13.6338 74.793 22.5296 74.793 34.2807C74.793 46.0357 83.8459 54.9276 95.758 54.9276C103.811 54.9276 110.499 50.8534 113.99 44.4758C114.159 44.1768 114.032 43.8319 113.707 43.6594Z" fill="black"/>
<path d="M29.3682 46.1929H9.03941V15.0635C9.03941 14.7454 8.72129 14.4272 8.40317 14.4272H0.937016C0.618899 14.4272 0.300781 14.7454 0.300781 15.0635V46.8292C0.300781 51.3556 3.07951 54.1344 7.60597 54.1344H29.3644C29.6825 54.1344 30.0006 53.8162 30.0006 53.4981V46.8292C30.0045 46.5111 29.6863 46.1929 29.3682 46.1929Z" fill="black"/>
<path d="M156.195 14.4272H148.729C148.41 14.4272 148.092 14.7453 148.092 15.0634V19.7815C145.873 16.5812 141.132 13.6338 135.387 13.6338C124.506 13.6338 116.246 22.9243 116.246 34.2807C116.246 45.6371 124.506 54.9276 135.387 54.9276C141.132 54.9276 145.873 51.9841 148.092 48.7799V53.498C148.092 53.8162 148.41 54.1343 148.729 54.1343H156.195C156.513 54.1343 156.831 53.8162 156.831 53.498V15.0634C156.831 14.7453 156.513 14.4272 156.195 14.4272ZM136.977 46.9862C129.99 46.9862 125.146 41.4288 125.146 34.2807C125.146 27.1327 129.99 21.5752 136.977 21.5752C143.964 21.5752 148.809 27.1327 148.809 34.2807C148.809 41.4288 143.964 46.9862 136.977 46.9862Z" fill="black"/>
<path d="M51.2064 13.6338C39.4514 13.6338 30.3984 22.7672 30.3984 34.2807C30.3984 45.7942 39.4514 54.9276 51.2064 54.9276C62.9613 54.9276 72.0143 45.7942 72.0143 34.2807C72.0143 22.7634 62.9613 13.6338 51.2064 13.6338ZM51.2064 46.8291C44.1388 46.8291 39.2137 41.3483 39.2137 34.2807C39.2137 27.2132 44.1388 21.7324 51.2064 21.7324C58.1934 21.7324 63.1185 27.2132 63.1185 34.2807C63.1185 41.3483 58.1934 46.8291 51.2064 46.8291Z" fill="black"/>
<path d="M227.109 46.1929H206.309L226.806 21.7823C227.013 21.5446 227.109 21.2572 227.109 20.9391V15.0635C227.109 14.7454 226.791 14.4272 226.473 14.4272H195.976C195.658 14.4272 195.34 14.7454 195.34 15.0635V21.7324C195.34 22.0506 195.658 22.3687 195.976 22.3687H215.806L195.324 46.8598C195.117 47.1051 195.021 47.3849 195.021 47.6954V53.5019C195.021 53.8201 195.34 54.1382 195.658 54.1382H227.105C227.423 54.1382 227.742 53.8201 227.742 53.5019V46.833C227.745 46.5111 227.427 46.1929 227.109 46.1929Z" fill="black"/>
<path d="M269.995 14.4272H262.529C262.211 14.4272 261.893 14.7453 261.893 15.0634V19.7815C259.674 16.5812 254.933 13.6338 249.188 13.6338C238.306 13.6338 230.047 22.9243 230.047 34.2807C230.047 45.6371 238.306 54.9276 249.188 54.9276C254.933 54.9276 259.674 51.9841 261.893 48.7799V53.498C261.893 53.8162 262.211 54.1343 262.529 54.1343H269.995C270.314 54.1343 270.632 53.8162 270.632 53.498V15.0634C270.632 14.7453 270.314 14.4272 269.995 14.4272ZM250.778 46.9862C243.791 46.9862 238.946 41.4288 238.946 34.2807C238.946 27.1327 243.791 21.5752 250.778 21.5752C257.765 21.5752 262.61 27.1327 262.61 34.2807C262.61 41.4288 257.765 46.9862 250.778 46.9862Z" fill="black"/>
<path d="M358.137 43.6671L351.671 40.1563C351.33 39.9723 350.958 40.0911 350.774 40.4438C348.773 44.1768 345.025 46.8291 340.196 46.8291C333.128 46.8291 328.126 41.3483 328.126 34.2807C328.126 27.2132 333.128 21.7324 340.196 21.7324C345.025 21.7324 348.773 24.3846 350.774 28.1177C350.958 28.4665 351.33 28.5776 351.671 28.3975L358.137 24.8944C358.462 24.7181 358.581 24.3539 358.397 24.0282C354.894 17.6812 348.217 13.6338 340.196 13.6338C328.283 13.6338 319.23 22.5296 319.23 34.2807C319.23 46.0357 328.283 54.9276 340.196 54.9276C348.24 54.9276 354.929 50.8611 358.42 44.4834C358.589 44.1845 358.462 43.8434 358.137 43.6671Z" fill="black"/>
<path d="M306.996 41.828L312.093 39.7852C313.952 39.0378 315.079 37.3705 315.079 35.3545V30.1612C315.079 29.6936 314.673 29.4138 314.236 29.5978L306.999 32.5605C306.608 32.7176 306.363 33.0779 306.363 33.5071V41.0615L291.155 22.3731H306.505C306.884 22.3731 307.157 22.1048 307.157 21.7215V15.0832C307.157 14.7038 306.888 14.4316 306.505 14.4316H288.572C282.458 14.4316 279.668 21.1121 283.171 25.3894L285.444 28.1605C279.392 31.5754 276.422 35.895 276.422 41.3528C276.422 49.2137 282.616 54.9321 290.795 54.9321C295.463 54.9321 299.595 53.0656 302.987 49.62L306.394 53.79C306.578 54.0199 306.838 54.1388 307.134 54.1388H315.577C316.171 54.1388 316.489 53.4949 316.117 53.0426L306.996 41.828ZM285.161 41.1113C285.161 38.4361 286.72 36.259 290.339 34.1472L298.219 43.7789C296.114 45.7681 293.983 46.9102 291.435 46.9102C287.782 46.9064 285.161 44.6029 285.161 41.1113Z" fill="white"/>
<path d="M172.393 0.211914H164.927C164.609 0.211914 164.291 0.530032 164.291 0.848149V53.4984C164.291 53.8165 164.609 54.1346 164.927 54.1346H172.393C172.712 54.1346 173.03 53.8165 173.03 53.4984V0.848149C173.03 0.530032 172.712 0.211914 172.393 0.211914Z" fill="black"/>
<path d="M188.515 0.211914H181.048C180.73 0.211914 180.412 0.530032 180.412 0.848149V8.47146C180.412 8.78958 180.73 9.10768 181.048 9.10768H183.908C186.924 9.10768 189.151 6.8847 189.151 3.86451V0.848149C189.151 0.530032 188.833 0.211914 188.515 0.211914Z" fill="black"/>
<path d="M188.515 14.4272H181.048C180.73 14.4272 180.412 14.7454 180.412 15.0635V53.5019C180.412 53.8201 180.73 54.1382 181.048 54.1382H188.515C188.833 54.1382 189.151 53.8201 189.151 53.5019V15.0635C189.151 14.7454 188.833 14.4272 188.515 14.4272Z" fill="black"/>
</g>
<defs>
<clipPath id="clip0_547_792">
<rect width="402" height="55" fill="white" transform="translate(0.300781 0.0717773)"/>
</clipPath>
</defs>
</svg>
