<svg width="188" height="45" xmlns="http://www.w3.org/2000/svg" fill="none">
 <g>
  <title>Layer 1</title>
  <path d="m21.151,4.10979l-8.6126,3.53495c-0.2259,0.08791 -0.4194,0.24299 -0.5544,0.44433c-0.135,0.20134 -0.205,0.43924 -0.2006,0.68162l0,9.64691l6.8146,-2.7363c1.0631,-0.4059 1.9751,-1.1296 2.612,-2.0726c0.6368,-0.943 0.9675,-2.0594 0.947,-3.1971l0,-5.61664c0.0098,-0.12322 -0.0131,-0.24687 -0.0665,-0.35837c-0.0533,-0.1115 -0.1353,-0.20689 -0.2374,-0.27649c-0.1022,-0.06959 -0.221,-0.1109 -0.3443,-0.11973c-0.1233,-0.00884 -0.2467,0.01511 -0.3578,0.06942z" fill="#7ddf20" id="svg_1"/>
  <path d="m1.32069,23.4893l0,5.1955c0,7.0808 5.13004,12.2087 12.21961,12.2087l7.6787,0c0.1255,0.0042 0.2505,-0.0174 0.3673,-0.0635c0.1169,-0.046 0.223,-0.1156 0.3118,-0.2044c0.0888,-0.0888 0.1584,-0.1949 0.2045,-0.3118c0.046,-0.1168 0.0676,-0.2418 0.0634,-0.3674l0,-8.5297c0.0042,-0.1256 -0.0174,-0.2507 -0.0634,-0.3677c-0.0461,-0.1169 -0.1157,-0.2231 -0.2044,-0.3121c-0.0888,-0.089 -0.1949,-0.1588 -0.3117,-0.2051c-0.1168,-0.0464 -0.2419,-0.0682 -0.3675,-0.0643l-7.8533,0c-0.2098,0.0077 -0.4189,-0.028 -0.6143,-0.1048c-0.1954,-0.0768 -0.3729,-0.1931 -0.5213,-0.3415c-0.1485,-0.1485 -0.2647,-0.3259 -0.3415,-0.5213c-0.0768,-0.1954 -0.1125,-0.4046 -0.1049,-0.6144l0,-10.4739l-9.70366,3.9496c-0.228,0.0859 -0.42359,0.2407 -0.55966,0.4429c-0.13606,0.2021 -0.20585,0.4416 -0.19969,0.6852z" fill="#05662c" id="svg_2"/>
  <path d="m64.1855,12.6089c-6.5615,0 -11.6152,5.0995 -11.6152,11.5279c0,6.4283 5.0537,11.5256 11.6152,11.5256c6.5614,0 11.6151,-5.0973 11.6151,-11.5256c0,-6.4284 -5.0537,-11.5279 -11.6151,-11.5279zm0,18.5323c-3.9452,0 -6.6946,-3.0549 -6.6946,-7.0044c0,-3.9496 2.7494,-7.0045 6.6946,-7.0045c3.9015,0 6.6487,3.0549 6.6487,7.0045c0,3.9495 -2.7472,7.0044 -6.6487,7.0044z" fill="#05662C" id="svg_3"/>
  <path d="m99.074,29.3672l-3.6353,-1.9508c-0.0426,-0.025 -0.0903,-0.0404 -0.1395,-0.0449c-0.0493,-0.0045 -0.0989,0.0019 -0.1454,0.0188c-0.0464,0.0169 -0.0886,0.0438 -0.1235,0.0789c-0.0349,0.0351 -0.0616,0.0774 -0.0782,0.1239c-0.5562,1.0798 -1.4018,1.9835 -2.4423,2.6101c-1.0405,0.6266 -2.2348,0.9514 -3.4493,0.938c-3.9473,0 -6.7404,-3.0549 -6.7404,-7.0044c0,-3.9496 2.7931,-7.0045 6.7404,-7.0045c1.2146,-0.0151 2.4094,0.3087 3.4501,0.9351c1.0407,0.6264 1.8862,1.5305 2.4415,2.6108c0.0163,0.0468 0.0428,0.0894 0.0777,0.1247c0.0348,0.0353 0.077,0.0623 0.1236,0.0793c0.0466,0.0169 0.0964,0.0232 0.1457,0.0185c0.0494,-0.0047 0.0971,-0.0203 0.1396,-0.0458l3.6353,-1.9508c0.0442,-0.0195 0.0835,-0.0486 0.1151,-0.0852c0.0315,-0.0366 0.0545,-0.0798 0.0672,-0.1264c0.0128,-0.0466 0.015,-0.0955 0.0065,-0.143c-0.0085,-0.0476 -0.0275,-0.0927 -0.0557,-0.132c-1.9507,-3.548 -5.6733,-5.8086 -10.1509,-5.8086c-6.651,0 -11.7046,4.9664 -11.7046,11.5279c0,6.5614 5.0536,11.5256 11.7046,11.5256c4.4776,0 8.246,-2.2606 10.1968,-5.8523c0.0337,-0.0826 0.0339,-0.1751 0.0004,-0.2578c-0.0334,-0.0827 -0.0977,-0.1491 -0.1794,-0.1851z" fill="#05662C" id="svg_4"/>
  <path d="m51.9932,30.7859l-11.3468,0l0,-17.378c-0.0065,-0.0921 -0.0461,-0.1788 -0.1115,-0.2441c-0.0653,-0.0654 -0.152,-0.105 -0.2441,-0.1116l-4.1678,0c-0.0919,0.0067 -0.1783,0.0464 -0.2433,0.1117c-0.065,0.0654 -0.1041,0.1521 -0.1102,0.244l0,17.7337c0,2.5268 1.5515,4.0783 4.0783,4.0783l12.1454,0c0.0921,-0.0062 0.1788,-0.0458 0.2438,-0.1112c0.0651,-0.0655 0.1041,-0.1524 0.1097,-0.2445l0,-3.7226c-0.0056,-0.0921 -0.0446,-0.1791 -0.1097,-0.2445c-0.065,-0.0655 -0.1517,-0.105 -0.2438,-0.1112z" fill="#05662C" id="svg_5"/>
  <path d="m162.385,30.7857l-11.633,0l11.456,-13.6095c0.116,-0.1363 0.179,-0.3099 0.177,-0.4888l0,-3.2731c-0.006,-0.0923 -0.046,-0.1793 -0.111,-0.2447c-0.066,-0.0654 -0.153,-0.1049 -0.245,-0.111l-17.02,0c-0.092,0.0061 -0.179,0.0456 -0.245,0.111c-0.065,0.0654 -0.105,0.1524 -0.111,0.2447l0,3.7248c0.007,0.092 0.046,0.1787 0.112,0.2438c0.065,0.065 0.152,0.104 0.244,0.1097l11.07,0l-11.426,13.6553c-0.115,0.136 -0.177,0.3086 -0.176,0.4866l0,3.2295c0.005,0.0921 0.044,0.179 0.109,0.2445c0.065,0.0654 0.152,0.105 0.244,0.1112l17.557,0c0.092,-0.0062 0.179,-0.0458 0.244,-0.1112c0.065,-0.0655 0.104,-0.1524 0.109,-0.2445l0,-3.7226c-0.005,-0.0925 -0.044,-0.1797 -0.11,-0.2452c-0.066,-0.0655 -0.153,-0.1048 -0.245,-0.1105z" fill="#05662C" id="svg_6"/>
  <path d="m140.838,5.11816l-4.168,0c-0.092,0.00614 -0.178,0.04535 -0.243,0.11036c-0.065,0.06501 -0.104,0.1514 -0.111,0.24314l0,4.25721c0.007,0.09173 0.046,0.17812 0.111,0.24313c0.065,0.065 0.151,0.1042 0.243,0.1104l1.595,0c0.388,0.0124 0.774,-0.0548 1.134,-0.19744c0.361,-0.14266 0.689,-0.35775 0.963,-0.63198c0.274,-0.27424 0.489,-0.6018 0.632,-0.96244c0.142,-0.36063 0.21,-0.7467 0.197,-1.13433l0,-1.68455c-0.006,-0.09174 -0.045,-0.17813 -0.11,-0.24314c-0.065,-0.06501 -0.152,-0.10422 -0.243,-0.11036z" fill="#05662C" id="svg_7"/>
  <path d="m186.323,13.0518l-4.168,0c-0.092,0.0067 -0.178,0.0464 -0.243,0.1117c-0.065,0.0654 -0.104,0.1521 -0.11,0.244l0,2.6338c-1.24,-1.7871 -3.887,-3.4324 -7.094,-3.4324c-6.073,0 -10.692,5.1868 -10.692,11.5279c0,6.341 4.61,11.5256 10.692,11.5256c3.207,0 5.854,-1.6431 7.094,-3.4302l0,2.6316c0.005,0.0921 0.044,0.179 0.109,0.2445c0.065,0.0654 0.152,0.105 0.244,0.1112l4.168,0c0.092,-0.0062 0.179,-0.0456 0.245,-0.111c0.065,-0.0655 0.104,-0.1524 0.111,-0.2447l0,-21.4563c-0.007,-0.0921 -0.047,-0.1788 -0.112,-0.2441c-0.065,-0.0654 -0.152,-0.105 -0.244,-0.1116zm-10.729,18.1767c-3.9,0 -6.605,-3.1029 -6.605,-7.0917c0,-3.9889 2.705,-7.094 6.605,-7.094c3.899,0 6.607,3.1029 6.607,7.094c0,3.991 -2.706,7.0917 -6.607,7.0917z" fill="#05662C" id="svg_8"/>
  <path d="m122.803,13.0518l-4.167,0c-0.092,0.0067 -0.179,0.0464 -0.244,0.1117c-0.065,0.0654 -0.104,0.1521 -0.11,0.244l0,2.6338c-1.241,-1.7871 -3.888,-3.4324 -7.094,-3.4324c-6.075,0 -10.692,5.1868 -10.692,11.5279c0,6.341 4.611,11.5256 10.692,11.5256c3.206,0 5.853,-1.6431 7.094,-3.4302l0,2.6316c0.006,0.0921 0.045,0.179 0.11,0.2445c0.065,0.0654 0.152,0.105 0.244,0.1112l4.167,0c0.092,-0.0062 0.179,-0.0458 0.244,-0.1112c0.065,-0.0655 0.104,-0.1524 0.11,-0.2445l0,-21.4563c-0.006,-0.0919 -0.045,-0.1786 -0.11,-0.244c-0.065,-0.0653 -0.152,-0.105 -0.244,-0.1117zm-10.729,18.1767c-3.901,0 -6.605,-3.1029 -6.605,-7.0917c0,-3.9889 2.704,-7.094 6.605,-7.094c3.902,0 6.605,3.1029 6.605,7.094c0,3.991 -2.712,7.0917 -6.614,7.0917l0.009,0z" fill="#05662C" id="svg_9"/>
  <path d="m140.838,13.0522l-4.166,0c-0.196,0 -0.356,0.1593 -0.356,0.3557l0,21.4541c0,0.1964 0.16,0.3557 0.356,0.3557l4.166,0c0.196,0 0.355,-0.1593 0.355,-0.3557l0,-21.4541c0,-0.1964 -0.159,-0.3557 -0.355,-0.3557z" fill="#05662C" id="svg_10"/>
  <path d="m131.836,5.11816l-4.166,0c-0.196,0 -0.356,0.15924 -0.356,0.35568l0,29.39026c0,0.1964 0.16,0.3557 0.356,0.3557l4.166,0c0.196,0 0.355,-0.1593 0.355,-0.3557l0,-29.39026c0,-0.19644 -0.159,-0.35568 -0.355,-0.35568z" fill="#05662C" id="svg_11"/>
 </g>

</svg>