<svg width="130" height="27" viewBox="0 0 130 27" fill="none" xmlns="http://www.w3.org/2000/svg">
<path d="M14.2419 1.01007L8.24103 3.47305C8.08363 3.5343 7.9488 3.64236 7.85473 3.78264C7.76067 3.92293 7.71188 4.08869 7.71498 4.25756V10.9791L12.4631 9.07255C13.2038 8.78974 13.8393 8.28548 14.283 7.62845C14.7267 6.97143 14.9571 6.19357 14.9428 5.40087V1.48746C14.9497 1.40161 14.9337 1.31546 14.8965 1.23777C14.8593 1.16008 14.8022 1.09361 14.731 1.04513C14.6599 0.996638 14.5771 0.967855 14.4912 0.961698C14.4053 0.955541 14.3193 0.972227 14.2419 1.01007Z" fill="#7DDF20"/>
<path d="M0.426043 14.512V18.132C0.426043 23.0655 4.00041 26.6384 8.94007 26.6384H14.2902C14.3777 26.6414 14.4648 26.6263 14.5462 26.5942C14.6276 26.5621 14.7015 26.5136 14.7634 26.4517C14.8253 26.3899 14.8738 26.3159 14.9059 26.2345C14.938 26.1531 14.953 26.066 14.95 25.9786V20.0355C14.953 19.9479 14.938 19.8608 14.9059 19.7793C14.8738 19.6978 14.8253 19.6238 14.7635 19.5618C14.7016 19.4998 14.6277 19.4512 14.5463 19.4189C14.4649 19.3866 14.3777 19.3714 14.2902 19.3741H8.81843C8.67225 19.3794 8.52654 19.3546 8.3904 19.301C8.25426 19.2475 8.13062 19.1665 8.02718 19.0631C7.92375 18.9597 7.84275 18.836 7.78923 18.6999C7.73572 18.5637 7.71085 18.418 7.71617 18.2719V10.9741L0.955126 13.726C0.796266 13.7859 0.659985 13.8937 0.56518 14.0346C0.470376 14.1754 0.42175 14.3423 0.426043 14.512Z" fill="#05662C"/>
<path d="M44.2257 6.93213C39.654 6.93213 36.1328 10.4852 36.1328 14.9642C36.1328 19.4432 39.654 22.9947 44.2257 22.9947C48.7974 22.9947 52.3186 19.4432 52.3186 14.9642C52.3186 10.4852 48.7974 6.93213 44.2257 6.93213ZM44.2257 19.8446C41.4769 19.8446 39.5612 17.7161 39.5612 14.9642C39.5612 12.2123 41.4769 10.0838 44.2257 10.0838C46.9441 10.0838 48.8582 12.2123 48.8582 14.9642C48.8582 17.7161 46.9441 19.8446 44.2257 19.8446Z" fill="#05662C"/>
<path d="M68.5356 18.6085L66.0027 17.2493C65.9729 17.2319 65.9398 17.2212 65.9054 17.218C65.8711 17.2149 65.8366 17.2194 65.8042 17.2311C65.7718 17.2429 65.7424 17.2617 65.7181 17.2861C65.6938 17.3105 65.6752 17.34 65.6636 17.3724C65.2761 18.1248 64.6869 18.7544 63.9619 19.191C63.237 19.6276 62.4049 19.8539 61.5586 19.8446C58.8083 19.8446 56.8622 17.7161 56.8622 14.9642C56.8622 12.2123 58.8083 10.0838 61.5586 10.0838C62.4049 10.0733 63.2373 10.2989 63.9625 10.7354C64.6876 11.1718 65.2767 11.8017 65.6636 12.5544C65.675 12.587 65.6935 12.6167 65.7177 12.6413C65.742 12.6659 65.7714 12.6848 65.8039 12.6966C65.8363 12.7083 65.871 12.7128 65.9054 12.7095C65.9398 12.7062 65.973 12.6953 66.0027 12.6776L68.5356 11.3184C68.5664 11.3048 68.5938 11.2845 68.6157 11.259C68.6377 11.2335 68.6537 11.2034 68.6626 11.1709C68.6715 11.1384 68.673 11.1044 68.6671 11.0713C68.6611 11.0381 68.6479 11.0067 68.6283 10.9793C67.2691 8.50722 64.6754 6.93213 61.5556 6.93213C56.9215 6.93213 53.4004 10.3925 53.4004 14.9642C53.4004 19.5359 56.9215 22.9947 61.5556 22.9947C64.6754 22.9947 67.3011 21.4197 68.6603 18.9171C68.6838 18.8596 68.6839 18.7951 68.6606 18.7375C68.6373 18.6799 68.5925 18.6336 68.5356 18.6085Z" fill="#05662C"/>
<path d="M35.7336 19.5967H27.8277V7.48854C27.8231 7.42433 27.7955 7.36393 27.75 7.31842C27.7045 7.2729 27.6441 7.24531 27.5799 7.24072H24.676C24.6119 7.24535 24.5517 7.27299 24.5065 7.31854C24.4612 7.36408 24.4339 7.42447 24.4297 7.48854V19.8445C24.4297 21.6051 25.5107 22.6861 27.2712 22.6861H35.7336C35.7977 22.6818 35.8581 22.6542 35.9034 22.6086C35.9488 22.563 35.9759 22.5024 35.9799 22.4382V19.8445C35.9759 19.7803 35.9488 19.7198 35.9034 19.6742C35.8581 19.6285 35.7977 19.601 35.7336 19.5967Z" fill="#05662C"/>
<path d="M112.646 19.597H104.541L112.522 10.1145C112.603 10.0196 112.647 9.89862 112.646 9.77397V7.49343C112.641 7.42911 112.614 7.36853 112.568 7.32295C112.523 7.27737 112.462 7.24988 112.398 7.24561H100.539C100.475 7.24988 100.414 7.27737 100.368 7.32295C100.323 7.36853 100.295 7.42911 100.291 7.49343V10.0887C100.295 10.1528 100.323 10.2132 100.369 10.2586C100.414 10.3039 100.475 10.3311 100.539 10.335H108.252L100.291 19.8494C100.211 19.9442 100.167 20.0644 100.168 20.1884V22.4386C100.172 22.5028 100.199 22.5633 100.244 22.6089C100.29 22.6545 100.35 22.6821 100.414 22.6864H112.647C112.711 22.6821 112.772 22.6545 112.817 22.6089C112.862 22.5633 112.889 22.5028 112.893 22.4386V19.8448C112.889 19.7804 112.862 19.7196 112.816 19.674C112.771 19.6284 112.71 19.601 112.646 19.597Z" fill="#05662C"/>
<path d="M97.6346 1.7124H94.7307C94.6668 1.71668 94.6066 1.744 94.5613 1.78929C94.516 1.83459 94.4887 1.89478 94.4844 1.9587V4.92492C94.4887 4.98884 94.516 5.04903 94.5613 5.09433C94.6066 5.13962 94.6668 5.16695 94.7307 5.17122H95.842C96.1121 5.17988 96.3811 5.13307 96.6324 5.03368C96.8837 4.93428 97.1119 4.78442 97.303 4.59334C97.4941 4.40227 97.6439 4.17404 97.7433 3.92277C97.8427 3.67149 97.8895 3.4025 97.8809 3.13242V1.9587C97.8766 1.89478 97.8493 1.83459 97.804 1.78929C97.7587 1.744 97.6985 1.71668 97.6346 1.7124Z" fill="#05662C"/>
<path d="M129.326 7.24076H126.422C126.358 7.24539 126.298 7.27303 126.252 7.31858C126.207 7.36412 126.18 7.42451 126.176 7.48858V9.32366C125.312 8.07848 123.468 6.93213 121.233 6.93213C117.002 6.93213 113.783 10.546 113.783 14.9642C113.783 19.3824 116.996 22.9947 121.233 22.9947C123.468 22.9947 125.312 21.8499 126.176 20.6047V22.4383C126.18 22.5025 126.207 22.563 126.252 22.6086C126.297 22.6543 126.358 22.6818 126.422 22.6861H129.326C129.39 22.6818 129.451 22.6543 129.496 22.6088C129.542 22.5632 129.569 22.5026 129.574 22.4383V7.48858C129.569 7.42437 129.542 7.36397 129.496 7.31846C129.45 7.27294 129.39 7.24535 129.326 7.24076ZM121.85 19.9054C119.133 19.9054 117.248 17.7434 117.248 14.9642C117.248 12.185 119.133 10.0215 121.85 10.0215C124.567 10.0215 126.454 12.1835 126.454 14.9642C126.454 17.7449 124.569 19.9054 121.85 19.9054Z" fill="#05662C"/>
<path d="M85.068 7.24076H82.1642C82.1001 7.24539 82.0399 7.27303 81.9946 7.31858C81.9493 7.36412 81.9221 7.42451 81.9179 7.48858V9.32366C81.0528 8.07848 79.2086 6.93213 76.9752 6.93213C72.7425 6.93213 69.5254 10.546 69.5254 14.9642C69.5254 19.3824 72.7379 22.9947 76.9752 22.9947C79.2086 22.9947 81.0528 21.8499 81.9179 20.6047V22.4383C81.9218 22.5025 81.9489 22.563 81.9943 22.6086C82.0396 22.6543 82.1 22.6818 82.1642 22.6861H85.068C85.1322 22.6818 85.1926 22.6543 85.2379 22.6086C85.2833 22.563 85.3104 22.5025 85.3143 22.4383V7.48858C85.3101 7.42451 85.2828 7.36412 85.2376 7.31858C85.1923 7.27303 85.1321 7.24539 85.068 7.24076ZM77.5924 19.9054C74.874 19.9054 72.9903 17.7434 72.9903 14.9642C72.9903 12.185 74.874 10.0215 77.5924 10.0215C80.3108 10.0215 82.1946 12.1835 82.1946 14.9642C82.1946 17.7449 80.3048 19.9054 77.5863 19.9054H77.5924Z" fill="#05662C"/>
<path d="M97.6346 7.24072H94.7322C94.5953 7.24072 94.4844 7.35168 94.4844 7.48854V22.4367C94.4844 22.5736 94.5953 22.6845 94.7322 22.6845H97.6346C97.7714 22.6845 97.8824 22.5736 97.8824 22.4367V7.48854C97.8824 7.35168 97.7714 7.24072 97.6346 7.24072Z" fill="#05662C"/>
<path d="M91.3631 1.7124H88.4607C88.3238 1.7124 88.2129 1.82335 88.2129 1.96022V22.438C88.2129 22.5748 88.3238 22.6858 88.4607 22.6858H91.3631C91.4999 22.6858 91.6109 22.5748 91.6109 22.438V1.96022C91.6109 1.82335 91.4999 1.7124 91.3631 1.7124Z" fill="#05662C"/>
</svg>
