<svg width="160" height="54" viewBox="0 0 160 54" fill="none" xmlns="http://www.w3.org/2000/svg">
<path d="M138.684 25.2497H143.327V20.6017C143.327 20.5706 143.333 20.5399 143.345 20.5111C143.356 20.4824 143.374 20.4563 143.395 20.4342C143.417 20.4122 143.443 20.3947 143.472 20.3828C143.501 20.3709 143.531 20.3647 143.562 20.3647H146.047C146.109 20.3652 146.169 20.3904 146.213 20.4348C146.257 20.4791 146.282 20.5391 146.282 20.6017V25.2497H150.93C150.992 25.2497 151.052 25.2745 151.096 25.3186C151.14 25.3627 151.165 25.4225 151.165 25.4849V27.9395C151.165 28.0019 151.14 28.0617 151.096 28.1059C151.052 28.15 150.992 28.1747 150.93 28.1747H146.289V32.8228C146.289 32.8536 146.283 32.8842 146.271 32.9128C146.259 32.9413 146.242 32.9672 146.22 32.9891C146.198 33.0109 146.172 33.0282 146.144 33.04C146.115 33.0519 146.085 33.0579 146.054 33.0579H143.569C143.538 33.0582 143.508 33.0523 143.479 33.0405C143.45 33.0288 143.424 33.0115 143.403 32.9896C143.381 32.9677 143.363 32.9417 143.352 32.913C143.34 32.8844 143.334 32.8537 143.334 32.8228V28.1747H138.684C138.622 28.1743 138.563 28.1494 138.519 28.1054C138.475 28.0613 138.45 28.0018 138.449 27.9395V25.4849C138.45 25.4227 138.475 25.3631 138.519 25.3191C138.563 25.2751 138.622 25.2501 138.684 25.2497Z" fill="#05662C"/>
<path d="M51.6606 20.082C47.1903 20.082 43.7461 23.5558 43.7461 27.9356C43.7461 32.3153 47.1903 35.7874 51.6606 35.7874C56.1309 35.7874 59.5734 32.3136 59.5734 27.9356C59.5734 23.5576 56.1309 20.082 51.6606 20.082ZM51.6606 32.7073C48.9725 32.7073 47.0997 30.6167 47.0997 27.9356C47.0997 25.2544 48.9725 23.1621 51.6606 23.1621C54.3174 23.1621 56.1902 25.2527 56.1902 27.9356C56.1902 30.6185 54.3174 32.7073 51.6606 32.7073Z" fill="#05662C"/>
<path d="M75.4303 31.4985L72.9547 30.1693C72.9255 30.1522 72.8928 30.1418 72.8591 30.1388C72.8254 30.1358 72.7914 30.1403 72.7597 30.152C72.7279 30.1636 72.6991 30.1821 72.6753 30.2062C72.6515 30.2303 72.6333 30.2593 72.622 30.2912C72.2433 31.0277 71.6667 31.644 70.957 32.0709C70.2474 32.4977 69.4327 32.7182 68.6046 32.7076C65.9165 32.7076 64.0141 30.617 64.0141 27.9358C64.0141 25.2547 65.9165 23.1624 68.6046 23.1624C69.4327 23.1518 70.2474 23.3722 70.957 23.7991C71.6667 24.2259 72.2433 24.8422 72.622 25.5787C72.6333 25.6107 72.6515 25.6397 72.6753 25.6638C72.6991 25.6878 72.7279 25.7064 72.7597 25.718C72.7914 25.7297 72.8254 25.7342 72.8591 25.7312C72.8928 25.7282 72.9255 25.7178 72.9547 25.7007L75.4303 24.3697C75.4604 24.3562 75.4871 24.3362 75.5086 24.3112C75.53 24.2861 75.5457 24.2566 75.5543 24.2248C75.563 24.1929 75.5645 24.1596 75.5587 24.1271C75.5529 24.0946 75.54 24.0638 75.5209 24.037C74.1916 21.6206 71.6551 20.0806 68.6046 20.0806C64.0751 20.0806 60.6309 23.4638 60.6309 27.9341C60.6309 32.4044 64.0733 35.7859 68.6046 35.7859C71.6551 35.7859 74.223 34.2459 75.5522 31.7999C75.5746 31.7436 75.5745 31.6809 75.5517 31.6248C75.529 31.5686 75.4855 31.5234 75.4303 31.4985Z" fill="#05662C"/>
<path d="M22.3412 14.2917L16.4719 16.7045C16.3166 16.7632 16.1832 16.8682 16.0897 17.0053C15.9962 17.1425 15.9472 17.3051 15.9493 17.471V24.0389L20.5921 22.1748C21.3163 21.8981 21.9377 21.405 22.3716 20.7625C22.8055 20.12 23.0309 19.3594 23.0171 18.5843V14.7516C23.0216 14.6694 23.0049 14.5875 22.9684 14.5138C22.9319 14.4401 22.877 14.377 22.809 14.3307C22.741 14.2845 22.6622 14.2566 22.5802 14.2497C22.4983 14.2429 22.4159 14.2573 22.3412 14.2917Z" fill="#00A989"/>
<path d="M43.3546 32.4656H35.623V20.6191C35.6186 20.5564 35.5916 20.4973 35.5471 20.4528C35.5027 20.4083 35.4436 20.3814 35.3809 20.377H32.5412C32.4786 20.3815 32.4198 20.4085 32.3756 20.453C32.3314 20.4975 32.3048 20.5565 32.3008 20.6191V32.7008C32.3008 34.422 33.3565 35.4795 35.0795 35.4795H43.3546C43.4174 35.4751 43.4764 35.4481 43.5209 35.4036C43.5654 35.3592 43.5923 35.3001 43.5968 35.2374V32.7078C43.5927 32.6449 43.5659 32.5857 43.5213 32.5411C43.4768 32.4966 43.4175 32.4697 43.3546 32.4656Z" fill="#05662C"/>
<path d="M8.83409 27.4937V31.0337C8.83409 35.8577 12.3288 39.3524 17.151 39.3524H22.3774C22.4631 39.3554 22.5485 39.3406 22.6282 39.3092C22.7079 39.2777 22.7803 39.2302 22.841 39.1696C22.9016 39.109 22.9491 39.0366 22.9805 38.9569C23.012 38.8771 23.0267 38.7918 23.0238 38.7061V32.9065C23.0267 32.8209 23.012 32.7355 22.9805 32.6558C22.9491 32.5761 22.9016 32.5036 22.841 32.443C22.7803 32.3824 22.7079 32.3349 22.6282 32.3035C22.5485 32.272 22.4631 32.2573 22.3774 32.2602H17.0378C16.8949 32.2648 16.7527 32.2401 16.6197 32.1875C16.4868 32.1349 16.3661 32.0557 16.265 31.9546C16.164 31.8535 16.0847 31.7328 16.0321 31.5999C15.9796 31.467 15.9548 31.3247 15.9594 31.1818V24.0391L9.35673 26.7307C9.2013 26.788 9.06752 26.8923 8.97389 27.029C8.88027 27.1657 8.83142 27.3281 8.83409 27.4937Z" fill="#05662C"/>
<path d="M118.563 32.465H110.638L118.441 23.1934C118.52 23.1006 118.563 22.9825 118.563 22.8606V20.6255C118.559 20.5627 118.532 20.5037 118.487 20.4592C118.443 20.4147 118.384 20.3878 118.321 20.3833H106.723C106.661 20.3874 106.601 20.4142 106.557 20.4588C106.512 20.5033 106.485 20.5626 106.481 20.6255V23.162C106.485 23.2249 106.512 23.2841 106.557 23.3287C106.601 23.3732 106.661 23.4001 106.723 23.4042H114.265L106.481 32.7072C106.402 32.8 106.359 32.918 106.359 33.0399V35.2437C106.364 35.3065 106.391 35.3655 106.435 35.41C106.48 35.4545 106.539 35.4814 106.602 35.4859H118.563C118.626 35.4814 118.684 35.4544 118.729 35.4098C118.773 35.3653 118.799 35.3063 118.803 35.2437V32.7072C118.799 32.6446 118.773 32.5856 118.729 32.541C118.684 32.4965 118.626 32.4695 118.563 32.465Z" fill="#05662C"/>
<path d="M103.883 14.978H101.043C100.98 14.9821 100.921 15.009 100.876 15.0535C100.832 15.0981 100.805 15.1573 100.801 15.2202V18.1191C100.805 18.1818 100.832 18.2409 100.877 18.2854C100.921 18.3299 100.98 18.3568 101.043 18.3613H102.13C102.394 18.3694 102.658 18.3235 102.903 18.2262C103.149 18.1289 103.373 17.9823 103.56 17.7955C103.747 17.6086 103.894 17.3855 103.992 17.1397C104.09 16.894 104.136 16.6309 104.128 16.3665V15.2202C104.124 15.1567 104.097 15.097 104.051 15.0524C104.006 15.0078 103.946 14.9813 103.883 14.978Z" fill="#05662C"/>
<path d="M134.873 20.3834H132.033C131.97 20.3879 131.911 20.4148 131.867 20.4593C131.822 20.5038 131.795 20.5628 131.791 20.6256V22.42C130.948 21.2005 129.145 20.082 126.958 20.082C122.821 20.082 119.68 23.6151 119.68 27.9356C119.68 32.2561 122.816 35.7874 126.958 35.7874C129.145 35.7874 130.948 34.6672 131.791 33.4494V35.2438C131.795 35.3066 131.822 35.3656 131.867 35.4101C131.911 35.4546 131.97 35.4815 132.033 35.486H134.873C134.936 35.4815 134.995 35.4546 135.039 35.4101C135.084 35.3656 135.111 35.3066 135.115 35.2438V20.6256C135.111 20.5628 135.084 20.5038 135.039 20.4593C134.995 20.4148 134.936 20.3879 134.873 20.3834ZM127.556 32.7665C124.899 32.7665 123.056 30.6533 123.056 27.9356C123.056 25.2178 124.899 23.1029 127.556 23.1029C130.213 23.1029 132.056 25.2161 132.056 27.9356C132.056 30.655 130.221 32.7665 127.563 32.7665H127.556Z" fill="#05662C"/>
<path d="M91.5857 20.3834H88.7461C88.6833 20.3879 88.6243 20.4148 88.5798 20.4593C88.5353 20.5038 88.5084 20.5628 88.5039 20.6256V22.42C87.659 21.2005 85.8559 20.082 83.6712 20.082C79.5337 20.082 76.3926 23.6151 76.3926 27.9356C76.3926 32.2561 79.5284 35.7874 83.6712 35.7874C85.8559 35.7874 87.659 34.6672 88.5039 33.4494V35.2438C88.5084 35.3066 88.5353 35.3656 88.5798 35.4101C88.6243 35.4546 88.6833 35.4815 88.7461 35.486H91.5857C91.6483 35.4815 91.7071 35.4545 91.7513 35.41C91.7955 35.3654 91.8221 35.3064 91.8262 35.2438V20.6256C91.8221 20.563 91.7955 20.504 91.7513 20.4594C91.7071 20.4149 91.6483 20.3879 91.5857 20.3834ZM84.2688 32.7665C81.6103 32.7665 79.7688 30.6533 79.7688 27.9356C79.7688 25.2178 81.6103 23.1029 84.2688 23.1029C86.9273 23.1029 88.7687 25.2161 88.7687 27.9356C88.7687 30.655 86.9395 32.7665 84.281 32.7665H84.2688Z" fill="#05662C"/>
<path d="M103.881 20.3833H101.043C100.909 20.3833 100.801 20.4917 100.801 20.6255V35.2437C100.801 35.3775 100.909 35.4859 101.043 35.4859H103.881C104.015 35.4859 104.123 35.3775 104.123 35.2437V20.6255C104.123 20.4917 104.015 20.3833 103.881 20.3833Z" fill="#05662C"/>
<path d="M97.75 14.978H94.9121C94.7783 14.978 94.6699 15.0864 94.6699 15.2202V35.2443C94.6699 35.378 94.7783 35.4864 94.9121 35.4864H97.75C97.8838 35.4864 97.9922 35.378 97.9922 35.2443V15.2202C97.9922 15.0864 97.8838 14.978 97.75 14.978Z" fill="#05662C"/>
</svg>
