<svg width="160" height="54" viewBox="0 0 160 54" fill="none" xmlns="http://www.w3.org/2000/svg">
<path d="M40.1051 22.415L41.7173 21.5194C41.9615 21.3891 42.0918 21.438 42.1569 21.552C42.8246 22.7244 43.7528 23.3107 44.9904 23.3107C46.0326 23.3107 46.9282 22.7896 46.9282 21.9591C46.9282 21.2426 46.0814 20.6889 44.4042 20.347C43.0526 20.0701 42.0104 19.5816 41.3427 18.8814C40.7728 18.2626 40.4634 17.5298 40.4634 16.6505C40.4634 15.5432 40.9031 14.6475 41.7987 13.931C42.6943 13.2145 43.7365 12.8726 44.9252 12.8726C47.0422 12.8726 48.5566 13.7193 49.4196 15.4292C49.4848 15.5432 49.4359 15.6897 49.3219 15.7386L47.6121 16.6993C47.4981 16.7645 47.3516 16.7156 47.2864 16.6016C46.7328 15.6409 45.9186 15.1523 44.8275 15.1523C43.9808 15.1523 43.1014 15.6734 43.1014 16.3411C43.1014 17.139 43.7854 17.5624 45.3812 17.9043C48.1658 18.5231 49.6313 19.8584 49.6313 21.7637C49.6313 22.8873 49.1917 23.8155 48.3449 24.5157C47.4981 25.2322 46.3745 25.5741 44.9904 25.5741C42.6292 25.5741 40.9682 24.6134 40.0074 22.6919C39.9586 22.6267 40.0074 22.4802 40.1051 22.415Z" fill="#05662C"/>
<path d="M53.4903 20.0698C53.5066 20.9817 53.8811 21.7471 54.5976 22.3659C55.3141 22.9684 56.1446 23.2615 57.0728 23.2615C58.5221 23.2615 59.5806 22.6915 60.2645 21.5679C60.3296 21.454 60.4762 21.4051 60.5902 21.4865L62.0557 22.4636C62.2837 22.6101 62.3163 22.7567 62.2512 22.8544C61.1927 24.6456 59.2549 25.6227 57.1217 25.6227C55.2978 25.6227 53.7671 25.0202 52.5296 23.7989C51.3082 22.5776 50.6895 21.0469 50.6895 19.223C50.6895 17.4481 51.292 15.9662 52.4644 14.7123C53.6369 13.4748 55.1024 12.856 56.8774 12.856C58.7338 12.856 60.2156 13.4259 61.2741 14.5984C62.3326 15.7708 62.8537 17.2852 62.8537 19.1905C62.8537 19.451 62.8374 19.6464 62.8211 19.8256C62.8048 19.9558 62.7071 20.0372 62.5931 20.0372L53.4903 20.0698ZM53.6206 18.0017H60.0528C59.9551 16.2756 58.6035 15.2171 56.8611 15.2171C55.1839 15.2171 53.8811 16.3245 53.6206 18.0017Z" fill="#05662C"/>
<path d="M73.0477 25.3949C72.9174 25.3949 72.8197 25.2972 72.8197 25.1669V18.5067C72.8197 16.6666 71.9892 15.4453 70.1817 15.4453C68.5207 15.4453 67.4948 16.7155 67.4948 18.5718V25.1669C67.4948 25.2972 67.3971 25.3949 67.2669 25.3949H65.0034C64.8731 25.3949 64.7754 25.2972 64.7754 25.1669V13.3609C64.7754 13.2307 64.8731 13.133 65.0034 13.133H67.2017C67.332 13.133 67.4297 13.2307 67.4297 13.3609V14.7777C68.3905 13.4912 69.6118 12.8398 71.0773 12.8398C72.8523 12.8398 74.1062 13.5075 74.8715 14.8591C76.1417 13.4749 77.3304 12.8398 79.1542 12.8398C82.1179 12.8398 83.6161 14.8591 83.6161 17.8065V25.1669C83.6161 25.2972 83.5184 25.3949 83.3881 25.3949H81.1246C80.9943 25.3949 80.8966 25.2972 80.8966 25.1669V18.4904C80.8966 16.634 80.0987 15.4616 78.2749 15.4616C76.5976 15.4616 75.5555 16.6992 75.5555 18.5718V25.1669C75.5555 25.2972 75.4578 25.3949 75.3275 25.3949H73.0477Z" fill="#05662C"/>
<path d="M88.6491 25.3946H86.3856C86.2553 25.3946 86.1576 25.2969 86.1576 25.1666V13.3607C86.1576 13.2304 86.2553 13.1327 86.3856 13.1327H88.6491C88.7793 13.1327 88.877 13.2304 88.877 13.3607V25.1666C88.8933 25.2969 88.7793 25.3946 88.6491 25.3946ZM88.7305 11.1949H86.3042C86.1739 11.1949 86.0762 11.0972 86.0762 10.9669V8.67085C86.0762 8.54058 86.1739 8.44287 86.3042 8.44287H88.7305C88.8607 8.44287 88.9585 8.54058 88.9585 8.67085V10.9669C88.9585 11.0972 88.8607 11.1949 88.7305 11.1949Z" fill="#05662C"/>
<path d="M100.033 25.395C99.9032 25.395 99.8055 25.2973 99.8055 25.167V18.5231C99.8055 16.683 98.9099 15.4617 97.0861 15.4617C95.36 15.4617 94.2526 16.6993 94.2526 18.572V25.167C94.2526 25.2973 94.1549 25.395 94.0247 25.395H91.7612C91.6309 25.395 91.5332 25.2973 91.5332 25.167V13.3611C91.5332 13.2308 91.6309 13.1331 91.7612 13.1331H93.9595C94.0898 13.1331 94.1875 13.2308 94.1875 13.3611V14.7778C95.132 13.5076 96.3696 12.8726 97.9328 12.8726C100.945 12.8726 102.525 14.8918 102.525 17.8392V25.167C102.525 25.2973 102.427 25.395 102.297 25.395H100.033Z" fill="#05662C"/>
<path d="M115.321 14.6965C116.591 15.9178 117.21 17.416 117.21 19.2072C117.21 21.031 116.591 22.5455 115.321 23.783C114.083 25.0044 112.569 25.6231 110.745 25.6231C108.953 25.6231 107.406 25.0044 106.153 23.783C104.882 22.5617 104.264 21.0473 104.264 19.2561C104.264 17.4648 104.915 15.9504 106.169 14.7291C107.439 13.5078 108.97 12.889 110.761 12.889C112.552 12.8727 114.067 13.4752 115.321 14.6965ZM107.081 19.1909C107.081 20.2657 107.423 21.1939 108.123 21.9755C108.807 22.7409 109.703 23.1317 110.794 23.1317C111.868 23.1317 112.764 22.7571 113.432 22.0081C114.099 21.2427 114.441 20.3308 114.441 19.2561C114.441 18.1813 114.099 17.2531 113.399 16.5041C112.731 15.7387 111.836 15.3805 110.761 15.3805C109.686 15.3805 108.791 15.755 108.09 16.5041C107.423 17.2206 107.081 18.1162 107.081 19.1909Z" fill="#05662C"/>
<path d="M120.126 13.2794L123.676 22.203L127.226 13.2794C127.259 13.1817 127.356 13.1328 127.438 13.1328H129.799C129.962 13.1328 130.076 13.3119 130.011 13.4585L125.077 25.2645C125.044 25.3459 124.946 25.411 124.865 25.411H122.439C122.341 25.411 122.259 25.3622 122.227 25.2645L117.228 13.4585C117.162 13.2957 117.276 13.1328 117.439 13.1328H119.882C119.996 13.1328 120.077 13.1817 120.126 13.2794Z" fill="#05662C"/>
<path d="M141.1 14.6965C142.37 15.9178 142.989 17.416 142.989 19.2072C142.989 21.031 142.37 22.5455 141.1 23.783C139.862 25.0044 138.348 25.6231 136.524 25.6231C134.733 25.6231 133.186 25.0044 131.932 23.783C130.662 22.5617 130.043 21.0473 130.043 19.2561C130.043 17.4648 130.694 15.9504 131.948 14.7291C133.218 13.5078 134.749 12.889 136.54 12.889C138.315 12.8727 139.83 13.4752 141.1 14.6965ZM132.844 19.1909C132.844 20.2657 133.186 21.1939 133.886 21.9755C134.57 22.7409 135.466 23.1317 136.557 23.1317C137.648 23.1317 138.527 22.7571 139.195 22.0081C139.862 21.2427 140.204 20.3308 140.204 19.2561C140.204 18.1813 139.862 17.2531 139.162 16.5041C138.494 15.7387 137.599 15.3805 136.524 15.3805C135.449 15.3805 134.554 15.755 133.853 16.5041C133.186 17.2206 132.844 18.1162 132.844 19.1909Z" fill="#05662C"/>
<path d="M143.916 22.415L145.528 21.5194C145.772 21.3891 145.903 21.438 145.968 21.552C146.635 22.7244 147.564 23.3107 148.801 23.3107C149.843 23.3107 150.739 22.7896 150.739 21.9591C150.739 21.2426 149.892 20.6889 148.215 20.347C146.863 20.0701 145.821 19.5816 145.154 18.8814C144.584 18.2626 144.274 17.5298 144.274 16.6505C144.274 15.5432 144.714 14.6475 145.609 13.931C146.505 13.2145 147.547 12.8726 148.736 12.8726C150.853 12.8726 152.367 13.7193 153.23 15.4292C153.296 15.5432 153.247 15.6897 153.133 15.7386L151.423 16.6993C151.309 16.7645 151.162 16.7156 151.097 16.6016C150.544 15.6409 149.729 15.1523 148.638 15.1523C147.792 15.1523 146.912 15.6734 146.912 16.3411C146.912 17.139 147.596 17.5624 149.192 17.9043C151.977 18.5231 153.442 19.8584 153.442 21.7637C153.442 22.8873 153.002 23.8155 152.156 24.5157C151.309 25.2322 150.185 25.5741 148.801 25.5741C146.44 25.5741 144.779 24.6134 143.818 22.6919C143.753 22.6267 143.802 22.4802 143.916 22.415Z" fill="#05662C"/>
<path d="M116.933 32.8037H114.702C114.621 32.8037 114.539 32.8688 114.539 32.9665V34.3507C113.888 33.4225 112.504 32.5757 110.843 32.5757C107.683 32.5757 105.273 35.2788 105.273 38.5845C105.273 41.8902 107.683 44.5933 110.843 44.5933C112.52 44.5933 113.888 43.7303 114.539 42.8184V44.2025C114.539 44.2839 114.604 44.3654 114.702 44.3654H116.933C117.014 44.3654 117.096 44.3002 117.096 44.2025V32.9502C117.096 32.8851 117.014 32.8037 116.933 32.8037ZM111.315 42.2973C109.279 42.2973 107.879 40.6689 107.879 38.6008C107.879 36.5327 109.279 34.9043 111.315 34.9043C113.35 34.9043 114.767 36.5164 114.767 38.6008C114.767 40.6852 113.334 42.2973 111.315 42.2973Z" fill="#05662C"/>
<path d="M104.752 42.0689H98.678L104.703 34.8876C104.719 34.8713 104.736 34.8224 104.736 34.7899V32.9661C104.736 32.8846 104.671 32.8032 104.573 32.8032H95.6329C95.5515 32.8032 95.4701 32.8684 95.4701 32.9661V34.969C95.4701 35.0504 95.5352 35.1318 95.6329 35.1318H101.446L95.4212 42.3294C95.4049 42.362 95.3887 42.3945 95.3887 42.4271V44.2184C95.3887 44.2998 95.4538 44.3812 95.5515 44.3812H104.752C104.833 44.3812 104.915 44.3161 104.915 44.2184V42.2154C104.915 42.134 104.85 42.0689 104.752 42.0689Z" fill="#05662C"/>
<path d="M93.7297 32.8032H91.4988C91.4174 32.8032 91.3359 32.8684 91.3359 32.9661V44.3324C91.3359 44.2998 91.4011 44.3649 91.4988 44.3649H93.7297C93.8111 44.3649 93.8926 44.2998 93.8926 44.2021V32.9498C93.8926 32.8846 93.8274 32.8032 93.7297 32.8032Z" fill="#05662C"/>
<path d="M93.7779 28.6675H91.4656C91.3842 28.6675 91.3027 28.7326 91.3027 28.8303V31.2404C91.3027 31.3218 91.3679 31.4032 91.4656 31.4032H92.2798C93.2568 31.4032 93.9245 30.817 93.9245 29.8236V28.8303C93.9245 28.7326 93.8593 28.6675 93.7779 28.6675Z" fill="#05662C"/>
<path d="M89.2668 28.6675H87.0359C86.9545 28.6675 86.873 28.7326 86.873 28.8303V44.2188C86.873 44.3002 86.9382 44.3816 87.0359 44.3816H89.2668C89.3482 44.3816 89.4297 44.3165 89.4297 44.2188V28.8303C89.4297 28.7326 89.3645 28.6675 89.2668 28.6675Z" fill="#05662C"/>
<path d="M84.886 32.8037H82.655C82.5736 32.8037 82.4922 32.8688 82.4922 32.9665V34.3507C81.8408 33.4225 80.4567 32.5757 78.7957 32.5757C75.6366 32.5757 73.2266 35.2788 73.2266 38.5845C73.2266 41.8902 75.6366 44.5933 78.7957 44.5933C80.473 44.5933 81.8408 43.7303 82.4922 42.8184V44.2025C82.4922 44.2839 82.5573 44.3654 82.655 44.3654H84.886C84.9674 44.3654 85.0488 44.3002 85.0488 44.2025V32.9502C85.0488 32.8851 84.9674 32.8037 84.886 32.8037ZM79.268 42.2973C77.2324 42.2973 75.8157 40.6689 75.8157 38.6008C75.8157 36.5327 77.2162 34.9043 79.268 34.9043C81.3035 34.9043 82.7039 36.5164 82.7039 38.6008C82.7039 40.6852 81.3035 42.2973 79.268 42.2973Z" fill="#05662C"/>
<path d="M70.7677 40.2942C70.6862 40.2453 70.5886 40.2779 70.5397 40.3593C69.9535 41.4666 68.8624 42.2483 67.4457 42.2483C65.3776 42.2483 63.9121 40.6361 63.9284 38.5681C63.9446 36.4348 65.7196 34.7413 67.8365 34.953C69.0741 35.0833 70.0186 35.816 70.5397 36.8257C70.5723 36.9071 70.6862 36.9397 70.7677 36.8908L72.7055 35.8486C72.7869 35.7998 72.8195 35.7021 72.7706 35.6369C71.761 33.7643 69.8069 32.5918 67.462 32.5918C63.9935 32.5918 61.3555 35.181 61.3555 38.6006C61.3555 42.0203 63.9935 44.6095 67.462 44.6095C69.8069 44.6095 71.761 43.4207 72.7706 41.5643C72.8195 41.4829 72.7869 41.3852 72.7055 41.3526L70.7677 40.2942Z" fill="#05662C"/>
<path d="M54.5303 32.5757C51.1107 32.5757 48.4727 35.23 48.4727 38.5845C48.4727 41.939 51.1107 44.5933 54.5303 44.5933C57.95 44.5933 60.588 41.9228 60.588 38.5845C60.588 35.23 57.95 32.5757 54.5303 32.5757ZM54.5303 42.2484C52.4785 42.2484 51.0292 40.6526 51.0292 38.5845C51.0292 36.5164 52.4622 34.9206 54.5303 34.9206C56.5658 34.9206 57.9988 36.5164 57.9988 38.5845C57.9988 40.6526 56.5658 42.2484 54.5303 42.2484Z" fill="#05662C"/>
<path d="M48.1979 41.7928H43.1172V32.9832C43.1172 32.9017 43.0521 32.8203 42.9544 32.8203H40.5769C40.4792 32.8203 40.4141 32.8854 40.4141 32.9832V42.1022C40.4141 43.3724 41.44 44.3983 42.7101 44.3983H48.2141C48.2956 44.3983 48.377 44.3332 48.377 44.2355V41.9557C48.3607 41.858 48.2956 41.7928 48.1979 41.7928Z" fill="#05662C"/>
<path d="M28.3304 36.191V44.9518C28.3304 45.538 27.8582 46.0103 27.272 46.0103H19.1136C12.1766 46.0103 6.55859 40.3923 6.55859 33.4552V27.7069C6.55859 27.2673 6.81914 26.8765 7.22624 26.7136L17.4527 22.5938V33.4227C17.4527 34.3509 18.2017 35.1162 19.1462 35.1162H27.272C27.8582 35.1162 28.3304 35.6047 28.3304 36.191Z" fill="#05662C"/>
<path d="M28.3296 8.297V13.4265C28.3296 16.8461 26.75 18.8491 23.6561 20.103L17.4355 22.6107V12.368C17.4355 11.9283 17.6961 11.5375 18.1032 11.3747L27.3526 7.64563C27.8248 7.45023 28.3296 7.79219 28.3296 8.297Z" fill="#FF8026"/>
</svg>
