<svg width="153" height="45" viewBox="0 0 153 45" fill="none" xmlns="http://www.w3.org/2000/svg">
<path d="M23.257 3.04346L13.9857 6.84569C13.4801 7.05533 13.1738 7.50954 13.1738 8.0583V18.4415L20.507 15.4983C22.8932 14.5385 24.338 12.4011 24.338 9.82582V3.77513C24.3401 3.16883 23.8139 2.81532 23.257 3.04346Z" fill="#CBDB2A"/>
<path d="M1.91406 23.9002V29.4926C1.91406 37.1135 7.4345 42.6339 15.0554 42.6339H23.3196C23.9115 42.6339 24.3411 42.2044 24.3411 41.6124V32.4419C24.3411 31.8499 23.9115 31.4204 23.3196 31.4204H14.8787C13.8901 31.4204 13.1748 30.7052 13.1748 29.7166V18.4414L2.73 22.6937C2.2203 22.8993 1.91406 23.3514 1.91406 23.9002Z" fill="#00586F"/>
<path d="M59.6185 7.89453C54.7188 7.89453 50.9453 11.7009 50.9453 16.502C50.9453 21.3031 54.7188 25.1094 59.6185 25.1094C64.5183 25.1094 68.2917 21.3031 68.2917 16.502C68.2917 11.7009 64.5183 7.89453 59.6185 7.89453ZM59.6185 21.7326C56.6733 21.7326 54.6201 19.4492 54.6201 16.502C54.6201 13.5568 56.6733 11.2713 59.6185 11.2713C62.5308 11.2713 64.584 13.5547 64.584 16.502C64.584 19.4472 62.5329 21.7326 59.6185 21.7326Z" fill="#00586F"/>
<path d="M85.6713 20.409L82.9563 18.9518C82.8268 18.882 82.6583 18.919 82.5925 19.0834C81.7642 20.6392 80.2084 21.7326 78.1901 21.7326C75.2429 21.7326 73.1589 19.4492 73.1589 16.502C73.1589 13.5568 75.245 11.2713 78.1901 11.2713C80.2105 11.2713 81.7663 12.3647 82.5925 13.9206C82.6583 14.087 82.8268 14.122 82.9563 14.0521L85.6713 12.5949C85.8008 12.525 85.8707 12.3627 85.77 12.2311C84.3128 9.5819 81.532 7.89453 78.1901 7.89453C73.2246 7.89453 69.4512 11.6022 69.4512 16.502C69.4512 21.4017 73.2246 25.1094 78.1901 25.1094C81.5341 25.1094 84.3477 23.422 85.8049 20.7399C85.8707 20.6392 85.8008 20.4769 85.6713 20.409Z" fill="#00586F"/>
<path d="M50.5162 21.4676H42.0423V8.49072C42.0423 8.35918 41.9108 8.22559 41.7772 8.22559H38.6655C38.534 8.22559 38.4004 8.35712 38.4004 8.49072V21.7328C38.4004 23.6195 39.5596 24.7787 41.4463 24.7787H50.5162C50.6477 24.7787 50.7813 24.6471 50.7813 24.5135V21.7328C50.7813 21.5992 50.6477 21.4676 50.5162 21.4676Z" fill="#00586F"/>
<path d="M132.946 21.4676H124.26L132.814 11.3044C132.903 11.1975 132.946 11.0721 132.946 10.9406V8.49072C132.946 8.35918 132.814 8.22559 132.681 8.22559H119.969C119.837 8.22559 119.704 8.35712 119.704 8.49072V11.2715C119.704 11.403 119.835 11.5366 119.969 11.5366H128.235L119.704 21.7328C119.615 21.8417 119.572 21.965 119.572 22.0966V24.5135C119.572 24.6451 119.704 24.7787 119.837 24.7787H132.946C133.077 24.7787 133.211 24.6471 133.211 24.5135V21.7328C133.211 21.5992 133.077 21.4676 132.946 21.4676Z" fill="#00586F"/>
<path d="M116.857 2.2998H113.746C113.614 2.2998 113.48 2.43134 113.48 2.56494V5.74237C113.48 5.87391 113.612 6.0075 113.746 6.0075H114.938C116.195 6.0075 117.122 5.08058 117.122 3.82276V2.56494C117.122 2.4334 116.989 2.2998 116.857 2.2998Z" fill="#00586F"/>
<path d="M150.82 8.22543H147.708C147.577 8.22543 147.443 8.35697 147.443 8.49056V10.4574C146.518 9.12358 144.541 7.89453 142.147 7.89453C137.611 7.89453 134.168 11.7687 134.168 16.502C134.168 21.2352 137.611 25.1094 142.147 25.1094C144.541 25.1094 146.518 23.8824 147.443 22.5465V24.5134C147.443 24.6449 147.574 24.7785 147.708 24.7785H150.82C150.951 24.7785 151.085 24.647 151.085 24.5134V8.49056C151.083 8.35902 150.951 8.22543 150.82 8.22543ZM142.808 21.7984C139.896 21.7984 137.876 19.4821 137.876 16.502C137.876 13.5218 139.896 11.2056 142.808 11.2056C145.721 11.2056 147.741 13.5218 147.741 16.502C147.741 19.4821 145.721 21.7984 142.808 21.7984Z" fill="#00586F"/>
<path d="M103.384 8.22543H100.272C100.141 8.22543 100.007 8.35697 100.007 8.49056V10.4574C99.0825 9.12358 97.1053 7.89453 94.711 7.89453C90.175 7.89453 86.7324 11.7687 86.7324 16.502C86.7324 21.2352 90.175 25.1094 94.711 25.1094C97.1053 25.1094 99.0825 23.8824 100.007 22.5465V24.5134C100.007 24.6449 100.139 24.7785 100.272 24.7785H103.384C103.516 24.7785 103.649 24.647 103.649 24.5134V8.49056C103.647 8.35902 103.516 8.22543 103.384 8.22543ZM95.3727 21.7984C92.4604 21.7984 90.4401 19.4821 90.4401 16.502C90.4401 13.5218 92.4604 11.2056 95.3727 11.2056C98.2851 11.2056 100.305 13.5218 100.305 16.502C100.305 19.4821 98.2851 21.7984 95.3727 21.7984Z" fill="#00586F"/>
<path d="M116.857 8.22559H113.746C113.614 8.22559 113.48 8.35712 113.48 8.49072V24.5135C113.48 24.6451 113.612 24.7787 113.746 24.7787H116.857C116.989 24.7787 117.122 24.6471 117.122 24.5135V8.49072C117.122 8.35918 116.989 8.22559 116.857 8.22559Z" fill="#00586F"/>
<path d="M110.133 2.2998H107.021C106.889 2.2998 106.756 2.43134 106.756 2.56494V24.5131C106.756 24.6446 106.887 24.7782 107.021 24.7782H110.133C110.264 24.7782 110.398 24.6467 110.398 24.5131V2.56494C110.398 2.4334 110.266 2.2998 110.133 2.2998Z" fill="#00586F"/>
<path d="M42.8598 42.6341C42.0562 42.6341 41.3183 42.5005 40.6421 42.2333C39.968 41.9661 39.3864 41.5941 38.8993 41.1214C38.4122 40.6487 38.032 40.0917 37.7586 39.4505C37.4853 38.8092 37.3496 38.1166 37.3496 37.3706C37.3496 36.6348 37.4832 35.9463 37.7504 35.305C38.0176 34.6638 38.3896 34.1068 38.8623 33.6341C39.335 33.1614 39.9002 32.7873 40.5558 32.514C41.2115 32.2406 41.9205 32.105 42.6871 32.105C43.5277 32.105 44.2779 32.2386 44.9335 32.5058C45.5892 32.7729 46.1544 33.1511 46.6332 33.6403L45.4864 34.8303C45.1514 34.4953 44.7568 34.2281 44.3026 34.0267C43.8484 33.8252 43.3099 33.7245 42.6892 33.7245C42.1528 33.7245 41.6636 33.8211 41.2176 34.0123C40.7737 34.2034 40.3873 34.4644 40.0626 34.7933C39.7378 35.1242 39.4871 35.5085 39.3103 35.9483C39.1336 36.3882 39.0452 36.8609 39.0452 37.3685C39.0452 37.8844 39.1336 38.3653 39.3103 38.8113C39.4871 39.2552 39.7399 39.6416 40.0708 39.9664C40.4017 40.2911 40.8004 40.548 41.269 40.733C41.7376 40.92 42.2637 41.0125 42.8474 41.0125C43.3058 41.0125 43.7559 40.9632 44.1957 40.8625C44.6355 40.7618 44.9993 40.5932 45.287 40.3528V38.0858H42.7323V36.5074H46.921V41.1707C46.6908 41.4194 46.4236 41.6352 46.1174 41.8161C45.8111 41.997 45.4843 42.1511 45.1349 42.2744C44.7856 42.3998 44.4177 42.4902 44.0292 42.5478C43.6428 42.6053 43.2523 42.6341 42.8598 42.6341Z" fill="#00586F"/>
<path d="M52.0142 42.6052C51.4696 42.6052 50.966 42.5148 50.5077 42.3319C50.0494 42.151 49.6548 41.8941 49.3239 41.5653C48.993 41.2344 48.7361 40.8398 48.5491 40.3814C48.362 39.9231 48.2695 39.4196 48.2695 38.8749C48.2695 38.3488 48.362 37.8596 48.5491 37.4034C48.7361 36.9492 48.993 36.5545 49.3239 36.2195C49.6548 35.8845 50.0494 35.6215 50.5077 35.4303C50.966 35.2392 51.4696 35.1426 52.0142 35.1426C52.4828 35.1426 52.9268 35.2186 53.3481 35.3728C53.7694 35.5269 54.1373 35.753 54.4538 36.0551C54.7703 36.3572 55.019 36.7292 55.1999 37.1752C55.3807 37.6192 55.4732 38.1289 55.4732 38.7044C55.4732 38.7804 55.4732 38.8585 55.4732 38.9345C55.4732 39.0106 55.4691 39.1072 55.4588 39.2223H49.8192C49.8377 39.5182 49.9076 39.7875 50.0268 40.0259C50.146 40.2643 50.3042 40.4698 50.4995 40.6425C50.6947 40.8151 50.9249 40.9466 51.188 41.0371C51.4511 41.1275 51.7306 41.1727 52.0266 41.1727C52.5342 41.1727 52.9535 41.07 53.2885 40.8644C53.6235 40.6589 53.8866 40.3979 54.0777 40.0834L55.2821 40.9446C54.9574 41.4605 54.5196 41.8674 53.9688 42.1634C53.4221 42.4573 52.7706 42.6052 52.0142 42.6052ZM53.8804 38.0713C53.7941 37.5555 53.5659 37.1608 53.1981 36.8875C52.8302 36.6141 52.4171 36.4785 51.9567 36.4785C51.7265 36.4785 51.5004 36.5114 51.2743 36.5792C51.0503 36.647 50.8448 36.7477 50.6577 36.8813C50.4707 37.0149 50.3104 37.1793 50.1768 37.3766C50.0432 37.5719 49.9466 37.8041 49.8891 38.0734H53.8804V38.0713Z" fill="#00586F"/>
<path d="M59.3718 42.605C58.7306 42.605 58.1551 42.4797 57.6433 42.233C57.1316 41.9843 56.7472 41.6021 56.4883 41.0841L57.6495 40.2518C57.7934 40.5683 58.0256 40.8108 58.3462 40.9834C58.6669 41.1561 59.008 41.2424 59.3718 41.2424C59.6493 41.2424 59.8897 41.1787 60.0973 41.0492C60.3028 40.9197 60.4056 40.7306 60.4056 40.482C60.4056 40.2723 60.3296 40.0997 60.1754 39.9661C60.0213 39.8325 59.7315 39.6989 59.2999 39.5653L58.6689 39.3927C58.038 39.22 57.5652 38.9467 57.2487 38.5685C56.9322 38.1903 56.7801 37.7341 56.7904 37.1976C56.7904 36.8811 56.8582 36.5975 56.9918 36.3447C57.1254 36.0919 57.3083 35.8761 57.5365 35.6994C57.7667 35.5226 58.0359 35.387 58.3462 35.2904C58.6566 35.1958 58.9937 35.1465 59.3574 35.1465C59.9021 35.1465 60.381 35.2492 60.792 35.4548C61.2031 35.6603 61.534 35.9645 61.7826 36.3653L60.6913 37.1976C60.5289 36.9777 60.3357 36.801 60.1097 36.6674C59.8856 36.5338 59.6246 36.466 59.3287 36.466C59.0902 36.466 58.8703 36.5235 58.6689 36.6386C58.4675 36.7537 58.3668 36.9202 58.3668 37.1401C58.3668 37.3127 58.4223 37.471 58.5312 37.6128C58.6401 37.7567 58.8724 37.88 59.228 37.9869L59.9596 38.2027C60.5906 38.3938 61.0839 38.6569 61.4374 38.9919C61.7909 39.3269 61.9676 39.7914 61.9676 40.3833C61.9676 40.7286 61.8998 41.0369 61.7662 41.3082C61.6326 41.5815 61.4497 41.8158 61.2216 42.0111C60.9914 42.2063 60.7201 42.3564 60.4036 42.455C60.0891 42.5537 59.7459 42.605 59.3718 42.605Z" fill="#00586F"/>
<path d="M66.618 42.5333C66.2727 42.5333 65.9521 42.4861 65.6561 42.3895C65.3602 42.2929 65.0991 42.149 64.8751 41.9517C64.6511 41.7564 64.4764 41.5078 64.351 41.2056C64.2257 40.9035 64.164 40.5521 64.164 40.1513V36.6943H62.6719V35.2885H64.164V33.2949H65.7424V35.2885H67.7936V36.6943H65.7424V39.8944C65.7424 40.3445 65.8411 40.6589 66.0363 40.8418C66.2316 41.0248 66.5358 41.1152 66.9468 41.1152C67.0989 41.1152 67.251 41.1029 67.399 41.0803C67.547 41.0556 67.6785 41.0207 67.7936 40.9734V42.3792C67.6312 42.4265 67.4565 42.4655 67.2695 42.4943C67.0825 42.5189 66.8646 42.5333 66.618 42.5333Z" fill="#00586F"/>
<path d="M72.1289 42.6052C71.6418 42.6052 71.1835 42.5065 70.7581 42.3113C70.3326 42.116 69.9668 41.8468 69.6606 41.5077C69.3543 41.1685 69.1139 40.7739 68.9351 40.3238C68.7583 39.8737 68.6699 39.3907 68.6699 38.8749C68.6699 38.359 68.7583 37.876 68.9351 37.4259C69.1118 36.9758 69.3543 36.5812 69.6606 36.2421C69.9668 35.903 70.3326 35.6337 70.7581 35.4385C71.1835 35.2432 71.6398 35.1446 72.1289 35.1446C72.6448 35.1446 73.1072 35.2576 73.5142 35.4816C73.9211 35.7057 74.2253 35.9626 74.4247 36.2482V35.2864H76.0031V42.4593H74.4247V41.4974C74.2232 41.7851 73.9191 42.04 73.5142 42.264C73.1072 42.4921 72.6469 42.6052 72.1289 42.6052ZM70.1785 33.7819C70.2545 33.3236 70.4416 32.9639 70.7375 32.707C71.0335 32.4481 71.3788 32.3186 71.7713 32.3186C71.9727 32.3186 72.1618 32.3515 72.3386 32.4193C72.5153 32.4871 72.6839 32.5611 72.8401 32.6413C72.9983 32.7235 73.1422 32.7975 73.2696 32.8632C73.3991 32.9311 73.5203 32.9639 73.6354 32.9639C73.8081 32.9639 73.9417 32.9084 74.0362 32.7995C74.1308 32.6906 74.2089 32.5241 74.2664 32.3042H75.3002L75.2427 32.6207C75.1666 33.079 74.9796 33.4408 74.6836 33.7038C74.3877 33.9669 74.0424 34.0984 73.6498 34.0984C73.4484 34.0984 73.2593 34.0656 73.0826 33.9977C72.9058 33.9299 72.7373 33.8559 72.5811 33.7758C72.4249 33.6956 72.279 33.6196 72.1515 33.5538C72.0221 33.486 71.9008 33.4531 71.7857 33.4531C71.6131 33.4531 71.4795 33.5065 71.3849 33.6113C71.2883 33.7162 71.2123 33.8785 71.1547 34.0984H70.1209L70.1785 33.7819ZM72.4167 41.1706C72.7332 41.1706 73.0209 41.111 73.284 40.9918C73.5471 40.8726 73.7711 40.7102 73.9581 40.5047C74.1451 40.2992 74.2911 40.0567 74.3959 39.7792C74.5007 39.5017 74.5541 39.1996 74.5541 38.8749C74.5541 38.5501 74.5007 38.248 74.3959 37.9706C74.2911 37.6931 74.1451 37.4526 73.9581 37.2471C73.7711 37.0416 73.5471 36.8792 73.284 36.76C73.0209 36.6408 72.7311 36.5812 72.4167 36.5812C72.1022 36.5812 71.8124 36.6408 71.5493 36.76C71.2863 36.8792 71.0623 37.0416 70.8752 37.2471C70.6882 37.4526 70.5423 37.6952 70.4374 37.9706C70.3326 38.248 70.2792 38.5501 70.2792 38.8749C70.2792 39.1996 70.3326 39.5017 70.4374 39.7792C70.5423 40.0567 70.6882 40.2992 70.8752 40.5047C71.0623 40.7102 71.2863 40.8726 71.5493 40.9918C71.8104 41.111 72.1002 41.1706 72.4167 41.1706Z" fill="#00586F"/>
<path d="M81.386 42.6051C80.8496 42.6051 80.3543 42.5085 79.9001 42.3174C79.4459 42.1263 79.0492 41.8611 78.7101 41.522C78.371 41.1829 78.1058 40.7862 77.9147 40.332C77.7235 39.8778 77.627 39.3928 77.627 38.8748C77.627 38.359 77.7215 37.8719 77.9147 37.4177C78.1058 36.9634 78.371 36.5668 78.7101 36.2277C79.0492 35.8885 79.4459 35.6234 79.9001 35.4323C80.3543 35.2411 80.8496 35.1445 81.386 35.1445C81.9122 35.1445 82.4054 35.2411 82.8638 35.4323C83.3221 35.6234 83.7229 35.8885 84.062 36.2277C84.4011 36.5668 84.6662 36.9634 84.8574 37.4177C85.0485 37.8719 85.1451 38.3569 85.1451 38.8748C85.1451 39.3907 85.0485 39.8778 84.8574 40.332C84.6662 40.7862 84.4011 41.1829 84.062 41.522C83.7229 41.8611 83.3221 42.1263 82.8638 42.3174C82.4034 42.5085 81.9122 42.6051 81.386 42.6051ZM81.386 41.1418C81.7025 41.1418 81.9903 41.0842 82.2534 40.9691C82.5164 40.8541 82.7425 40.6937 82.9357 40.4882C83.1268 40.2827 83.2748 40.0402 83.3796 39.7648C83.4845 39.4873 83.5379 39.1913 83.5379 38.8748C83.5379 38.5583 83.4845 38.2624 83.3796 37.9849C83.2748 37.7074 83.1268 37.467 82.9357 37.2594C82.7446 37.0539 82.5164 36.8936 82.2534 36.7785C81.9903 36.6634 81.7005 36.6058 81.386 36.6058C81.0695 36.6058 80.7777 36.6634 80.5105 36.7785C80.2433 36.8936 80.0131 37.0539 79.822 37.2594C79.6308 37.4649 79.4829 37.7074 79.378 37.9849C79.2732 38.2624 79.2198 38.5583 79.2198 38.8748C79.2198 39.1913 79.2732 39.4873 79.378 39.7648C79.4829 40.0422 79.6308 40.2827 79.822 40.4882C80.0131 40.6937 80.2433 40.8541 80.5105 40.9691C80.7777 41.0842 81.0695 41.1418 81.386 41.1418Z" fill="#00586F"/>
<path d="M93.0489 42.6049C92.5618 42.6049 92.1034 42.5063 91.678 42.311C91.2526 42.1158 90.8867 41.8465 90.5805 41.5074C90.2742 41.1683 90.0338 40.7737 89.855 40.3236C89.6782 39.8735 89.5898 39.3905 89.5898 38.8746C89.5898 38.3588 89.6782 37.8758 89.855 37.4257C90.0317 36.9756 90.2742 36.581 90.5805 36.2418C90.8867 35.9027 91.2526 35.6335 91.678 35.4382C92.1034 35.243 92.5597 35.1443 93.0489 35.1443C93.5647 35.1443 94.0272 35.2574 94.4341 35.4814C94.841 35.7054 95.1452 35.9623 95.3446 36.248V31.6997H96.923V42.4611H95.3446V41.4992C95.1432 41.7869 94.839 42.0418 94.4341 42.2658C94.0272 42.4919 93.5647 42.6049 93.0489 42.6049ZM93.3366 41.1704C93.6531 41.1704 93.9408 41.1108 94.2039 40.9916C94.467 40.8723 94.691 40.71 94.878 40.5045C95.0651 40.2989 95.211 40.0564 95.3158 39.7789C95.4206 39.5015 95.4741 39.1994 95.4741 38.8746C95.4741 38.5499 95.4206 38.2478 95.3158 37.9703C95.211 37.6929 95.0651 37.4524 94.878 37.2469C94.691 37.0413 94.467 36.879 94.2039 36.7598C93.9408 36.6406 93.6511 36.581 93.3366 36.581C93.0221 36.581 92.7323 36.6406 92.4693 36.7598C92.2062 36.879 91.9822 37.0413 91.7951 37.2469C91.6081 37.4524 91.4622 37.6949 91.3574 37.9703C91.2526 38.2478 91.1991 38.5499 91.1991 38.8746C91.1991 39.1994 91.2526 39.5015 91.3574 39.7789C91.4622 40.0564 91.6081 40.2989 91.7951 40.5045C91.9822 40.71 92.2062 40.8723 92.4693 40.9916C92.7303 41.1108 93.0201 41.1704 93.3366 41.1704Z" fill="#00586F"/>
<path d="M102.301 42.6052C101.757 42.6052 101.253 42.5148 100.795 42.3319C100.337 42.151 99.9419 41.8941 99.611 41.5653C99.2801 41.2344 99.0232 40.8398 98.8362 40.3814C98.6491 39.9231 98.5566 39.4196 98.5566 38.8749C98.5566 38.3488 98.6491 37.8596 98.8362 37.4034C99.0232 36.9492 99.2801 36.5545 99.611 36.2195C99.9419 35.8845 100.337 35.6215 100.795 35.4303C101.253 35.2392 101.757 35.1426 102.301 35.1426C102.77 35.1426 103.214 35.2186 103.635 35.3728C104.057 35.5269 104.424 35.753 104.741 36.0551C105.057 36.3572 105.304 36.7292 105.487 37.1752C105.668 37.6192 105.76 38.1289 105.76 38.7044C105.76 38.7804 105.76 38.8585 105.76 38.9345C105.76 39.0106 105.756 39.1072 105.746 39.2223H100.106C100.125 39.5182 100.195 39.7875 100.314 40.0259C100.433 40.2643 100.591 40.4698 100.787 40.6425C100.982 40.8151 101.212 40.9466 101.475 41.0371C101.738 41.1275 102.018 41.1727 102.314 41.1727C102.821 41.1727 103.241 41.07 103.576 40.8644C103.911 40.6589 104.174 40.3979 104.365 40.0834L105.571 40.9446C105.247 41.4605 104.809 41.8674 104.258 42.1634C103.709 42.4573 103.056 42.6052 102.301 42.6052ZM104.165 38.0713C104.079 37.5555 103.853 37.1608 103.483 36.8875C103.115 36.6141 102.702 36.4785 102.242 36.4785C102.012 36.4785 101.785 36.5114 101.559 36.5792C101.335 36.647 101.13 36.7477 100.943 36.8813C100.756 37.0149 100.595 37.1793 100.462 37.3766C100.328 37.5719 100.232 37.8041 100.174 38.0734H104.165V38.0713Z" fill="#00586F"/>
<path d="M110.939 32.2754H116.994V33.8826H112.619V36.5072H116.061V38.1H112.619V42.4613H110.939V32.2754Z" fill="#00586F"/>
<path d="M117.926 35.2887H119.504V36.565C119.572 36.3636 119.669 36.1807 119.798 36.0122C119.928 35.8457 120.076 35.7018 120.242 35.5826C120.409 35.4634 120.594 35.373 120.795 35.3093C120.996 35.2476 121.196 35.2168 121.397 35.2168C121.617 35.2168 121.823 35.2353 122.014 35.2743V36.8959C121.88 36.8487 121.751 36.8158 121.627 36.7952C121.502 36.7767 121.368 36.7665 121.227 36.7665C120.996 36.7665 120.778 36.8137 120.573 36.9103C120.367 37.0069 120.187 37.1446 120.028 37.3255C119.87 37.5064 119.743 37.7365 119.648 38.014C119.551 38.2915 119.504 38.608 119.504 38.9615V42.4616H117.926V35.2887Z" fill="#00586F"/>
<path d="M126.359 42.6051C125.822 42.6051 125.327 42.5085 124.873 42.3174C124.419 42.1263 124.022 41.8611 123.683 41.522C123.344 41.1829 123.078 40.7862 122.887 40.332C122.696 39.8778 122.6 39.3928 122.6 38.8748C122.6 38.359 122.696 37.8719 122.887 37.4177C123.078 36.9634 123.344 36.5668 123.683 36.2277C124.022 35.8885 124.419 35.6234 124.873 35.4323C125.327 35.2411 125.822 35.1445 126.359 35.1445C126.885 35.1445 127.378 35.2411 127.836 35.4323C128.295 35.6234 128.696 35.8885 129.035 36.2277C129.374 36.5668 129.639 36.9634 129.83 37.4177C130.021 37.8719 130.118 38.3569 130.118 38.8748C130.118 39.3907 130.021 39.8778 129.83 40.332C129.639 40.7862 129.374 41.1829 129.035 41.522C128.696 41.8611 128.297 42.1263 127.836 42.3174C127.378 42.5085 126.885 42.6051 126.359 42.6051ZM126.359 41.1418C126.675 41.1418 126.963 41.0842 127.226 40.9691C127.489 40.8541 127.715 40.6937 127.908 40.4882C128.099 40.2827 128.247 40.0402 128.352 39.7648C128.457 39.4873 128.511 39.1913 128.511 38.8748C128.511 38.5583 128.457 38.2624 128.352 37.9849C128.247 37.7074 128.099 37.467 127.908 37.2594C127.717 37.0539 127.489 36.8936 127.226 36.7785C126.963 36.6634 126.673 36.6058 126.359 36.6058C126.044 36.6058 125.75 36.6634 125.483 36.7785C125.216 36.8936 124.986 37.0539 124.795 37.2594C124.604 37.4649 124.456 37.7074 124.351 37.9849C124.246 38.2624 124.192 38.5583 124.192 38.8748C124.192 39.1913 124.246 39.4873 124.351 39.7648C124.456 40.0422 124.604 40.2827 124.795 40.4882C124.986 40.6937 125.216 40.8541 125.483 40.9691C125.752 41.0842 126.044 41.1418 126.359 41.1418Z" fill="#00586F"/>
<path d="M134.684 42.5333C134.339 42.5333 134.018 42.4861 133.723 42.3895C133.427 42.2929 133.166 42.149 132.942 41.9517C132.718 41.7564 132.543 41.5078 132.417 41.2056C132.292 40.9035 132.23 40.5521 132.23 40.1513V36.6943H130.738V35.2885H132.23V33.2949H133.809V35.2885H135.86V36.6943H133.809V39.8944C133.809 40.3445 133.907 40.6589 134.103 40.8418C134.298 41.0248 134.602 41.1152 135.013 41.1152C135.165 41.1152 135.317 41.1029 135.465 41.0803C135.613 41.0556 135.745 41.0207 135.86 40.9734V42.3792C135.698 42.4265 135.523 42.4655 135.336 42.4943C135.151 42.5189 134.933 42.5333 134.684 42.5333Z" fill="#00586F"/>
<path d="M140.193 42.6051C139.706 42.6051 139.248 42.5065 138.823 42.3112C138.397 42.116 138.031 41.8467 137.725 41.5076C137.419 41.1685 137.178 40.7739 137 40.3238C136.823 39.8737 136.734 39.3907 136.734 38.8748C136.734 38.359 136.823 37.876 137 37.4259C137.176 36.9758 137.419 36.5812 137.725 36.242C138.031 35.9029 138.397 35.6337 138.823 35.4384C139.248 35.2432 139.704 35.1445 140.193 35.1445C140.709 35.1445 141.172 35.2576 141.579 35.4816C141.986 35.7056 142.29 35.9625 142.489 36.2482V35.2863H144.068V42.4592H142.489V41.4974C142.288 41.7851 141.986 42.0399 141.579 42.264C141.172 42.4921 140.709 42.6051 140.193 42.6051ZM140.481 41.1706C140.798 41.1706 141.085 41.111 141.348 40.9918C141.612 40.8725 141.836 40.7102 142.023 40.5047C142.21 40.2991 142.356 40.0566 142.46 39.7791C142.565 39.5017 142.619 39.1996 142.619 38.8748C142.619 38.5501 142.565 38.248 142.46 37.9705C142.356 37.6931 142.21 37.4526 142.023 37.2471C141.836 37.0415 141.612 36.8792 141.348 36.76C141.085 36.6408 140.796 36.5812 140.481 36.5812C140.165 36.5812 139.877 36.6408 139.614 36.76C139.351 36.8792 139.127 37.0415 138.94 37.2471C138.753 37.4526 138.607 37.6951 138.502 37.9705C138.397 38.248 138.344 38.5501 138.344 38.8748C138.344 39.1996 138.397 39.5017 138.502 39.7791C138.607 40.0566 138.753 40.2991 138.94 40.5047C139.127 40.7102 139.351 40.8725 139.614 40.9918C139.875 41.111 140.165 41.1706 140.481 41.1706Z" fill="#00586F"/>
<path d="M148.487 42.605C147.846 42.605 147.27 42.4797 146.759 42.233C146.247 41.9843 145.862 41.6021 145.604 41.0841L146.767 40.2518C146.911 40.5683 147.143 40.8108 147.464 40.9834C147.784 41.1561 148.125 41.2424 148.489 41.2424C148.767 41.2424 149.007 41.1787 149.215 41.0492C149.42 40.9197 149.523 40.7306 149.523 40.482C149.523 40.2723 149.447 40.0997 149.293 39.9661C149.141 39.8325 148.849 39.6989 148.417 39.5653L147.786 39.3927C147.155 39.22 146.683 38.9467 146.366 38.5685C146.049 38.1903 145.897 37.7341 145.908 37.1976C145.908 36.8811 145.973 36.5975 146.109 36.3447C146.243 36.0919 146.426 35.8761 146.654 35.6994C146.884 35.5226 147.153 35.387 147.464 35.2904C147.774 35.1958 148.111 35.1465 148.475 35.1465C149.019 35.1465 149.498 35.2492 149.909 35.4548C150.32 35.6603 150.651 35.9645 150.9 36.3653L149.811 37.1976C149.648 36.9777 149.455 36.801 149.229 36.6674C149.005 36.5338 148.744 36.466 148.448 36.466C148.21 36.466 147.99 36.5235 147.788 36.6386C147.587 36.7537 147.486 36.9202 147.486 37.1401C147.486 37.3127 147.542 37.471 147.651 37.6128C147.762 37.7567 147.992 37.88 148.347 37.9869L149.079 38.2027C149.71 38.3938 150.203 38.6569 150.557 38.9919C150.91 39.3269 151.087 39.7914 151.087 40.3833C151.087 40.7286 151.019 41.0369 150.886 41.3082C150.752 41.5795 150.569 41.8158 150.341 42.0111C150.111 42.2063 149.839 42.3564 149.523 42.455C149.204 42.5537 148.859 42.605 148.487 42.605Z" fill="#00586F"/>
</svg>
