<svg width="160" height="54" viewBox="0 0 160 54" fill="none" xmlns="http://www.w3.org/2000/svg">
<path d="M98.0614 31.3941C96.6176 31.3894 95.205 31.8135 94.0026 32.6126C92.8002 33.4118 91.8622 34.55 91.3075 35.883C90.7528 37.2159 90.6064 38.6836 90.887 40.0998C91.1675 41.5161 91.8622 42.8171 92.8831 43.838C93.904 44.8589 95.2051 45.5537 96.6213 45.8342C98.0375 46.1147 99.5052 45.9683 100.838 45.4136C102.171 44.859 103.309 43.921 104.109 42.7186C104.908 41.5161 105.332 40.1035 105.327 38.6597C105.319 36.7353 104.551 34.892 103.19 33.5313C101.829 32.1705 99.9858 31.4023 98.0614 31.3941ZM98.0614 43.3221C97.1432 43.3262 96.2445 43.058 95.4787 42.5514C94.713 42.0448 94.1146 41.3225 93.7593 40.4759C93.404 39.6293 93.3077 38.6963 93.4826 37.7949C93.6574 36.8936 94.0956 36.0643 94.7417 35.4119C95.3878 34.7596 96.2129 34.3134 97.1125 34.1299C98.0121 33.9464 98.946 34.0337 99.796 34.3808C100.646 34.728 101.374 35.3193 101.888 36.0802C102.402 36.841 102.679 37.7371 102.684 38.6553C102.69 39.2664 102.575 39.8727 102.346 40.4392C102.117 41.0057 101.777 41.521 101.347 41.9555C100.917 42.3899 100.406 42.7348 99.8417 42.9701C99.2776 43.2055 98.6725 43.3266 98.0614 43.3266V43.3221Z" fill="#05662C"/>
<path d="M81.55 31.3938C80.5841 31.38 79.625 31.5583 78.7286 31.9184C77.8322 32.2785 77.0163 32.8132 76.3283 33.4914C75.6403 34.1696 75.094 34.9778 74.7211 35.8689C74.3483 36.7601 74.1563 37.7165 74.1562 38.6826C74.1563 39.6486 74.3483 40.6051 74.7211 41.4962C75.094 42.3874 75.6403 43.1956 76.3283 43.8738C77.0163 44.552 77.8322 45.0867 78.7286 45.4468C79.625 45.8069 80.5841 45.9852 81.55 45.9714C82.5141 45.9742 83.4688 45.7832 84.3576 45.4097C85.2464 45.0363 86.0511 44.488 86.7238 43.7975L84.8362 41.9442C84.2663 42.5188 83.5564 42.9348 82.7766 43.1512C81.9968 43.3677 81.174 43.377 80.3895 43.1783C79.605 42.9795 78.8859 42.5797 78.3031 42.0181C77.7204 41.4565 77.2942 40.7527 77.0666 39.976H88.8157V38.6535C88.8121 36.7282 88.0453 34.8828 86.6834 33.5219C85.3214 32.1611 83.4754 31.3958 81.55 31.3938ZM77.077 37.337C77.3676 36.3833 77.957 35.5482 78.7581 34.9548C79.5593 34.3614 80.5299 34.0411 81.5269 34.0411C82.5239 34.0411 83.4945 34.3614 84.2957 34.9548C85.0969 35.5482 85.6862 36.3833 85.9768 37.337H77.077Z" fill="#05662C"/>
<path d="M114.163 31.3941C112.719 31.3894 111.307 31.8135 110.104 32.6126C108.902 33.4118 107.964 34.55 107.409 35.883C106.854 37.2159 106.708 38.6836 106.989 40.0998C107.269 41.5161 107.964 42.8171 108.985 43.838C110.006 44.8589 111.307 45.5537 112.723 45.8342C114.139 46.1147 115.607 45.9683 116.94 45.4136C118.273 44.859 119.411 43.921 120.21 42.7186C121.009 41.5161 121.433 40.1035 121.429 38.6597C121.42 36.7353 120.652 34.892 119.291 33.5313C117.931 32.1705 116.087 31.4023 114.163 31.3941ZM114.163 43.3221C113.245 43.3262 112.346 43.058 111.58 42.5514C110.815 42.0448 110.216 41.3225 109.861 40.4759C109.506 39.6293 109.409 38.6963 109.584 37.7949C109.759 36.8936 110.197 36.0643 110.843 35.4119C111.489 34.7596 112.314 34.3134 113.214 34.1299C114.114 33.9464 115.048 34.0337 115.898 34.3808C116.748 34.728 117.476 35.3193 117.99 36.0802C118.503 36.841 118.78 37.7371 118.785 38.6553C118.792 39.2664 118.677 39.8727 118.447 40.4392C118.218 41.0057 117.879 41.521 117.449 41.9555C117.019 42.3899 116.507 42.7348 115.943 42.9701C115.379 43.2055 114.774 43.3266 114.163 43.3266V43.3221Z" fill="#05662C"/>
<path d="M67.4478 31.3941C66.1519 31.3941 64.909 31.9082 63.9918 32.8237C63.0747 33.7392 62.5582 34.9812 62.5558 36.2771V38.6866C62.5558 38.961 62.4468 39.2242 62.2528 39.4182C62.0587 39.6123 61.7955 39.7213 61.5211 39.7213C61.2467 39.7213 60.9835 39.6123 60.7894 39.4182C60.5953 39.2242 60.4863 38.961 60.4863 38.6866V36.2831C60.4856 34.9973 59.9783 33.7637 59.0744 32.8494C58.1704 31.9351 56.9426 31.4138 55.657 31.3985H55.6048C52.7286 31.3985 50.7202 33.5888 50.7188 36.468V45.8613H53.3638V36.468C53.3638 34.4476 54.9308 34.0466 55.6003 34.048H55.6242C56.2134 34.0539 56.7766 34.2922 57.1912 34.711C57.6058 35.1297 57.8383 35.6952 57.8383 36.2846V38.694C57.839 39.6621 58.2214 40.5909 58.9024 41.2789C59.5835 41.967 60.5083 42.3587 61.4764 42.3693H61.5166C61.9999 42.3697 62.4785 42.2749 62.9252 42.0902C63.3718 41.9055 63.7776 41.6347 64.1195 41.2931C64.4614 40.9514 64.7326 40.5458 64.9176 40.0994C65.1027 39.6529 65.1979 39.1743 65.1979 38.691V36.2771C65.1979 35.6839 65.4335 35.1151 65.853 34.6956C66.2724 34.2762 66.8412 34.0406 67.4344 34.0406C68.1039 34.0406 69.6709 34.4417 69.6709 36.462V45.8553H72.316V36.462C72.3309 33.5873 70.324 31.3881 67.4478 31.3941Z" fill="#05662C"/>
<path d="M38.2055 7.96127L29.2878 11.6187C29.0545 11.7104 28.8548 11.8713 28.7154 12.0796C28.576 12.288 28.5037 12.534 28.508 12.7847V22.7744L35.5679 19.9415C36.6685 19.5207 37.6127 18.7712 38.2722 17.7948C38.9317 16.8184 39.2744 15.6625 39.2537 14.4844V8.6695C39.2641 8.5412 39.2402 8.41245 39.1844 8.29643C39.1287 8.18041 39.0431 8.08129 38.9364 8.00923C38.8298 7.93717 38.7059 7.89475 38.5775 7.88632C38.449 7.8779 38.3206 7.90376 38.2055 7.96127Z" fill="#7DDF20"/>
<path d="M17.676 28.0228V33.4008C17.676 40.7306 22.9869 46.0415 30.3167 46.0415H38.2653C38.3955 46.0461 38.5253 46.0239 38.6466 45.9761C38.7679 45.9283 38.8781 45.8561 38.9702 45.764C39.0624 45.6718 39.1346 45.5616 39.1824 45.4404C39.2301 45.3191 39.2524 45.1892 39.2478 45.059V36.2382C39.2524 36.1079 39.2301 35.9781 39.1824 35.8568C39.1346 35.7355 39.0624 35.6254 38.9702 35.5332C38.8781 35.441 38.7679 35.3688 38.6466 35.3211C38.5253 35.2733 38.3955 35.251 38.2653 35.2556H30.1467C29.9292 35.2636 29.7124 35.2266 29.5098 35.1469C29.3073 35.0673 29.1233 34.9468 28.9694 34.7929C28.8155 34.639 28.6949 34.455 28.6153 34.2524C28.5357 34.0498 28.4987 33.833 28.5066 33.6155V22.7744L18.4588 26.8642C18.225 26.9534 18.0244 27.1125 17.8843 27.3198C17.7443 27.5271 17.6715 27.7726 17.676 28.0228Z" fill="#05662C"/>
<path d="M67.8402 12.1152C63.8503 12.1152 60.7773 15.215 60.7773 19.123C60.7773 23.0309 63.8503 26.1307 67.8402 26.1307C71.8302 26.1307 74.9031 23.0309 74.9031 19.123C74.9031 15.215 71.8302 12.1152 67.8402 12.1152ZM67.8402 23.3828C65.4412 23.3828 63.7698 21.5235 63.7698 19.1244C63.7698 16.7254 65.4412 14.8721 67.8402 14.8721C70.2124 14.8721 71.8838 16.7314 71.8838 19.1319C71.8838 21.5324 70.2124 23.3828 67.8402 23.3828Z" fill="#05662C"/>
<path d="M89.057 22.3048L86.8459 21.112C86.8198 21.0963 86.7905 21.0867 86.7602 21.0838C86.73 21.0809 86.6994 21.0848 86.6708 21.0953C86.6423 21.1057 86.6164 21.1224 86.5951 21.1441C86.5738 21.1658 86.5576 21.192 86.5477 21.2208C86.2102 21.877 85.6967 22.4262 85.0647 22.807C84.4327 23.1878 83.7071 23.3851 82.9693 23.3768C80.5702 23.3768 78.872 21.5175 78.872 19.1185C78.872 16.7195 80.5658 14.8721 82.9648 14.8721C83.7026 14.8638 84.4282 15.0611 85.0602 15.4419C85.6922 15.8227 86.2057 16.3719 86.5432 17.0281C86.5531 17.0569 86.5693 17.0831 86.5906 17.1048C86.6119 17.1265 86.6378 17.1432 86.6664 17.1536C86.6949 17.164 86.7255 17.168 86.7558 17.1651C86.7861 17.1622 86.8153 17.1526 86.8414 17.1369L89.0526 15.9441C89.0797 15.9322 89.1038 15.9144 89.1231 15.8919C89.1424 15.8694 89.1565 15.8429 89.1642 15.8143C89.1719 15.7857 89.1731 15.7557 89.1677 15.7266C89.1624 15.6974 89.1505 15.6699 89.1331 15.6459C87.9477 13.4899 85.6829 12.1152 82.9603 12.1152C78.9167 12.1152 75.8438 15.1345 75.8438 19.123C75.8438 23.1114 78.9167 26.1307 82.9603 26.1307C85.6829 26.1307 87.9746 24.756 89.1599 22.5731C89.2196 22.4941 89.1629 22.3614 89.057 22.3048Z" fill="#05662C"/>
<path d="M60.4265 23.1682H53.5247V12.6C53.5208 12.5439 53.4968 12.4911 53.4571 12.4514C53.4173 12.4116 53.3645 12.3876 53.3085 12.3838H50.7767C50.7208 12.3879 50.6682 12.412 50.6285 12.4517C50.5888 12.4914 50.5647 12.544 50.5605 12.6V23.3829C50.5605 24.9202 51.5044 25.864 53.0416 25.864H60.428C60.4838 25.8598 60.5363 25.8356 60.5757 25.7959C60.6151 25.7562 60.6389 25.7036 60.6427 25.6478V23.3829C60.6389 23.327 60.6148 23.2744 60.575 23.2349C60.5353 23.1954 60.4825 23.1717 60.4265 23.1682Z" fill="#05662C"/>
<path d="M127.552 23.1682H120.479L127.445 14.8917C127.515 14.8081 127.553 14.7024 127.552 14.5935V12.6C127.548 12.5439 127.524 12.4911 127.484 12.4514C127.445 12.4116 127.392 12.3876 127.336 12.3838H116.978C116.922 12.388 116.87 12.4121 116.83 12.4518C116.791 12.4915 116.767 12.5441 116.763 12.6V14.8723C116.767 14.928 116.791 14.9804 116.83 15.0198C116.87 15.0593 116.922 15.0832 116.978 15.087H123.71L116.763 23.3904C116.693 23.4737 116.654 23.5794 116.654 23.6886V25.6567C116.658 25.7127 116.683 25.7653 116.722 25.805C116.762 25.8447 116.815 25.8688 116.871 25.8729H127.546C127.602 25.8688 127.655 25.8447 127.694 25.805C127.734 25.7653 127.758 25.7127 127.762 25.6567V23.3829C127.758 23.3281 127.735 23.2764 127.697 23.2371C127.658 23.1978 127.607 23.1734 127.552 23.1682Z" fill="#05662C"/>
<path d="M114.451 7.56592H111.916C111.86 7.56979 111.807 7.59385 111.768 7.63362C111.728 7.67339 111.705 7.72617 111.701 7.78212V10.369C111.705 10.425 111.728 10.4777 111.768 10.5175C111.807 10.5573 111.86 10.5813 111.916 10.5852H112.887C113.122 10.5922 113.356 10.551 113.575 10.4641C113.794 10.3772 113.993 10.2464 114.16 10.0798C114.327 9.91323 114.457 9.71433 114.544 9.49535C114.631 9.27637 114.672 9.04193 114.665 8.80644V7.77466C114.66 7.72004 114.636 7.66906 114.596 7.63081C114.557 7.59257 114.505 7.56957 114.451 7.56592Z" fill="#05662C"/>
<path d="M142.108 12.3832H139.573C139.517 12.387 139.464 12.411 139.424 12.4507C139.384 12.4905 139.36 12.5433 139.357 12.5994V14.2007C138.611 13.1137 136.993 12.1133 135.043 12.1133C131.35 12.1133 128.547 15.2668 128.547 19.121C128.547 22.9753 131.35 26.1287 135.043 26.1287C136.993 26.1287 138.604 25.1298 139.357 24.0413V25.6427C139.36 25.6987 139.384 25.7515 139.424 25.7913C139.464 25.831 139.517 25.855 139.573 25.8589H142.108C142.164 25.855 142.216 25.831 142.256 25.7913C142.296 25.7515 142.32 25.6987 142.324 25.6427V12.5994C142.32 12.5433 142.296 12.4905 142.256 12.4507C142.216 12.411 142.164 12.387 142.108 12.3832ZM135.584 23.436C133.212 23.436 131.568 21.5499 131.568 19.124C131.568 16.6981 133.208 14.8105 135.584 14.8105C137.961 14.8105 139.601 16.6966 139.601 19.124C139.601 21.5513 137.957 23.436 135.584 23.436Z" fill="#05662C"/>
<path d="M103.479 12.3832H100.944C100.888 12.387 100.835 12.411 100.795 12.4507C100.756 12.4905 100.732 12.5433 100.728 12.5994V14.2007C99.9733 13.1137 98.3645 12.1133 96.4143 12.1133C92.7211 12.1133 89.918 15.2668 89.918 19.121C89.918 22.9753 92.7211 26.1287 96.4143 26.1287C98.3645 26.1287 99.9733 25.1298 100.728 24.0413V25.6427C100.732 25.6987 100.756 25.7515 100.795 25.7913C100.835 25.831 100.888 25.855 100.944 25.8589H103.479C103.535 25.8547 103.587 25.8306 103.627 25.7909C103.667 25.7512 103.691 25.6986 103.695 25.6427V12.5994C103.691 12.5434 103.667 12.4908 103.627 12.4511C103.587 12.4114 103.535 12.3873 103.479 12.3832ZM96.9555 23.436C94.5833 23.436 92.9387 21.5499 92.9387 19.124C92.9387 16.6981 94.5788 14.8105 96.9555 14.8105C99.3322 14.8105 100.972 16.6966 100.972 19.124C100.972 21.5513 99.3277 23.436 96.9555 23.436Z" fill="#05662C"/>
<path d="M114.451 12.3838H111.917C111.798 12.3838 111.701 12.4806 111.701 12.6V25.6463C111.701 25.7657 111.798 25.8625 111.917 25.8625H114.451C114.57 25.8625 114.667 25.7657 114.667 25.6463V12.6C114.667 12.4806 114.57 12.3838 114.451 12.3838Z" fill="#05662C"/>
<path d="M108.976 7.55859H106.443C106.323 7.55859 106.227 7.65539 106.227 7.77479V25.6475C106.227 25.7669 106.323 25.8637 106.443 25.8637H108.976C109.095 25.8637 109.192 25.7669 109.192 25.6475V7.77479C109.192 7.65539 109.095 7.55859 108.976 7.55859Z" fill="#05662C"/>
</svg>
