<svg width="144" height="26" viewBox="0 0 144 26" fill="none" xmlns="http://www.w3.org/2000/svg">
<path d="M130.684 11.2497H135.327V6.60167C135.327 6.57064 135.333 6.53987 135.345 6.51113C135.356 6.4824 135.374 6.45627 135.395 6.43424C135.417 6.41222 135.443 6.39474 135.472 6.38281C135.501 6.37088 135.531 6.36475 135.562 6.36475H138.047C138.109 6.36521 138.169 6.39037 138.213 6.43475C138.257 6.47914 138.282 6.53914 138.282 6.60167V11.2497H142.93C142.992 11.2497 143.052 11.2745 143.096 11.3186C143.14 11.3627 143.165 11.4225 143.165 11.4849V13.9395C143.165 14.0019 143.14 14.0617 143.096 14.1059C143.052 14.15 142.992 14.1747 142.93 14.1747H138.289V18.8228C138.289 18.8536 138.283 18.8842 138.271 18.9128C138.259 18.9413 138.242 18.9672 138.22 18.9891C138.198 19.0109 138.172 19.0282 138.144 19.04C138.115 19.0519 138.085 19.0579 138.054 19.0579H135.569C135.538 19.0582 135.508 19.0523 135.479 19.0405C135.45 19.0288 135.424 19.0115 135.403 18.9896C135.381 18.9677 135.363 18.9417 135.352 18.913C135.34 18.8844 135.334 18.8537 135.334 18.8228V14.1747H130.684C130.622 14.1743 130.563 14.1494 130.519 14.1054C130.475 14.0613 130.45 14.0018 130.449 13.9395V11.4849C130.45 11.4227 130.475 11.3631 130.519 11.3191C130.563 11.2751 130.622 11.2501 130.684 11.2497Z" fill="#05662C"/>
<path d="M43.6606 6.08203C39.1903 6.08203 35.7461 9.55584 35.7461 13.9356C35.7461 18.3153 39.1903 21.7874 43.6606 21.7874C48.1309 21.7874 51.5734 18.3136 51.5734 13.9356C51.5734 9.55758 48.1309 6.08203 43.6606 6.08203ZM43.6606 18.7073C40.9725 18.7073 39.0997 16.6167 39.0997 13.9356C39.0997 11.2544 40.9725 9.16213 43.6606 9.16213C46.3174 9.16213 48.1902 11.2527 48.1902 13.9356C48.1902 16.6185 46.3174 18.7073 43.6606 18.7073Z" fill="#05662C"/>
<path d="M67.4303 17.4985L64.9547 16.1693C64.9255 16.1522 64.8928 16.1418 64.8591 16.1388C64.8254 16.1358 64.7914 16.1403 64.7597 16.152C64.7279 16.1636 64.6991 16.1821 64.6753 16.2062C64.6515 16.2303 64.6333 16.2593 64.622 16.2912C64.2433 17.0277 63.6667 17.644 62.957 18.0709C62.2474 18.4977 61.4327 18.7182 60.6046 18.7076C57.9165 18.7076 56.0141 16.617 56.0141 13.9358C56.0141 11.2547 57.9165 9.1624 60.6046 9.1624C61.4327 9.15175 62.2474 9.37223 62.957 9.79909C63.6667 10.2259 64.2433 10.8422 64.622 11.5787C64.6333 11.6107 64.6515 11.6397 64.6753 11.6638C64.6991 11.6878 64.7279 11.7064 64.7597 11.718C64.7914 11.7297 64.8254 11.7342 64.8591 11.7312C64.8928 11.7282 64.9255 11.7178 64.9547 11.7007L67.4303 10.3697C67.4604 10.3562 67.4871 10.3362 67.5086 10.3112C67.53 10.2861 67.5457 10.2566 67.5543 10.2248C67.563 10.1929 67.5645 10.1596 67.5587 10.1271C67.5529 10.0946 67.54 10.0638 67.5209 10.037C66.1916 7.62062 63.6551 6.08057 60.6046 6.08057C56.0751 6.08057 52.6309 9.4638 52.6309 13.9341C52.6309 18.4044 56.0733 21.7859 60.6046 21.7859C63.6551 21.7859 66.223 20.2459 67.5522 17.7999C67.5746 17.7436 67.5745 17.6809 67.5517 17.6248C67.529 17.5686 67.4855 17.5234 67.4303 17.4985Z" fill="#05662C"/>
<path d="M14.3412 0.291652L8.47193 2.70451C8.31665 2.76316 8.1832 2.8682 8.0897 3.00534C7.99619 3.14248 7.94716 3.30508 7.94928 3.47105V10.0389L12.5921 8.17482C13.3163 7.89813 13.9377 7.40498 14.3716 6.76251C14.8055 6.12003 15.0309 5.35944 15.0171 4.58428V0.751578C15.0216 0.669446 15.0049 0.587539 14.9684 0.513805C14.9319 0.440071 14.877 0.377012 14.809 0.330739C14.741 0.284467 14.6622 0.256552 14.5802 0.249704C14.4983 0.242856 14.4159 0.257305 14.3412 0.291652Z" fill="#78DE1F"/>
<path d="M35.3546 18.4656H27.623V6.6191C27.6186 6.55635 27.5916 6.49732 27.5471 6.45283C27.5027 6.40835 27.4436 6.38141 27.3809 6.37695H24.5412C24.4786 6.38145 24.4198 6.40845 24.3756 6.45297C24.3314 6.49749 24.3048 6.5565 24.3008 6.6191V18.7008C24.3008 20.422 25.3565 21.4795 27.0795 21.4795H35.3546C35.4174 21.4751 35.4764 21.4481 35.5209 21.4036C35.5654 21.3592 35.5923 21.3001 35.5968 21.2374V18.7078C35.5927 18.6449 35.5659 18.5857 35.5213 18.5411C35.4768 18.4966 35.4175 18.4697 35.3546 18.4656Z" fill="#05662C"/>
<path d="M0.834088 13.4937V17.0337C0.834088 21.8577 4.32881 25.3524 9.15104 25.3524H14.3774C14.4631 25.3554 14.5485 25.3406 14.6282 25.3092C14.7079 25.2777 14.7803 25.2302 14.841 25.1696C14.9016 25.109 14.9491 25.0366 14.9805 24.9569C15.012 24.8771 15.0267 24.7918 15.0238 24.7061V18.9065C15.0267 18.8209 15.012 18.7355 14.9805 18.6558C14.9491 18.5761 14.9016 18.5036 14.841 18.443C14.7803 18.3824 14.7079 18.3349 14.6282 18.3035C14.5485 18.272 14.4631 18.2573 14.3774 18.2602H9.03781C8.89495 18.2648 8.75266 18.2401 8.61975 18.1875C8.48683 18.1349 8.3661 18.0557 8.26503 17.9546C8.16397 17.8535 8.0847 17.7328 8.03214 17.5999C7.97957 17.467 7.95483 17.3247 7.95943 17.1818V10.0391L1.35673 12.7307C1.2013 12.788 1.06752 12.8923 0.973893 13.029C0.880268 13.1657 0.831418 13.3281 0.834088 13.4937Z" fill="#05662C"/>
<path d="M110.563 18.465H102.638L110.441 9.19337C110.52 9.10057 110.563 8.98254 110.563 8.86062V6.62546C110.559 6.56271 110.532 6.50367 110.487 6.45919C110.443 6.41471 110.384 6.38776 110.321 6.3833H98.7235C98.6606 6.3874 98.6013 6.41423 98.5568 6.45879C98.5122 6.50334 98.4854 6.56258 98.4813 6.62546V9.16201C98.4854 9.22489 98.5122 9.28413 98.5568 9.32868C98.6013 9.37324 98.6606 9.40007 98.7235 9.40417H106.265L98.4813 18.7072C98.4022 18.8 98.359 18.918 98.3594 19.0399V21.2437C98.3638 21.3065 98.3908 21.3655 98.4353 21.41C98.4797 21.4545 98.5388 21.4814 98.6015 21.4859H110.563C110.626 21.4814 110.684 21.4544 110.729 21.4098C110.773 21.3653 110.799 21.3063 110.803 21.2437V18.7072C110.799 18.6446 110.773 18.5856 110.729 18.541C110.684 18.4965 110.626 18.4695 110.563 18.465Z" fill="#05662C"/>
<path d="M95.8826 0.978027H93.0429C92.9801 0.982123 92.9208 1.00895 92.8763 1.05351C92.8317 1.09806 92.8049 1.15731 92.8008 1.22019V4.1191C92.8052 4.18185 92.8322 4.24089 92.8767 4.28537C92.9211 4.32986 92.9802 4.3568 93.0429 4.36126H94.13C94.3944 4.36945 94.6576 4.32348 94.9035 4.22618C95.1494 4.12888 95.3728 3.9823 95.56 3.79546C95.7471 3.60862 95.8941 3.38547 95.9918 3.13973C96.0896 2.89399 96.136 2.63086 96.1283 2.36651V1.22019C96.1241 1.15674 96.0967 1.09704 96.0515 1.05241C96.0062 1.00777 95.9461 0.981303 95.8826 0.978027Z" fill="#05662C"/>
<path d="M126.873 6.38342H124.033C123.97 6.38787 123.911 6.41482 123.867 6.45931C123.822 6.50379 123.795 6.56282 123.791 6.62558V8.41997C122.948 7.20048 121.145 6.08203 118.958 6.08203C114.821 6.08203 111.68 9.61508 111.68 13.9356C111.68 18.2561 114.816 21.7874 118.958 21.7874C121.145 21.7874 122.948 20.6672 123.791 19.4494V21.2438C123.795 21.3066 123.822 21.3656 123.867 21.4101C123.911 21.4546 123.97 21.4815 124.033 21.486H126.873C126.936 21.4815 126.995 21.4546 127.039 21.4101C127.084 21.3656 127.111 21.3066 127.115 21.2438V6.62558C127.111 6.56282 127.084 6.50379 127.039 6.45931C126.995 6.41482 126.936 6.38787 126.873 6.38342ZM119.556 18.7665C116.899 18.7665 115.056 16.6533 115.056 13.9356C115.056 11.2178 116.899 9.10289 119.556 9.10289C122.213 9.10289 124.056 11.2161 124.056 13.9356C124.056 16.655 122.221 18.7665 119.563 18.7665H119.556Z" fill="#05662C"/>
<path d="M83.5857 6.38342H80.7461C80.6833 6.38787 80.6243 6.41482 80.5798 6.45931C80.5353 6.50379 80.5084 6.56282 80.5039 6.62558V8.41997C79.659 7.20048 77.8559 6.08203 75.6712 6.08203C71.5337 6.08203 68.3926 9.61508 68.3926 13.9356C68.3926 18.2561 71.5284 21.7874 75.6712 21.7874C77.8559 21.7874 79.659 20.6672 80.5039 19.4494V21.2438C80.5084 21.3066 80.5353 21.3656 80.5798 21.4101C80.6243 21.4546 80.6833 21.4815 80.7461 21.486H83.5857C83.6483 21.4815 83.7071 21.4545 83.7513 21.41C83.7955 21.3654 83.8221 21.3064 83.8262 21.2438V6.62558C83.8221 6.56298 83.7955 6.50396 83.7513 6.45944C83.7071 6.41493 83.6483 6.38792 83.5857 6.38342ZM76.2688 18.7665C73.6103 18.7665 71.7688 16.6533 71.7688 13.9356C71.7688 11.2178 73.6103 9.10289 76.2688 9.10289C78.9273 9.10289 80.7687 11.2161 80.7687 13.9356C80.7687 16.655 78.9395 18.7665 76.281 18.7665H76.2688Z" fill="#05662C"/>
<path d="M95.8809 6.3833H93.0429C92.9092 6.3833 92.8008 6.49172 92.8008 6.62546V21.2437C92.8008 21.3775 92.9092 21.4859 93.0429 21.4859H95.8809C96.0146 21.4859 96.123 21.3775 96.123 21.2437V6.62546C96.123 6.49172 96.0146 6.3833 95.8809 6.3833Z" fill="#05662C"/>
<path d="M89.75 0.978027H86.9121C86.7783 0.978027 86.6699 1.08645 86.6699 1.22019V21.2443C86.6699 21.378 86.7783 21.4864 86.9121 21.4864H89.75C89.8838 21.4864 89.9922 21.378 89.9922 21.2443V1.22019C89.9922 1.08645 89.8838 0.978027 89.75 0.978027Z" fill="#05662C"/>
</svg>
