<svg width="75" height="55" viewBox="0 0 75 55" fill="none" xmlns="http://www.w3.org/2000/svg">
<path d="M22.7452 23.0442H16.9109V1.61426H60.3103L53.0582 18.9539H58.2526L58.1272 40.2961L14.8281 40.1831L22.7452 23.0442Z" fill="#404040"/>
<path d="M31.9429 16.2442V18.9544H21.5918V17.0472L27.8025 8.40249H21.8553V5.69238H31.6794V7.5995L25.4938 16.2442H31.9429Z" fill="white"/>
<path d="M49.3456 5.69228V18.9543H46.4849V17.0471C45.4812 18.4524 43.9129 19.3056 41.8426 19.3056C38.2291 19.3056 35.2305 16.2567 35.2305 12.3295C35.2305 8.37729 38.2291 5.35352 41.8426 5.35352C43.9129 5.35352 45.4812 6.2067 46.4849 7.58685V5.70483L49.3456 5.69228ZM46.4724 12.3295C46.4724 9.85782 44.6657 8.08872 42.2818 8.08872C39.8979 8.08872 38.0911 9.87036 38.0911 12.3295C38.0911 14.7887 39.8979 16.5704 42.2818 16.5704C44.6657 16.5704 46.4724 14.7887 46.4724 12.3295Z" fill="white"/>
<path d="M48.6564 23.0444H45.0931H42.2324V32.6929V36.319H45.0931V32.6929H48.6564C51.3163 32.6929 53.4869 30.5349 53.4869 27.875C53.4744 25.2025 51.3163 23.0444 48.6564 23.0444ZM48.6564 29.8197H45.0931V25.9051H48.6564C49.7354 25.9051 50.6137 26.7834 50.6137 27.8624C50.6137 28.9414 49.7354 29.8197 48.6564 29.8197Z" fill="white"/>
<path d="M35.4925 32.1904C37.0859 31.4 38.1775 29.7689 38.1775 27.8618C38.1775 25.2018 36.0194 23.0312 33.3595 23.0312H26.9355V36.2932H29.7962V32.6672H32.3181L34.9404 36.2932H38.4786L35.4925 32.1904ZM29.7962 25.9045H33.3595C34.4385 25.9045 35.3168 26.7827 35.3168 27.8618C35.3168 28.9408 34.4385 29.8191 33.3595 29.8191H29.7962V25.9045Z" fill="white"/>
<path d="M58.0868 46.6196H56.8195C56.7694 46.6196 56.7317 46.6572 56.7317 46.7074V47.4979C56.3553 46.9709 55.5774 46.4941 54.6364 46.4941C52.8422 46.4941 51.4746 48.0248 51.4746 49.9069C51.4746 51.7763 52.8422 53.3196 54.6364 53.3196C55.5774 53.3196 56.3679 52.8303 56.7317 52.3159V53.1063C56.7317 53.1565 56.7694 53.1941 56.8195 53.1941H58.0868C58.137 53.1941 58.1746 53.1565 58.1746 53.1063V46.7325C58.1746 46.6572 58.137 46.6196 58.0868 46.6196ZM54.8999 52.0022C53.7456 52.0022 52.9551 51.0863 52.9551 49.9069C52.9551 48.7275 53.7581 47.8116 54.8999 47.8116C56.0416 47.8116 56.8572 48.7275 56.8572 49.9069C56.8446 51.0737 56.0416 52.0022 54.8999 52.0022Z" fill="#404040"/>
<path d="M51.1756 51.8648H47.7252L51.138 47.7997C51.1505 47.7871 51.1631 47.762 51.1631 47.7495V46.7206C51.1631 46.6705 51.1254 46.6328 51.0752 46.6328H46.0063C45.9561 46.6328 45.9185 46.6705 45.9185 46.7206V47.8499C45.9185 47.9 45.9561 47.9377 46.0063 47.9377H49.3061L45.8934 52.0154C45.8809 52.0279 45.8809 52.053 45.8809 52.0781V53.0944C45.8809 53.1446 45.9185 53.1822 45.9687 53.1822H51.1756C51.2258 53.1822 51.2634 53.1446 51.2634 53.0944V51.9652C51.276 51.915 51.2383 51.8648 51.1756 51.8648Z" fill="#404040"/>
<path d="M44.9273 46.6191H43.6601C43.6099 46.6191 43.5723 46.6568 43.5723 46.707V53.156C43.5723 53.1435 43.6099 53.1811 43.6601 53.1811H44.9273C44.9775 53.1811 45.0151 53.1435 45.0151 53.0933V46.7195C45.0151 46.6568 44.9775 46.6191 44.9273 46.6191Z" fill="#404040"/>
<path d="M44.9532 44.2734H43.6484C43.5982 44.2734 43.5605 44.3111 43.5605 44.3613V45.7289C43.5605 45.7791 43.5982 45.8167 43.6484 45.8167H44.1126C44.6647 45.8167 45.0536 45.4779 45.0536 44.9259V44.3613C45.0411 44.3111 45.0034 44.2734 44.9532 44.2734Z" fill="#404040"/>
<path d="M42.4058 44.2734H41.1386C41.0884 44.2734 41.0508 44.3111 41.0508 44.3613V53.0938C41.0508 53.144 41.0884 53.1817 41.1386 53.1817H42.4058C42.456 53.1817 42.4937 53.144 42.4937 53.0938V44.3613C42.4937 44.3111 42.456 44.2734 42.4058 44.2734Z" fill="#404040"/>
<path d="M39.9208 46.6196H38.6535C38.6033 46.6196 38.5657 46.6572 38.5657 46.7074V47.4979C38.1893 46.9709 37.4114 46.4941 36.4704 46.4941C34.6762 46.4941 33.3086 48.0248 33.3086 49.9069C33.3086 51.7763 34.6762 53.3196 36.4704 53.3196C37.4114 53.3196 38.2019 52.8303 38.5657 52.3159V53.1063C38.5657 53.1565 38.6033 53.1941 38.6535 53.1941H39.9208C39.9709 53.1941 40.0086 53.1565 40.0086 53.1063V46.7325C40.0086 46.6572 39.9709 46.6196 39.9208 46.6196ZM36.7339 52.0022C35.5796 52.0022 34.7766 51.0863 34.7766 49.9069C34.7766 48.7275 35.5796 47.8116 36.7339 47.8116C37.8882 47.8116 38.6786 48.7275 38.6786 49.9069C38.6786 51.0737 37.8882 52.0022 36.7339 52.0022Z" fill="#404040"/>
<path d="M31.9035 50.8603C31.8534 50.8352 31.8032 50.8477 31.7781 50.8979C31.4519 51.5253 30.8245 51.9644 30.0215 51.9644C28.8547 51.9644 28.014 51.061 28.0266 49.8816C28.0391 48.6771 29.0429 47.711 30.2474 47.8365C30.95 47.9118 31.4769 48.3258 31.7781 48.8904C31.8032 48.9406 31.8659 48.9532 31.9035 48.9281L32.9951 48.3384C33.0453 48.3133 33.0578 48.2631 33.0328 48.2129C32.4556 47.159 31.3515 46.4814 30.0215 46.4814C28.0517 46.4814 26.5586 47.9494 26.5586 49.8942C26.5586 51.8389 28.0517 53.3069 30.0215 53.3069C31.3515 53.3069 32.4556 52.6294 33.0328 51.5754C33.0578 51.5253 33.0453 51.4751 32.9951 51.45L31.9035 50.8603Z" fill="#404040"/>
<path d="M22.7074 46.4941C20.7626 46.4941 19.2695 47.9998 19.2695 49.9069C19.2695 51.814 20.7626 53.3196 22.7074 53.3196C24.6521 53.3196 26.1452 51.814 26.1452 49.9069C26.1452 47.9998 24.6396 46.4941 22.7074 46.4941ZM22.7074 51.9771C21.5405 51.9771 20.725 51.0737 20.725 49.9069C20.725 48.74 21.5405 47.8366 22.7074 47.8366C23.8617 47.8366 24.6772 48.74 24.6772 49.9069C24.6647 51.0612 23.8617 51.9771 22.7074 51.9771Z" fill="#404040"/>
<path d="M19.1185 51.7143H16.2327V46.7206C16.2327 46.6705 16.1951 46.6328 16.1449 46.6328H14.7898C14.7396 46.6328 14.6895 46.6705 14.6895 46.7206V51.8899C14.6895 52.6051 15.2666 53.1822 15.9943 53.1822H19.1185C19.1687 53.1822 19.2063 53.1446 19.2063 53.0944V51.8021C19.2063 51.7519 19.1687 51.7143 19.1185 51.7143Z" fill="#404040"/>
</svg>
