<svg width="73" height="37" viewBox="0 0 73 37" fill="none" xmlns="http://www.w3.org/2000/svg">
<g clip-path="url(#clip0_588_1556)">
<path d="M4.96409 18.8971L5.94342 9.75342H70.5491L65.5225 26.1322H8.86141C5.05403 26.1222 3.94479 22.4847 4.96409 18.8971Z" fill="#FFE800"/>
<path d="M53.1045 0.609375H47.7382L46.9688 3.95708H52.3251L53.1045 0.609375Z" fill="#464547"/>
<path d="M16.2772 7.44482H8.68245C6.74378 7.44482 5.06493 8.78391 4.62523 10.6726L2.22688 21.0255C1.62729 23.6337 3.60593 26.122 6.28409 26.122H15.5078L16.0374 23.8136H6.93365L8.27273 17.9276H19.0753L20.3245 12.5413C20.934 9.94311 18.9554 7.44482 16.2772 7.44482ZM14.6284 15.6292H8.80236L9.70174 11.7918L10.1814 9.75324H16.0174L14.6284 15.6292Z" fill="#464547"/>
<path d="M68.4658 7.44482H56.6139L49.8086 36.8246H55.1649L57.6432 26.122H66.0674C68.0061 26.122 69.6849 24.7829 70.1246 22.8942L72.523 12.5413C73.1326 9.93312 71.1439 7.44482 68.4658 7.44482ZM64.5585 23.8236H58.1828L61.4406 9.75324H67.8162L64.5585 23.8236Z" fill="#464547"/>
<path d="M46.4498 7.44482L42.1328 26.122H47.4891L51.8062 7.44482H46.4498Z" fill="#464547"/>
<path d="M41.6512 7.44482H36.4048H30.0592H28.0106C26.0719 7.44482 24.3931 8.7839 23.9534 10.6726L21.555 21.0255C20.9554 23.6337 22.9341 26.122 25.6122 26.122H32.0978L29.6195 36.8246H34.8559L41.6512 7.44482ZM26.2718 23.8236L29.5295 9.75324H35.6753L32.5075 23.8236H26.2718Z" fill="#464547"/>
<path d="M27.5827 30.2604H26.7932C26.7633 30.2604 26.7333 30.2804 26.7333 30.3203V30.82C26.5034 30.4902 26.0138 30.1904 25.4142 30.1904C24.295 30.1904 23.4355 31.1498 23.4355 32.329C23.4355 33.5082 24.295 34.4675 25.4142 34.4675C26.0038 34.4675 26.5034 34.1677 26.7333 33.8379V34.3376C26.7333 34.3676 26.7533 34.3975 26.7932 34.3975H27.5827C27.6127 34.3975 27.6427 34.3776 27.6427 34.3376V30.3403C27.6427 30.2804 27.6127 30.2604 27.5827 30.2604ZM25.5841 33.6281C24.8646 33.6281 24.3649 33.0485 24.3649 32.309C24.3649 31.5695 24.8646 30.9999 25.5841 30.9999C26.3036 30.9999 26.8132 31.5695 26.8132 32.309C26.8132 33.0485 26.3036 33.6281 25.5841 33.6281Z" fill="#464547"/>
<path d="M23.2574 33.5477H21.0989L23.2374 30.9995C23.2474 30.9895 23.2474 30.9795 23.2474 30.9695V30.31C23.2474 30.28 23.2274 30.25 23.1875 30.25H20.0096C19.9797 30.25 19.9497 30.27 19.9497 30.31V31.0195C19.9497 31.0495 19.9697 31.0794 20.0096 31.0794H22.0782L19.9397 33.6377C19.9297 33.6477 19.9297 33.6577 19.9297 33.6776V34.3172C19.9297 34.3472 19.9497 34.3772 19.9896 34.3772H23.2574C23.2874 34.3772 23.3174 34.3572 23.3174 34.3172V33.6077C23.3074 33.5677 23.2874 33.5477 23.2574 33.5477Z" fill="#464547"/>
<path d="M19.3397 30.2607H18.5502C18.5202 30.2607 18.4902 30.2807 18.4902 30.3207V34.3579C18.4902 34.3479 18.5102 34.3679 18.5502 34.3679H19.3397C19.3696 34.3679 19.3996 34.3479 19.3996 34.308V30.3107C19.3896 30.2807 19.3696 30.2607 19.3397 30.2607Z" fill="#464547"/>
<path d="M19.3481 28.7812H18.5287C18.4987 28.7812 18.4688 28.8012 18.4688 28.8412V29.6906C18.4688 29.7206 18.4887 29.7506 18.5287 29.7506H18.8185C19.1683 29.7506 19.4081 29.5407 19.4081 29.191V28.8412C19.4081 28.8112 19.3781 28.7812 19.3481 28.7812Z" fill="#464547"/>
<path d="M17.7498 28.7812H16.9604C16.9304 28.7812 16.9004 28.8012 16.9004 28.8412V34.3075C16.9004 34.3374 16.9204 34.3674 16.9604 34.3674H17.7498C17.7798 34.3674 17.8098 34.3474 17.8098 34.3075V28.8312C17.8098 28.8112 17.7798 28.7812 17.7498 28.7812Z" fill="#464547"/>
<path d="M16.1882 30.2604H15.3987C15.3687 30.2604 15.3388 30.2804 15.3388 30.3203V30.82C15.1089 30.4902 14.6192 30.1904 14.0197 30.1904C12.9004 30.1904 12.041 31.1498 12.041 32.329C12.041 33.5082 12.9004 34.4675 14.0197 34.4675C14.6093 34.4675 15.1089 34.1677 15.3388 33.8379V34.3376C15.3388 34.3676 15.3587 34.3975 15.3987 34.3975H16.1882C16.2181 34.3975 16.2481 34.3776 16.2481 34.3376V30.3403C16.2481 30.2804 16.2181 30.2604 16.1882 30.2604ZM14.1895 33.6281C13.46 33.6281 12.9604 33.0485 12.9604 32.309C12.9604 31.5695 13.46 30.9999 14.1895 30.9999C14.909 30.9999 15.4087 31.5695 15.4087 32.309C15.4187 33.0485 14.919 33.6281 14.1895 33.6281Z" fill="#464547"/>
<path d="M11.1739 32.918C11.1439 32.898 11.1139 32.908 11.0939 32.938C10.8841 33.3278 10.4943 33.6076 9.99468 33.6076C9.25519 33.6076 8.74554 33.038 8.74554 32.2985C8.75553 31.539 9.3851 30.9394 10.1346 31.0193C10.5743 31.0693 10.9141 31.3291 11.0939 31.6789C11.1039 31.7089 11.1439 31.7189 11.1739 31.7089L11.8634 31.3391C11.8934 31.3191 11.9034 31.2892 11.8834 31.2592C11.5236 30.5996 10.8341 30.1699 9.99468 30.1699C8.75553 30.1699 7.82617 31.0893 7.82617 32.3085C7.82617 33.5276 8.76553 34.447 9.99468 34.447C10.8241 34.447 11.5236 34.0273 11.8834 33.3577C11.9034 33.3278 11.8934 33.2978 11.8634 33.2778L11.1739 32.918Z" fill="#464547"/>
<path d="M5.3968 30.1699C4.17764 30.1699 3.23828 31.1093 3.23828 32.3085C3.23828 33.4976 4.17764 34.447 5.3968 34.447C6.61596 34.447 7.54532 33.4976 7.54532 32.3085C7.55532 31.1193 6.61596 30.1699 5.3968 30.1699ZM5.3968 33.6076C4.6673 33.6076 4.15765 33.038 4.15765 32.3085C4.15765 31.579 4.6673 31.0093 5.3968 31.0093C6.11631 31.0093 6.62595 31.579 6.62595 32.3085C6.62595 33.038 6.1263 33.6076 5.3968 33.6076Z" fill="#464547"/>
<path d="M3.14919 33.4478H1.34043V30.31C1.34043 30.28 1.32044 30.25 1.28047 30.25H0.431053C0.401074 30.25 0.371094 30.27 0.371094 30.31V33.5477C0.371094 33.9974 0.730847 34.3572 1.18054 34.3572H3.13919C3.16917 34.3572 3.19915 34.3372 3.19915 34.2972V33.5078C3.20915 33.4678 3.17917 33.4478 3.14919 33.4478Z" fill="#464547"/>
</g>
<defs>
<clipPath id="clip0_588_1556">
<rect width="73" height="36.5" fill="white" transform="translate(0 0.466797)"/>
</clipPath>
</defs>
</svg>
